<svg xmlns="http://www.w3.org/2000/svg" viewBox="0 0 980 340" role="img" aria-label="WATCH FOR: equipartition_failure(unequal_partition) of 1/4 on a circle"><rect x="0" y="0" width="980" height="340" fill="#f8f1df"/><text x="490" y="28" text-anchor="middle" font-family="Georgia, 'Times New Roman', serif" font-size="20" font-weight="700" fill="#1b1810">WATCH FOR: equipartition_failure(unequal_partition) of 1/4 on a circle</text><text x="172" y="64" text-anchor="middle" font-family="system-ui,sans-serif" font-size="15" font-weight="700" fill="#1b1810">establish whole</text><text x="172" y="84" text-anchor="middle" font-family="system-ui,sans-serif" font-size="11" fill="#5a5446">Establish the whole. One region, not yet partit…</text><g transform="translate(50.425925925925924 106.12962962962963) scale(0.9351851851851852)"><rect x="22" y="2" width="216" height="216" fill="#f8f1df" stroke="#0d0c08" stroke-width="0"></rect><circle cx="130" cy="110" r="84" fill="#cabf9f" stroke="#0d0c08" stroke-width="1.5"></circle><text x="130" y="216" text-anchor="middle" dominant-baseline="central" font-family="Georgia, &quot;Times New Roman&quot;, serif" font-size="14" fill="#1b1810">1 whole (target: thirds-style 4 equal parts)</text></g><text x="490" y="64" text-anchor="middle" font-family="system-ui,sans-serif" font-size="15" font-weight="700" fill="#1b1810">apply partition</text><text x="490" y="84" text-anchor="middle" font-family="system-ui,sans-serif" font-size="11" fill="#5a5446">Cut the circle with equal-width vertical strips…</text><g transform="translate(368.4259259259259 106.12962962962963) scale(0.9351851851851852)"><rect x="22" y="2" width="216" height="216" fill="#f8f1df" stroke="#0d0c08" stroke-width="0"></rect><circle cx="130" cy="110" r="84" fill="#cabf9f" stroke="#0d0c08" stroke-width="1.5"></circle><text x="130" y="216" text-anchor="middle" dominant-baseline="central" font-family="Georgia, &quot;Times New Roman&quot;, serif" font-size="14" fill="#1b1810">circle</text><line x1="88" y1="37.25386608210715" x2="88" y2="182.74613391789285" stroke="#b95238" stroke-width="2.4" stroke-dasharray="9 5"></line><line x1="130" y1="26" x2="130" y2="194" stroke="#b95238" stroke-width="2.4" stroke-dasharray="9 5"></line><line x1="172" y1="37.25386608210715" x2="172" y2="182.74613391789285" stroke="#b95238" stroke-width="2.4" stroke-dasharray="9 5"></line><text x="130" y="6" text-anchor="middle" dominant-baseline="central" font-family="Georgia, &quot;Times New Roman&quot;, serif" font-size="13" fill="#1b1810">4 vertical strips: equal WIDTH, unequal AREA</text></g><text x="808" y="64" text-anchor="middle" font-family="system-ui,sans-serif" font-size="15" font-weight="700" fill="#1b1810">shade parts</text><text x="808" y="84" text-anchor="middle" font-family="system-ui,sans-serif" font-size="11" fill="#5a5446">Shade some strips. Because the strips are unequ…</text><g transform="translate(686.4259259259259 106.12962962962963) scale(0.9351851851851852)"><rect x="22" y="2" width="216" height="216" fill="#f8f1df" stroke="#0d0c08" stroke-width="0"></rect><circle cx="130" cy="110" r="84" fill="#cabf9f" stroke="#0d0c08" stroke-width="1.5"></circle><text x="130" y="216" text-anchor="middle" dominant-baseline="central" font-family="Georgia, &quot;Times New Roman&quot;, serif" font-size="14" fill="#1b1810">circle</text><polygon points="46,110 49.5,86.00520889859635 53,76.42917933681096 56.5,69.33367486482211 60,63.5672529350244 63.5,58.67992595484687 67,54.439222467643596 70.5,50.70623978865904 74,47.390096630005885 77.5,44.427521016816826 81,41.772439586337256 84.5,39.39015649358795 88,37.25386608210715 88,182.74613391789285 84.5,180.60984350641206 81,178.22756041366273 77.5,175.57247898318317 74,172.60990336999413 70.5,169.29376021134095 67,165.5607775323564 63.5,161.32007404515312 60,156.43274706497562 56.5,150.66632513517789 53,143.57082066318904 49.5,133.99479110140365 46,110" fill="#b95238" opacity="0.55" stroke="none"></polygon><line x1="88" y1="37.25386608210715" x2="88" y2="182.74613391789285" stroke="#b95238" stroke-width="2.4" stroke-dasharray="9 5"></line><line x1="130" y1="26" x2="130" y2="194" stroke="#b95238" stroke-width="2.4" stroke-dasharray="9 5"></line><line x1="172" y1="37.25386608210715" x2="172" y2="182.74613391789285" stroke="#b95238" stroke-width="2.4" stroke-dasharray="9 5"></line><text x="130" y="6" text-anchor="middle" dominant-baseline="central" font-family="Georgia, &quot;Times New Roman&quot;, serif" font-size="13" fill="#1b1810">shaded 1 of 4 unequal strips: not 1/4</text></g></svg>
