<svg xmlns="http://www.w3.org/2000/svg" viewBox="0 0 980 340" role="img" aria-label="WATCH FOR: equipartition_failure(miscount_partition) of 1/4 on a rectangle"><rect x="0" y="0" width="980" height="340" fill="#f8f1df"/><text x="490" y="28" text-anchor="middle" font-family="Georgia, 'Times New Roman', serif" font-size="20" font-weight="700" fill="#1b1810">WATCH FOR: equipartition_failure(miscount_partition) of 1/4 on a rectangle</text><text x="172" y="64" text-anchor="middle" font-family="system-ui,sans-serif" font-size="15" font-weight="700" fill="#1b1810">establish whole</text><text x="172" y="84" text-anchor="middle" font-family="system-ui,sans-serif" font-size="11" fill="#5a5446">Establish the whole region. One area, not yet p…</text><g transform="translate(15.28358208955224 80.26865671641792) scale(1.1194029850746268)"><rect x="6" y="36" width="268" height="158" fill="#f8f1df" stroke="#0d0c08" stroke-width="0"></rect><rect x="30" y="60" width="220" height="110" fill="#cabf9f" stroke="#0d0c08" stroke-width="1.5"></rect><rect x="30" y="60" width="220" height="110" fill="none" stroke="#0d0c08" stroke-width="1.5"></rect><text x="140" y="115" text-anchor="middle" dominant-baseline="central" font-family="Georgia, &quot;Times New Roman&quot;, serif" font-size="22" fill="#1b1810">1 whole (target: 4 equal parts)</text></g><text x="490" y="64" text-anchor="middle" font-family="system-ui,sans-serif" font-size="15" font-weight="700" fill="#1b1810">apply partition</text><text x="490" y="84" text-anchor="middle" font-family="system-ui,sans-serif" font-size="11" fill="#5a5446">Partition the region into equal parts, but make…</text><g transform="translate(333.2835820895522 80.26865671641792) scale(1.1194029850746268)"><rect x="6" y="36" width="268" height="158" fill="#f8f1df" stroke="#0d0c08" stroke-width="0"></rect><rect x="30" y="60" width="220" height="110" fill="#cabf9f" stroke="#0d0c08" stroke-width="1.5"></rect><line x1="74" y1="60" x2="74" y2="170" stroke="#0d0c08" stroke-width="0.5"></line><line x1="118" y1="60" x2="118" y2="170" stroke="#0d0c08" stroke-width="0.5"></line><line x1="162" y1="60" x2="162" y2="170" stroke="#0d0c08" stroke-width="0.5"></line><line x1="206" y1="60" x2="206" y2="170" stroke="#0d0c08" stroke-width="0.5"></line><rect x="30" y="60" width="220" height="110" fill="none" stroke="#0d0c08" stroke-width="1.5"></rect><text x="140" y="115" text-anchor="middle" dominant-baseline="central" font-family="Georgia, &quot;Times New Roman&quot;, serif" font-size="22" fill="#1b1810">drew 5 equal parts for a 4-part task (off by one)</text></g><text x="808" y="64" text-anchor="middle" font-family="system-ui,sans-serif" font-size="15" font-weight="700" fill="#1b1810">shade parts</text><text x="808" y="84" text-anchor="middle" font-family="system-ui,sans-serif" font-size="11" fill="#5a5446">Shade and read the fraction off the miscounted …</text><g transform="translate(651.2835820895523 80.26865671641792) scale(1.1194029850746268)"><rect x="6" y="36" width="268" height="158" fill="#f8f1df" stroke="#0d0c08" stroke-width="0"></rect><rect x="30" y="60" width="44" height="110" fill="#b95238" stroke="#0d0c08" stroke-width="1.5"></rect><rect x="30" y="60" width="44" height="110" fill="none" stroke="#0d0c08" stroke-width="1.5"></rect><text x="52" y="115" text-anchor="middle" dominant-baseline="central" font-family="Georgia, &quot;Times New Roman&quot;, serif" font-size="22" fill="#1b1810">read 1/5 off a 5-part region (wanted /4)</text><rect x="74" y="60" width="44" height="110" fill="#cabf9f" stroke="#0d0c08" stroke-width="1.5"></rect><rect x="74" y="60" width="44" height="110" fill="none" stroke="#0d0c08" stroke-width="1.5"></rect><rect x="118" y="60" width="44" height="110" fill="#cabf9f" stroke="#0d0c08" stroke-width="1.5"></rect><rect x="118" y="60" width="44" height="110" fill="none" stroke="#0d0c08" stroke-width="1.5"></rect><rect x="162" y="60" width="44" height="110" fill="#cabf9f" stroke="#0d0c08" stroke-width="1.5"></rect><rect x="162" y="60" width="44" height="110" fill="none" stroke="#0d0c08" stroke-width="1.5"></rect><rect x="206" y="60" width="44" height="110" fill="#cabf9f" stroke="#0d0c08" stroke-width="1.5"></rect><rect x="206" y="60" width="44" height="110" fill="none" stroke="#0d0c08" stroke-width="1.5"></rect></g></svg>
