<?xml version="1.0" encoding="UTF-8"?>
<svg id="Layer_1" xmlns="http://www.w3.org/2000/svg" version="1.1" viewBox="0 0 237.1668 237.1668">
  <!-- Generator: Adobe Illustrator 30.4.0, SVG Export Plug-In . SVG Version: 2.1.4 Build 226)  -->
  <defs>
    <style>
      .st0 {
        stroke-width: 2.2px;
      }

      .st0, .st1 {
        fill: none;
      }

      .st0, .st1, .st2 {
        stroke: #d4a747;
        stroke-linecap: round;
        stroke-linejoin: round;
      }

      .st3, .st2 {
        fill: #d4a747;
      }

      .st1 {
        stroke-width: 11px;
      }

      .st2 {
        fill-opacity: .2;
        stroke-width: 2.4px;
      }

      .st4 {
        fill: #2a2418;
        stroke: #000;
        stroke-miterlimit: 10;
      }

      .st5 {
        opacity: .78;
      }
    </style>
  </defs>
  <circle class="st4" cx="118.5834" cy="118.5834" r="118.0834"/>
  <g>
    <path class="st2" d="M90.5834,104.5834c-14-20-40-40-70-46,4,14,14,28,26,36s28,12,40,14l4-4Z"/>
    <g>
      <path class="st0" d="M84.5834,106.5834c-18-12-38-26-58-40"/>
      <path class="st0" d="M82.5834,102.5834c-18-14-36-28-50-40"/>
      <path class="st0" d="M86.5834,110.5834c-22-6-44-16-62-36"/>
    </g>
    <path class="st0" d="M26.5834,66.5834c-1.3333-5.3333-4-8.6667-8-10"/>
    <path class="st0" d="M32.5834,62.5834c-1.3333-4.6667-4-7.3333-8-8"/>
    <path class="st2" d="M146.5834,104.5834c14-20,40-40,70-46-4,14-14,28-26,36s-28,12-40,14l-4-4Z"/>
    <g>
      <path class="st0" d="M152.5834,106.5834c18-12,38-26,58-40"/>
      <path class="st0" d="M154.5834,102.5834c18-14,36-28,50-40"/>
      <path class="st0" d="M150.5834,110.5834c22-6,44-16,62-36"/>
    </g>
    <path class="st0" d="M210.5834,66.5834c1.3333-5.3333,4-8.6667,8-10"/>
    <path class="st0" d="M204.5834,62.5834c1.3333-4.6667,4-7.3333,8-8"/>
    <g>
      <path class="st1" d="M88.5834,104.5834c-4,26-4,50,2,78"/>
      <path class="st1" d="M148.5834,104.5834c4,26,4,50-2,78"/>
      <path class="st1" d="M89.5834,144.5834c19.3333-4,38.6667-3.3333,58,2"/>
    </g>
  </g>
  <g class="st5">
    <path class="st3" d="M60.9834,183.5334l1.6,4.6h4.8l-3.9,2.9,1.5,4.6-4-2.8-4,2.8,1.5-4.6-3.9-2.9h4.8l1.6-4.6Z"/>
    <path class="st3" d="M176.9834,41.5334l1.4,4h4.2l-3.4,2.5,1.3,4-3.5-2.5-3.5,2.5,1.3-4-3.4-2.5h4.2l1.4-4Z"/>
  </g>
</svg>