<svg xmlns="http://www.w3.org/2000/svg" viewBox="36 16 648 448" preserveAspectRatio="xMidYMid meet" role="img" aria-label="DEMO-balance-operational-equals correct 2x + 3 = 11"><rect x="36" y="16" width="648" height="448" fill="#f8f1df" stroke="#0d0c08" stroke-width="0"></rect><path d="M360 120 L342 190 L378 190 Z" fill="#cabf9f" stroke="#0d0c08" stroke-width="0.6"></path><line x1="100" y1="120" x2="620" y2="120" stroke="#0d0c08" stroke-width="5"></line><line x1="100" y1="120" x2="100" y2="210" stroke="#0d0c08" stroke-width="1.25"></line><path d="M 25 210 Q 100 268 175 210" fill="#cabf9f" stroke="#0d0c08" stroke-width="1.5"></path><rect x="39" y="196" width="24" height="24" fill="#cabf9f" stroke="#0d0c08" stroke-width="1"></rect><text x="51" y="208" text-anchor="middle" dominant-baseline="central" font-family="Georgia, Times New Roman, serif" font-size="13" fill="#1b1810">x</text><rect x="67" y="196" width="24" height="24" fill="#cabf9f" stroke="#0d0c08" stroke-width="1"></rect><text x="79" y="208" text-anchor="middle" dominant-baseline="central" font-family="Georgia, Times New Roman, serif" font-size="13" fill="#1b1810">x</text><line x1="620" y1="120" x2="620" y2="210" stroke="#0d0c08" stroke-width="1.25"></line><path d="M 545 210 Q 620 268 695 210" fill="#cabf9f" stroke="#0d0c08" stroke-width="1.5"></path><rect x="559" y="196" width="24" height="24" fill="#cabf9f" stroke="#0d0c08" stroke-width="1"></rect><rect x="587" y="196" width="24" height="24" fill="#cabf9f" stroke="#0d0c08" stroke-width="1"></rect><rect x="615" y="196" width="24" height="24" fill="#cabf9f" stroke="#0d0c08" stroke-width="1"></rect><rect x="643" y="196" width="24" height="24" fill="#cabf9f" stroke="#0d0c08" stroke-width="1"></rect><rect x="671" y="196" width="24" height="24" fill="#cabf9f" stroke="#0d0c08" stroke-width="1"></rect><rect x="559" y="168" width="24" height="24" fill="#cabf9f" stroke="#0d0c08" stroke-width="1"></rect><rect x="587" y="168" width="24" height="24" fill="#cabf9f" stroke="#0d0c08" stroke-width="1"></rect><rect x="615" y="168" width="24" height="24" fill="#cabf9f" stroke="#0d0c08" stroke-width="1"></rect><metadata data-hermes-kind="monitoring-visual-proof">{&quot;kind&quot;:&quot;hermes_monitoring_visual_proof&quot;,&quot;lesson_code&quot;:&quot;DEMO-balance-operational-equals&quot;,&quot;visual_index&quot;:0,&quot;side&quot;:&quot;correct&quot;,&quot;expression&quot;:&quot;2x + 3 = 11&quot;,&quot;proof&quot;:{&quot;source&quot;:&quot;&quot;,&quot;status&quot;:&quot;&quot;,&quot;frame_count&quot;:null,&quot;temporal&quot;:false,&quot;frame_sequence&quot;:[]},&quot;interpretive_residue&quot;:{}}</metadata></svg>
