<svg xmlns="http://www.w3.org/2000/svg" viewBox="0 0 1370 312" preserveAspectRatio="xMidYMid meet" role="img" aria-label="DEMO-hybridization-radial-partition-on-set incorrect filmstrip radial partition on set"><rect x="0" y="0" width="1370" height="312" fill="#f8f1df"></rect><metadata data-hermes-kind="monitoring-visual-proof">{&quot;kind&quot;:&quot;hermes_monitoring_visual_filmstrip_proof&quot;,&quot;lesson_code&quot;:&quot;DEMO-hybridization-radial-partition-on-set&quot;,&quot;visual_index&quot;:0,&quot;side&quot;:&quot;incorrect&quot;,&quot;expression&quot;:&quot;radial partition on set&quot;,&quot;proof&quot;:{&quot;source&quot;:&quot;&quot;,&quot;status&quot;:&quot;&quot;,&quot;frame_count&quot;:null,&quot;temporal&quot;:false,&quot;frame_sequence&quot;:[]},&quot;interpretive_residue&quot;:{}}</metadata><g data-frame-index="0" data-caption-lines="1" transform="translate(18 18)"><rect x="0" y="0" width="320" height="276" rx="6" fill="#fffaf0" stroke="#cabf9f"></rect><svg xmlns="http://www.w3.org/2000/svg" viewBox="102 63 276 236" preserveAspectRatio="xMidYMid meet" x="10" y="10" width="300" height="176"><rect x="102" y="63" width="276" height="236" fill="#f8f1df" stroke="#0d0c08" stroke-width="0"></rect><circle cx="160" cy="132" r="34" fill="#cabf9f" stroke="#0d0c08" stroke-width="1.5"></circle><circle cx="246" cy="132" r="34" fill="#cabf9f" stroke="#0d0c08" stroke-width="1.5"></circle><circle cx="160" cy="218" r="34" fill="#cabf9f" stroke="#0d0c08" stroke-width="1.5"></circle><text x="203" y="274" text-anchor="middle" dominant-baseline="central" font-family="Georgia, Times New Roman, serif" font-size="14" fill="#1b1810">set host</text></svg><text x="14" y="210" font-family="Georgia, Times New Roman, serif" font-size="14" font-weight="700" fill="#1b1810">Step 1: host_shape(fractional_set_model)</text><text x="14" y="232" font-family="system-ui, sans-serif" font-size="12" fill="#4d4638"><tspan x="14" dy="0">Choose a collection as one fractional set host.</tspan></text></g><g data-frame-index="1" data-caption-lines="2" transform="translate(356 18)"><rect x="0" y="0" width="320" height="276" rx="6" fill="#fffaf0" stroke="#cabf9f"></rect><svg xmlns="http://www.w3.org/2000/svg" viewBox="102 63 276 236" preserveAspectRatio="xMidYMid meet" x="10" y="10" width="300" height="176"><rect x="102" y="63" width="276" height="236" fill="#f8f1df" stroke="#0d0c08" stroke-width="0"></rect><circle cx="260" cy="181" r="94" fill="#cabf9f" stroke="#0d0c08" stroke-width="1.5"></circle><text x="260" y="297" text-anchor="middle" dominant-baseline="central" font-family="Georgia, Times New Roman, serif" font-size="14" fill="#1b1810">circle home</text><line x1="260" y1="181" x2="260" y2="87" stroke="#d4a747" stroke-width="1.4"></line><line x1="260" y1="181" x2="341.4063879557372" y2="134" stroke="#d4a747" stroke-width="1.4"></line><line x1="260" y1="181" x2="341.4063879557373" y2="228" stroke="#d4a747" stroke-width="1.4"></line><line x1="260" y1="181" x2="260" y2="275" stroke="#d4a747" stroke-width="1.4"></line><line x1="260" y1="181" x2="178.59361204426278" y2="228.00000000000003" stroke="#d4a747" stroke-width="1.4"></line><line x1="260" y1="181" x2="178.59361204426278" y2="134" stroke="#d4a747" stroke-width="1.4"></line><text x="260" y="67" text-anchor="middle" dominant-baseline="central" font-family="Georgia, Times New Roman, serif" font-size="13" fill="#1b1810">licensed radial partition</text></svg><text x="14" y="210" font-family="Georgia, Times New Roman, serif" font-size="14" font-weight="700" fill="#1b1810">Step 2: licensed_home(circle_radial_partition,circle_region)</text><text x="14" y="232" font-family="system-ui, sans-serif" font-size="12" fill="#4d4638"><tspan x="14" dy="0">The radial partition is licensed inside the</tspan><tspan x="14" dy="15">circle-region vocabulary.</tspan></text></g><g data-frame-index="2" data-caption-lines="2" transform="translate(694 18)"><rect x="0" y="0" width="320" height="276" rx="6" fill="#fffaf0" stroke="#cabf9f"></rect><svg xmlns="http://www.w3.org/2000/svg" viewBox="102 63 276 236" preserveAspectRatio="xMidYMid meet" x="10" y="10" width="300" height="176"><rect x="102" y="63" width="276" height="236" fill="#f8f1df" stroke="#0d0c08" stroke-width="0"></rect><circle cx="160" cy="132" r="34" fill="#cabf9f" stroke="#0d0c08" stroke-width="1.5"></circle><circle cx="246" cy="132" r="34" fill="#cabf9f" stroke="#0d0c08" stroke-width="1.5"></circle><circle cx="160" cy="218" r="34" fill="#cabf9f" stroke="#0d0c08" stroke-width="1.5"></circle><text x="203" y="274" text-anchor="middle" dominant-baseline="central" font-family="Georgia, Times New Roman, serif" font-size="14" fill="#1b1810">set host</text><path d="M 160 132 L 160 98 A 34 34 0 0 1 189.44486372867092 149 Z" fill="#b95238" opacity="0.7" stroke="none"></path><line x1="160" y1="132" x2="160" y2="98" stroke="#b95238" stroke-width="2.2" stroke-dasharray="7 4"></line><line x1="160" y1="132" x2="189.44486372867092" y2="149" stroke="#b95238" stroke-width="2.2" stroke-dasharray="7 4"></line><line x1="160" y1="132" x2="130.5551362713291" y2="149" stroke="#b95238" stroke-width="2.2" stroke-dasharray="7 4"></line><path d="M 246 132 L 246 98 A 34 34 0 0 1 275.4448637286709 149 Z" fill="#b95238" opacity="0.7" stroke="none"></path><line x1="246" y1="132" x2="246" y2="98" stroke="#b95238" stroke-width="2.2" stroke-dasharray="7 4"></line><line x1="246" y1="132" x2="275.4448637286709" y2="149" stroke="#b95238" stroke-width="2.2" stroke-dasharray="7 4"></line><line x1="246" y1="132" x2="216.5551362713291" y2="149" stroke="#b95238" stroke-width="2.2" stroke-dasharray="7 4"></line><line x1="160" y1="218" x2="160" y2="184" stroke="#b95238" stroke-width="2.2" stroke-dasharray="7 4"></line><line x1="160" y1="218" x2="189.44486372867092" y2="235" stroke="#b95238" stroke-width="2.2" stroke-dasharray="7 4"></line><line x1="160" y1="218" x2="130.5551362713291" y2="235" stroke="#b95238" stroke-width="2.2" stroke-dasharray="7 4"></line><text x="203" y="80" text-anchor="middle" dominant-baseline="central" font-family="Georgia, Times New Roman, serif" font-size="13" fill="#1b1810">radial partition on set</text></svg><text x="14" y="210" font-family="Georgia, Times New Roman, serif" font-size="14" font-weight="700" fill="#1b1810">Step 3: transplant(circle_radial_partition,fractional_set_model)</text><text x="14" y="232" font-family="system-ui, sans-serif" font-size="12" fill="#4d4638"><tspan x="14" dy="0">Transplant the circle's radial partition rule</tspan><tspan x="14" dy="15">onto each element of the set host.</tspan></text></g><g data-frame-index="3" data-caption-lines="2" transform="translate(1032 18)"><rect x="0" y="0" width="320" height="276" rx="6" fill="#fffaf0" stroke="#cabf9f"></rect><svg xmlns="http://www.w3.org/2000/svg" viewBox="102 63 276 236" preserveAspectRatio="xMidYMid meet" x="10" y="10" width="300" height="176"><rect x="102" y="63" width="276" height="236" fill="#f8f1df" stroke="#0d0c08" stroke-width="0"></rect><circle cx="160" cy="132" r="34" fill="#cabf9f" stroke="#0d0c08" stroke-width="1.5"></circle><circle cx="246" cy="132" r="34" fill="#cabf9f" stroke="#0d0c08" stroke-width="1.5"></circle><circle cx="160" cy="218" r="34" fill="#cabf9f" stroke="#0d0c08" stroke-width="1.5"></circle><text x="203" y="274" text-anchor="middle" dominant-baseline="central" font-family="Georgia, Times New Roman, serif" font-size="14" fill="#1b1810">set host</text><path d="M 160 132 L 160 98 A 34 34 0 0 1 189.44486372867092 149 Z" fill="#b95238" opacity="0.7" stroke="none"></path><line x1="160" y1="132" x2="160" y2="98" stroke="#b95238" stroke-width="2.2" stroke-dasharray="7 4"></line><line x1="160" y1="132" x2="189.44486372867092" y2="149" stroke="#b95238" stroke-width="2.2" stroke-dasharray="7 4"></line><line x1="160" y1="132" x2="130.5551362713291" y2="149" stroke="#b95238" stroke-width="2.2" stroke-dasharray="7 4"></line><path d="M 246 132 L 246 98 A 34 34 0 0 1 275.4448637286709 149 Z" fill="#b95238" opacity="0.7" stroke="none"></path><line x1="246" y1="132" x2="246" y2="98" stroke="#b95238" stroke-width="2.2" stroke-dasharray="7 4"></line><line x1="246" y1="132" x2="275.4448637286709" y2="149" stroke="#b95238" stroke-width="2.2" stroke-dasharray="7 4"></line><line x1="246" y1="132" x2="216.5551362713291" y2="149" stroke="#b95238" stroke-width="2.2" stroke-dasharray="7 4"></line><line x1="160" y1="218" x2="160" y2="184" stroke="#b95238" stroke-width="2.2" stroke-dasharray="7 4"></line><line x1="160" y1="218" x2="189.44486372867092" y2="235" stroke="#b95238" stroke-width="2.2" stroke-dasharray="7 4"></line><line x1="160" y1="218" x2="130.5551362713291" y2="235" stroke="#b95238" stroke-width="2.2" stroke-dasharray="7 4"></line><text x="203" y="80" text-anchor="middle" dominant-baseline="central" font-family="Georgia, Times New Roman, serif" font-size="13" fill="#1b1810">radial partition on set</text></svg><text x="14" y="210" font-family="Georgia, Times New Roman, serif" font-size="14" font-weight="700" fill="#1b1810">Step 4: hybrid_result(radial_partition_on_set)</text><text x="14" y="232" font-family="system-ui, sans-serif" font-size="12" fill="#4d4638"><tspan x="14" dy="0">The result is a hybridized model: a foreign</tspan><tspan x="14" dy="15">primitive on an illicit host.</tspan></text></g></svg>
