<svg xmlns="http://www.w3.org/2000/svg" viewBox="0 0 1370 296" preserveAspectRatio="xMidYMid meet" role="img" aria-label="DEMO-hybridization-circle-partition-on-rectangle incorrect filmstrip circle partition on rectangle"><rect x="0" y="0" width="1370" height="296" fill="#f8f1df"></rect><metadata data-hermes-kind="monitoring-visual-proof">{&quot;kind&quot;:&quot;hermes_monitoring_visual_filmstrip_proof&quot;,&quot;lesson_code&quot;:&quot;DEMO-hybridization-circle-partition-on-rectangle&quot;,&quot;visual_index&quot;:0,&quot;side&quot;:&quot;incorrect&quot;,&quot;expression&quot;:&quot;circle partition on rectangle&quot;,&quot;proof&quot;:{&quot;source&quot;:&quot;&quot;,&quot;status&quot;:&quot;&quot;,&quot;frame_count&quot;:null,&quot;temporal&quot;:false,&quot;frame_sequence&quot;:[]},&quot;interpretive_residue&quot;:{}}</metadata><g data-frame-index="0" transform="translate(18 18)"><rect x="0" y="0" width="320" height="260" rx="6" fill="#fffaf0" stroke="#cabf9f"></rect><svg xmlns="http://www.w3.org/2000/svg" viewBox="86 47 348 268" preserveAspectRatio="xMidYMid meet" x="10" y="10" width="300" height="176"><rect x="86" y="47" width="348" height="268" fill="#f8f1df" stroke="#0d0c08" stroke-width="0"></rect><rect x="110" y="86" width="300" height="190" fill="#cabf9f" stroke="#0d0c08" stroke-width="1.25"></rect><rect x="110" y="86" width="300" height="190" fill="none" stroke="#0d0c08" stroke-width="1.75"></rect><text x="260" y="298" text-anchor="middle" dominant-baseline="central" font-family="Georgia, Times New Roman, serif" font-size="14" fill="#1b1810">rectangle host</text></svg><text x="14" y="210" font-family="Georgia, Times New Roman, serif" font-size="14" font-weight="700" fill="#1b1810">Step 1: host_shape(rectangle_area_model)</text><text x="14" y="232" font-family="system-ui, sans-serif" font-size="12" fill="#4d4638">Choose a rectangle as the area-model host.</text></g><g data-frame-index="1" transform="translate(356 18)"><rect x="0" y="0" width="320" height="260" rx="6" fill="#fffaf0" stroke="#cabf9f"></rect><svg xmlns="http://www.w3.org/2000/svg" viewBox="86 47 348 268" preserveAspectRatio="xMidYMid meet" x="10" y="10" width="300" height="176"><rect x="86" y="47" width="348" height="268" fill="#f8f1df" stroke="#0d0c08" stroke-width="0"></rect><circle cx="260" cy="181" r="94" fill="#cabf9f" stroke="#0d0c08" stroke-width="1.5"></circle><text x="260" y="297" text-anchor="middle" dominant-baseline="central" font-family="Georgia, Times New Roman, serif" font-size="14" fill="#1b1810">circle home</text><line x1="260" y1="181" x2="260" y2="87" stroke="#d4a747" stroke-width="1.4"></line><line x1="260" y1="181" x2="341.4063879557372" y2="134" stroke="#d4a747" stroke-width="1.4"></line><line x1="260" y1="181" x2="341.4063879557373" y2="228" stroke="#d4a747" stroke-width="1.4"></line><line x1="260" y1="181" x2="260" y2="275" stroke="#d4a747" stroke-width="1.4"></line><line x1="260" y1="181" x2="178.59361204426278" y2="228.00000000000003" stroke="#d4a747" stroke-width="1.4"></line><line x1="260" y1="181" x2="178.59361204426278" y2="134" stroke="#d4a747" stroke-width="1.4"></line><text x="260" y="67" text-anchor="middle" dominant-baseline="central" font-family="Georgia, Times New Roman, serif" font-size="13" fill="#1b1810">licensed radial partition</text></svg><text x="14" y="210" font-family="Georgia, Times New Roman, serif" font-size="14" font-weight="700" fill="#1b1810">Step 2: licensed_home(circle_radial_partition,circle_region)</text><text x="14" y="232" font-family="system-ui, sans-serif" font-size="12" fill="#4d4638">The radial partition is licensed inside the circle-region vocabulary.</text></g><g data-frame-index="2" transform="translate(694 18)"><rect x="0" y="0" width="320" height="260" rx="6" fill="#fffaf0" stroke="#cabf9f"></rect><svg xmlns="http://www.w3.org/2000/svg" viewBox="86 47 348 268" preserveAspectRatio="xMidYMid meet" x="10" y="10" width="300" height="176"><rect x="86" y="47" width="348" height="268" fill="#f8f1df" stroke="#0d0c08" stroke-width="0"></rect><rect x="110" y="86" width="300" height="190" fill="#cabf9f" stroke="#0d0c08" stroke-width="1.25"></rect><rect x="110" y="86" width="300" height="190" fill="none" stroke="#0d0c08" stroke-width="1.75"></rect><text x="260" y="298" text-anchor="middle" dominant-baseline="central" font-family="Georgia, Times New Roman, serif" font-size="14" fill="#1b1810">rectangle host</text><line x1="260" y1="181" x2="260" y2="86" stroke="#b95238" stroke-width="2.4" stroke-dasharray="9 5"></line><line x1="260" y1="181" x2="410" y2="94.39745962155612" stroke="#b95238" stroke-width="2.4" stroke-dasharray="9 5"></line><line x1="260" y1="181" x2="410" y2="267.60254037844385" stroke="#b95238" stroke-width="2.4" stroke-dasharray="9 5"></line><line x1="260" y1="181" x2="260" y2="276" stroke="#b95238" stroke-width="2.4" stroke-dasharray="9 5"></line><line x1="260" y1="181" x2="110" y2="267.6025403784439" stroke="#b95238" stroke-width="2.4" stroke-dasharray="9 5"></line><line x1="260" y1="181" x2="110" y2="94.39745962155611" stroke="#b95238" stroke-width="2.4" stroke-dasharray="9 5"></line><text x="260" y="51" text-anchor="middle" dominant-baseline="central" font-family="Georgia, Times New Roman, serif" font-size="13" fill="#1b1810">radial partition on rectangle</text></svg><text x="14" y="210" font-family="Georgia, Times New Roman, serif" font-size="14" font-weight="700" fill="#1b1810">Step 3: transplant(circle_radial_partition,rectangle_area_model)</text><text x="14" y="232" font-family="system-ui, sans-serif" font-size="12" fill="#4d4638">Transplant the circle partition rule onto the rectangle host.</text></g><g data-frame-index="3" transform="translate(1032 18)"><rect x="0" y="0" width="320" height="260" rx="6" fill="#fffaf0" stroke="#cabf9f"></rect><svg xmlns="http://www.w3.org/2000/svg" viewBox="86 47 348 268" preserveAspectRatio="xMidYMid meet" x="10" y="10" width="300" height="176"><rect x="86" y="47" width="348" height="268" fill="#f8f1df" stroke="#0d0c08" stroke-width="0"></rect><rect x="110" y="86" width="300" height="190" fill="#cabf9f" stroke="#0d0c08" stroke-width="1.25"></rect><rect x="110" y="86" width="300" height="190" fill="none" stroke="#0d0c08" stroke-width="1.75"></rect><text x="260" y="298" text-anchor="middle" dominant-baseline="central" font-family="Georgia, Times New Roman, serif" font-size="14" fill="#1b1810">rectangle host</text><line x1="260" y1="181" x2="260" y2="86" stroke="#b95238" stroke-width="2.4" stroke-dasharray="9 5"></line><line x1="260" y1="181" x2="410" y2="94.39745962155612" stroke="#b95238" stroke-width="2.4" stroke-dasharray="9 5"></line><line x1="260" y1="181" x2="410" y2="267.60254037844385" stroke="#b95238" stroke-width="2.4" stroke-dasharray="9 5"></line><line x1="260" y1="181" x2="260" y2="276" stroke="#b95238" stroke-width="2.4" stroke-dasharray="9 5"></line><line x1="260" y1="181" x2="110" y2="267.6025403784439" stroke="#b95238" stroke-width="2.4" stroke-dasharray="9 5"></line><line x1="260" y1="181" x2="110" y2="94.39745962155611" stroke="#b95238" stroke-width="2.4" stroke-dasharray="9 5"></line><text x="260" y="51" text-anchor="middle" dominant-baseline="central" font-family="Georgia, Times New Roman, serif" font-size="13" fill="#1b1810">radial partition on rectangle</text></svg><text x="14" y="210" font-family="Georgia, Times New Roman, serif" font-size="14" font-weight="700" fill="#1b1810">Step 4: hybrid_result(circle_partition_on_rectangle)</text><text x="14" y="232" font-family="system-ui, sans-serif" font-size="12" fill="#4d4638">The result is a hybridized model: a foreign primitive on an illicit host.</text></g></svg>
