<svg xmlns="http://www.w3.org/2000/svg" viewBox="0 0 1056 414" role="img" aria-label="Cross multiplication without ground temporal filmstrip for 1/2 x 1/3">
<rect x="0" y="0" width="1056" height="414" fill="#f8f1df"/>
<text x="170" y="30" text-anchor="middle" font-family="system-ui, sans-serif" font-size="18" font-weight="700" fill="#1b1810">Beginning</text>
<svg x="0" y="54" width="340" height="300" viewBox="16 16 468 468" preserveAspectRatio="xMidYMid meet"><rect x="16" y="16" width="468" height="468" fill="#f8f1df" stroke="#0d0c08" stroke-width="0"></rect><rect x="40" y="40" width="420" height="420" fill="#cabf9f" stroke="#0d0c08" stroke-width="1.5"></rect><rect x="40" y="40" width="420" height="420" fill="none" stroke="#0d0c08" stroke-width="1.5"></rect><line x1="250" y1="40" x2="250" y2="460" stroke="#0d0c08" stroke-width="0.8"></line><line x1="40" y1="180" x2="460" y2="180" stroke="#0d0c08" stroke-width="0.8"></line><line x1="40" y1="320" x2="460" y2="320" stroke="#0d0c08" stroke-width="0.8"></line></svg>
<text x="528" y="30" text-anchor="middle" font-family="system-ui, sans-serif" font-size="18" font-weight="700" fill="#1b1810">Middle</text>
<svg x="358" y="54" width="340" height="300" viewBox="16 16 588 468" preserveAspectRatio="xMidYMid meet"><rect x="16" y="16" width="588" height="468" fill="#f8f1df" stroke="#0d0c08" stroke-width="0"></rect><rect x="40" y="40" width="420" height="420" fill="#cabf9f" stroke="#0d0c08" stroke-width="1.5"></rect><rect x="40" y="40" width="420" height="420" fill="none" stroke="#0d0c08" stroke-width="1.5"></rect><rect x="516" y="40" width="64" height="48" fill="#b95238" stroke="#0d0c08" stroke-width="1.5"></rect><rect x="516" y="40" width="64" height="48" fill="none" stroke="#0d0c08" stroke-width="1.5"></rect><text x="548" y="64" text-anchor="middle" dominant-baseline="central" font-family="Georgia, Times New Roman, serif" font-size="22" fill="#1b1810">1</text><line x1="250" y1="40" x2="250" y2="460" stroke="#0d0c08" stroke-width="0.8"></line><line x1="40" y1="180" x2="460" y2="180" stroke="#0d0c08" stroke-width="0.8"></line><line x1="40" y1="320" x2="460" y2="320" stroke="#0d0c08" stroke-width="0.8"></line></svg>
<text x="886" y="30" text-anchor="middle" font-family="system-ui, sans-serif" font-size="18" font-weight="700" fill="#1b1810">End</text>
<svg x="716" y="54" width="340" height="300" viewBox="16 16 908 468" preserveAspectRatio="xMidYMid meet"><rect x="16" y="16" width="908" height="468" fill="#f8f1df" stroke="#0d0c08" stroke-width="0"></rect><rect x="40" y="40" width="420" height="420" fill="#cabf9f" stroke="#0d0c08" stroke-width="1.5"></rect><rect x="40" y="40" width="420" height="420" fill="none" stroke="#0d0c08" stroke-width="1.5"></rect><rect x="516" y="40" width="384" height="48" fill="#cabf9f" stroke="#0d0c08" stroke-width="1.5"></rect><line x1="580" y1="40" x2="580" y2="88" stroke="#0d0c08" stroke-width="0.5"></line><line x1="644" y1="40" x2="644" y2="88" stroke="#0d0c08" stroke-width="0.5"></line><line x1="708" y1="40" x2="708" y2="88" stroke="#0d0c08" stroke-width="0.5"></line><line x1="772" y1="40" x2="772" y2="88" stroke="#0d0c08" stroke-width="0.5"></line><line x1="836" y1="40" x2="836" y2="88" stroke="#0d0c08" stroke-width="0.5"></line><rect x="516" y="40" width="384" height="48" fill="none" stroke="#0d0c08" stroke-width="1.5"></rect><rect x="516" y="40" width="64" height="48" fill="#b95238" stroke="#0d0c08" stroke-width="1.5"></rect><rect x="516" y="40" width="64" height="48" fill="none" stroke="#0d0c08" stroke-width="1.5"></rect><text x="548" y="64" text-anchor="middle" dominant-baseline="central" font-family="Georgia, Times New Roman, serif" font-size="22" fill="#1b1810">1</text><line x1="250" y1="40" x2="250" y2="460" stroke="#0d0c08" stroke-width="0.8"></line><line x1="40" y1="180" x2="460" y2="180" stroke="#0d0c08" stroke-width="0.8"></line><line x1="40" y1="320" x2="460" y2="320" stroke="#0d0c08" stroke-width="0.8"></line></svg>
</svg>
