<svg xmlns="http://www.w3.org/2000/svg" viewBox="86 62 348 238" preserveAspectRatio="xMidYMid meet" role="img" aria-label="DEMO-hybridization-vertical-partition-on-circle frame 3 transplant(rectangle_vertical_partition,circle_region)"><rect x="86" y="62" width="348" height="238" fill="#f8f1df" stroke="#0d0c08" stroke-width="0"></rect><circle cx="260" cy="181" r="94" fill="#cabf9f" stroke="#0d0c08" stroke-width="1.5"></circle><text x="260" y="297" text-anchor="middle" dominant-baseline="central" font-family="Georgia, Times New Roman, serif" font-size="14" fill="#1b1810">circle host</text><polygon points="228.66666666666666,92.37595009128604 233.88888888888889,90.69933623420474 239.1111111111111,89.35037195390451 244.33333333333331,88.31475006477268 249.55555555555554,87.58204894000879 254.77777777777777,87.14517383180699 260,87 265.22222222222223,87.14517383180699 270.44444444444446,87.58204894000879 275.66666666666663,88.31475006477268 280.88888888888886,89.35037195390449 286.1111111111111,90.69933623420472 291.3333333333333,92.37595009128604 291.3333333333333,269.62404990871397 286.1111111111111,271.30066376579526 280.88888888888886,272.64962804609553 275.66666666666663,273.6852499352273 270.44444444444446,274.4179510599912 265.22222222222223,274.85482616819303 260,275 254.77777777777777,274.85482616819303 249.55555555555554,274.4179510599912 244.33333333333331,273.6852499352273 239.1111111111111,272.6496280460955 233.88888888888889,271.30066376579526 228.66666666666666,269.62404990871397" fill="#b95238" opacity="0.55" stroke="none"></polygon><line x1="228.66666666666666" y1="92.37595009128604" x2="228.66666666666666" y2="269.62404990871397" stroke="#b95238" stroke-width="2.4" stroke-dasharray="9 5"></line><line x1="291.3333333333333" y1="92.37595009128604" x2="291.3333333333333" y2="269.62404990871397" stroke="#b95238" stroke-width="2.4" stroke-dasharray="9 5"></line><text x="260" y="67" text-anchor="middle" dominant-baseline="central" font-family="Georgia, Times New Roman, serif" font-size="13" fill="#1b1810">vertical partition on circle</text><metadata data-hermes-kind="hybridization-frame-proof">{&quot;kind&quot;:&quot;hermes_hybridization_frame_proof&quot;,&quot;case_code&quot;:&quot;DEMO-hybridization-vertical-partition-on-circle&quot;,&quot;document_kind&quot;:&quot;vertical_partition_on_circle&quot;,&quot;frame_index&quot;:2,&quot;step&quot;:3,&quot;verb&quot;:&quot;transplant(rectangle_vertical_partition,circle_region)&quot;,&quot;caption&quot;:&quot;Transplant the rectangle's vertical partition rule onto the circular host.&quot;,&quot;source&quot;:&quot;hybridization_scene_frame&quot;}</metadata></svg>
