<svg xmlns="http://www.w3.org/2000/svg" viewBox="0 0 1124 328" role="img" aria-label="Canonical hybridization temporal filmstrip"><rect x="0" y="0" width="1124" height="328" fill="#f8f1df"/><text x="151" y="26" text-anchor="middle" font-family="system-ui, sans-serif" font-size="17" font-weight="700" fill="#1b1810">Host</text><g transform="translate(-41.758620689655174 53.51724137931034) scale(0.7413793103448276)"><rect x="86" y="52" width="348" height="248" fill="#f8f1df" stroke="#0d0c08" stroke-width="0"></rect><polygon points="265,76 370,264 160,264" fill="#cabf9f" stroke="#0d0c08" stroke-width="1.5"></polygon><text x="265" y="286" text-anchor="middle" dominant-baseline="central" font-family="Georgia, Times New Roman, serif" font-size="14" fill="#1b1810">triangle host</text></g><text x="425" y="26" text-anchor="middle" font-family="system-ui, sans-serif" font-size="17" font-weight="700" fill="#1b1810">Licensed home</text><g transform="translate(232.24137931034483 53.51724137931034) scale(0.7413793103448276)"><rect x="86" y="52" width="348" height="248" fill="#f8f1df" stroke="#0d0c08" stroke-width="0"></rect><rect x="110" y="86" width="300" height="190" fill="#cabf9f" stroke="#0d0c08" stroke-width="1.25"></rect><rect x="110" y="86" width="300" height="190" fill="none" stroke="#0d0c08" stroke-width="1.75"></rect><text x="260" y="298" text-anchor="middle" dominant-baseline="central" font-family="Georgia, Times New Roman, serif" font-size="14" fill="#1b1810">rectangle home</text><rect x="110" y="149.33333333333334" width="300" height="63.333333333333336" fill="#d4a747" opacity="0.42" stroke="none"></rect><rect x="110" y="212.66666666666669" width="300" height="63.333333333333336" fill="#d4a747" opacity="0.42" stroke="none"></rect><line x1="110" y1="149.33333333333334" x2="410" y2="149.33333333333334" stroke="#d4a747" stroke-width="1.4"></line><line x1="110" y1="212.66666666666669" x2="410" y2="212.66666666666669" stroke="#d4a747" stroke-width="1.4"></line><text x="260" y="66" text-anchor="middle" dominant-baseline="central" font-family="Georgia, Times New Roman, serif" font-size="13" fill="#1b1810">licensed parallel partition</text></g><text x="699" y="26" text-anchor="middle" font-family="system-ui, sans-serif" font-size="17" font-weight="700" fill="#1b1810">Transplant</text><g transform="translate(506.2413793103448 53.51724137931034) scale(0.7413793103448276)"><rect x="86" y="52" width="348" height="248" fill="#f8f1df" stroke="#0d0c08" stroke-width="0"></rect><polygon points="265,76 370,264 160,264" fill="#cabf9f" stroke="#0d0c08" stroke-width="1.5"></polygon><text x="265" y="286" text-anchor="middle" dominant-baseline="central" font-family="Georgia, Times New Roman, serif" font-size="14" fill="#1b1810">triangle host</text><polygon points="230,138.66666666666666 300,138.66666666666666 335,201.33333333333331 195,201.33333333333331" fill="#b95238" opacity="0.55" stroke="none"></polygon><polygon points="195,201.33333333333331 335,201.33333333333331 370,264 160,264" fill="#b95238" opacity="0.55" stroke="none"></polygon><line x1="230" y1="138.66666666666666" x2="300" y2="138.66666666666666" stroke="#b95238" stroke-width="2.4" stroke-dasharray="9 5"></line><line x1="195" y1="201.33333333333331" x2="335" y2="201.33333333333331" stroke="#b95238" stroke-width="2.4" stroke-dasharray="9 5"></line><text x="265" y="56" text-anchor="middle" dominant-baseline="central" font-family="Georgia, Times New Roman, serif" font-size="13" fill="#1b1810">parallel bands on triangle</text></g><text x="973" y="26" text-anchor="middle" font-family="system-ui, sans-serif" font-size="17" font-weight="700" fill="#1b1810">Hybrid result</text><g transform="translate(780.2413793103449 53.51724137931034) scale(0.7413793103448276)"><rect x="86" y="52" width="348" height="248" fill="#f8f1df" stroke="#0d0c08" stroke-width="0"></rect><polygon points="265,76 370,264 160,264" fill="#cabf9f" stroke="#0d0c08" stroke-width="1.5"></polygon><text x="265" y="286" text-anchor="middle" dominant-baseline="central" font-family="Georgia, Times New Roman, serif" font-size="14" fill="#1b1810">triangle host</text><polygon points="230,138.66666666666666 300,138.66666666666666 335,201.33333333333331 195,201.33333333333331" fill="#b95238" opacity="0.55" stroke="none"></polygon><polygon points="195,201.33333333333331 335,201.33333333333331 370,264 160,264" fill="#b95238" opacity="0.55" stroke="none"></polygon><line x1="230" y1="138.66666666666666" x2="300" y2="138.66666666666666" stroke="#b95238" stroke-width="2.4" stroke-dasharray="9 5"></line><line x1="195" y1="201.33333333333331" x2="335" y2="201.33333333333331" stroke="#b95238" stroke-width="2.4" stroke-dasharray="9 5"></line><text x="265" y="56" text-anchor="middle" dominant-baseline="central" font-family="Georgia, Times New Roman, serif" font-size="13" fill="#1b1810">parallel bands on triangle</text></g></svg>
