<svg xmlns="http://www.w3.org/2000/svg" viewBox="0 0 1124 328" role="img" aria-label="Canonical hybridization temporal filmstrip"><rect x="0" y="0" width="1124" height="328" fill="#f8f1df"/><text x="151" y="26" text-anchor="middle" font-family="system-ui, sans-serif" font-size="17" font-weight="700" fill="#1b1810">Host</text><g transform="translate(-72.72881355932202 15.271186440677965) scale(0.9322033898305084)"><rect x="102" y="63" width="276" height="236" fill="#f8f1df" stroke="#0d0c08" stroke-width="0"></rect><circle cx="160" cy="132" r="34" fill="#cabf9f" stroke="#0d0c08" stroke-width="1.5"></circle><circle cx="246" cy="132" r="34" fill="#cabf9f" stroke="#0d0c08" stroke-width="1.5"></circle><circle cx="160" cy="218" r="34" fill="#cabf9f" stroke="#0d0c08" stroke-width="1.5"></circle><text x="203" y="274" text-anchor="middle" dominant-baseline="central" font-family="Georgia, Times New Roman, serif" font-size="14" fill="#1b1810">set host</text></g><text x="425" y="26" text-anchor="middle" font-family="system-ui, sans-serif" font-size="17" font-weight="700" fill="#1b1810">Licensed home</text><g transform="translate(201.27118644067798 15.271186440677965) scale(0.9322033898305084)"><rect x="102" y="63" width="276" height="236" fill="#f8f1df" stroke="#0d0c08" stroke-width="0"></rect><circle cx="260" cy="181" r="94" fill="#cabf9f" stroke="#0d0c08" stroke-width="1.5"></circle><text x="260" y="297" text-anchor="middle" dominant-baseline="central" font-family="Georgia, Times New Roman, serif" font-size="14" fill="#1b1810">circle home</text><line x1="260" y1="181" x2="260" y2="87" stroke="#d4a747" stroke-width="1.4"></line><line x1="260" y1="181" x2="341.4063879557372" y2="134" stroke="#d4a747" stroke-width="1.4"></line><line x1="260" y1="181" x2="341.4063879557373" y2="228" stroke="#d4a747" stroke-width="1.4"></line><line x1="260" y1="181" x2="260" y2="275" stroke="#d4a747" stroke-width="1.4"></line><line x1="260" y1="181" x2="178.59361204426278" y2="228.00000000000003" stroke="#d4a747" stroke-width="1.4"></line><line x1="260" y1="181" x2="178.59361204426278" y2="134" stroke="#d4a747" stroke-width="1.4"></line><text x="260" y="67" text-anchor="middle" dominant-baseline="central" font-family="Georgia, Times New Roman, serif" font-size="13" fill="#1b1810">licensed radial partition</text></g><text x="699" y="26" text-anchor="middle" font-family="system-ui, sans-serif" font-size="17" font-weight="700" fill="#1b1810">Transplant</text><g transform="translate(475.2711864406779 15.271186440677965) scale(0.9322033898305084)"><rect x="102" y="63" width="276" height="236" fill="#f8f1df" stroke="#0d0c08" stroke-width="0"></rect><circle cx="160" cy="132" r="34" fill="#cabf9f" stroke="#0d0c08" stroke-width="1.5"></circle><circle cx="246" cy="132" r="34" fill="#cabf9f" stroke="#0d0c08" stroke-width="1.5"></circle><circle cx="160" cy="218" r="34" fill="#cabf9f" stroke="#0d0c08" stroke-width="1.5"></circle><text x="203" y="274" text-anchor="middle" dominant-baseline="central" font-family="Georgia, Times New Roman, serif" font-size="14" fill="#1b1810">set host</text><path d="M 160 132 L 160 98 A 34 34 0 0 1 189.44486372867092 149 Z" fill="#b95238" opacity="0.7" stroke="none"></path><line x1="160" y1="132" x2="160" y2="98" stroke="#b95238" stroke-width="2.2" stroke-dasharray="7 4"></line><line x1="160" y1="132" x2="189.44486372867092" y2="149" stroke="#b95238" stroke-width="2.2" stroke-dasharray="7 4"></line><line x1="160" y1="132" x2="130.5551362713291" y2="149" stroke="#b95238" stroke-width="2.2" stroke-dasharray="7 4"></line><path d="M 246 132 L 246 98 A 34 34 0 0 1 275.4448637286709 149 Z" fill="#b95238" opacity="0.7" stroke="none"></path><line x1="246" y1="132" x2="246" y2="98" stroke="#b95238" stroke-width="2.2" stroke-dasharray="7 4"></line><line x1="246" y1="132" x2="275.4448637286709" y2="149" stroke="#b95238" stroke-width="2.2" stroke-dasharray="7 4"></line><line x1="246" y1="132" x2="216.5551362713291" y2="149" stroke="#b95238" stroke-width="2.2" stroke-dasharray="7 4"></line><line x1="160" y1="218" x2="160" y2="184" stroke="#b95238" stroke-width="2.2" stroke-dasharray="7 4"></line><line x1="160" y1="218" x2="189.44486372867092" y2="235" stroke="#b95238" stroke-width="2.2" stroke-dasharray="7 4"></line><line x1="160" y1="218" x2="130.5551362713291" y2="235" stroke="#b95238" stroke-width="2.2" stroke-dasharray="7 4"></line><text x="203" y="80" text-anchor="middle" dominant-baseline="central" font-family="Georgia, Times New Roman, serif" font-size="13" fill="#1b1810">radial partition on set</text></g><text x="973" y="26" text-anchor="middle" font-family="system-ui, sans-serif" font-size="17" font-weight="700" fill="#1b1810">Hybrid result</text><g transform="translate(749.2711864406779 15.271186440677965) scale(0.9322033898305084)"><rect x="102" y="63" width="276" height="236" fill="#f8f1df" stroke="#0d0c08" stroke-width="0"></rect><circle cx="160" cy="132" r="34" fill="#cabf9f" stroke="#0d0c08" stroke-width="1.5"></circle><circle cx="246" cy="132" r="34" fill="#cabf9f" stroke="#0d0c08" stroke-width="1.5"></circle><circle cx="160" cy="218" r="34" fill="#cabf9f" stroke="#0d0c08" stroke-width="1.5"></circle><text x="203" y="274" text-anchor="middle" dominant-baseline="central" font-family="Georgia, Times New Roman, serif" font-size="14" fill="#1b1810">set host</text><path d="M 160 132 L 160 98 A 34 34 0 0 1 189.44486372867092 149 Z" fill="#b95238" opacity="0.7" stroke="none"></path><line x1="160" y1="132" x2="160" y2="98" stroke="#b95238" stroke-width="2.2" stroke-dasharray="7 4"></line><line x1="160" y1="132" x2="189.44486372867092" y2="149" stroke="#b95238" stroke-width="2.2" stroke-dasharray="7 4"></line><line x1="160" y1="132" x2="130.5551362713291" y2="149" stroke="#b95238" stroke-width="2.2" stroke-dasharray="7 4"></line><path d="M 246 132 L 246 98 A 34 34 0 0 1 275.4448637286709 149 Z" fill="#b95238" opacity="0.7" stroke="none"></path><line x1="246" y1="132" x2="246" y2="98" stroke="#b95238" stroke-width="2.2" stroke-dasharray="7 4"></line><line x1="246" y1="132" x2="275.4448637286709" y2="149" stroke="#b95238" stroke-width="2.2" stroke-dasharray="7 4"></line><line x1="246" y1="132" x2="216.5551362713291" y2="149" stroke="#b95238" stroke-width="2.2" stroke-dasharray="7 4"></line><line x1="160" y1="218" x2="160" y2="184" stroke="#b95238" stroke-width="2.2" stroke-dasharray="7 4"></line><line x1="160" y1="218" x2="189.44486372867092" y2="235" stroke="#b95238" stroke-width="2.2" stroke-dasharray="7 4"></line><line x1="160" y1="218" x2="130.5551362713291" y2="235" stroke="#b95238" stroke-width="2.2" stroke-dasharray="7 4"></line><text x="203" y="80" text-anchor="middle" dominant-baseline="central" font-family="Georgia, Times New Roman, serif" font-size="13" fill="#1b1810">radial partition on set</text></g></svg>
