<svg xmlns="http://www.w3.org/2000/svg" viewBox="0 0 1370 312" preserveAspectRatio="xMidYMid meet" role="img" aria-label="DEMO-hybridization-parallel-partition-on-triangle incorrect filmstrip parallel partition on triangle"><rect x="0" y="0" width="1370" height="312" fill="#f8f1df"></rect><metadata data-hermes-kind="monitoring-visual-proof">{&quot;kind&quot;:&quot;hermes_monitoring_visual_filmstrip_proof&quot;,&quot;lesson_code&quot;:&quot;DEMO-hybridization-parallel-partition-on-triangle&quot;,&quot;visual_index&quot;:0,&quot;side&quot;:&quot;incorrect&quot;,&quot;expression&quot;:&quot;parallel partition on triangle&quot;,&quot;proof&quot;:{&quot;source&quot;:&quot;&quot;,&quot;status&quot;:&quot;&quot;,&quot;frame_count&quot;:null,&quot;temporal&quot;:false,&quot;frame_sequence&quot;:[]},&quot;interpretive_residue&quot;:{}}</metadata><g data-frame-index="0" data-caption-lines="1" transform="translate(18 18)"><rect x="0" y="0" width="320" height="276" rx="6" fill="#fffaf0" stroke="#cabf9f"></rect><svg xmlns="http://www.w3.org/2000/svg" viewBox="86 52 348 248" preserveAspectRatio="xMidYMid meet" x="10" y="10" width="300" height="176"><rect x="86" y="52" width="348" height="248" fill="#f8f1df" stroke="#0d0c08" stroke-width="0"></rect><polygon points="265,76 370,264 160,264" fill="#cabf9f" stroke="#0d0c08" stroke-width="1.5"></polygon><text x="265" y="286" text-anchor="middle" dominant-baseline="central" font-family="Georgia, Times New Roman, serif" font-size="14" fill="#1b1810">triangle host</text></svg><text x="14" y="210" font-family="Georgia, Times New Roman, serif" font-size="14" font-weight="700" fill="#1b1810">Step 1: host_shape(triangle_region)</text><text x="14" y="232" font-family="system-ui, sans-serif" font-size="12" fill="#4d4638"><tspan x="14" dy="0">Choose a triangle as the region host.</tspan></text></g><g data-frame-index="1" data-caption-lines="2" transform="translate(356 18)"><rect x="0" y="0" width="320" height="276" rx="6" fill="#fffaf0" stroke="#cabf9f"></rect><svg xmlns="http://www.w3.org/2000/svg" viewBox="86 52 348 248" preserveAspectRatio="xMidYMid meet" x="10" y="10" width="300" height="176"><rect x="86" y="52" width="348" height="248" fill="#f8f1df" stroke="#0d0c08" stroke-width="0"></rect><rect x="110" y="86" width="300" height="190" fill="#cabf9f" stroke="#0d0c08" stroke-width="1.25"></rect><rect x="110" y="86" width="300" height="190" fill="none" stroke="#0d0c08" stroke-width="1.75"></rect><text x="260" y="298" text-anchor="middle" dominant-baseline="central" font-family="Georgia, Times New Roman, serif" font-size="14" fill="#1b1810">rectangle home</text><rect x="110" y="149.33333333333334" width="300" height="63.333333333333336" fill="#d4a747" opacity="0.42" stroke="none"></rect><rect x="110" y="212.66666666666669" width="300" height="63.333333333333336" fill="#d4a747" opacity="0.42" stroke="none"></rect><line x1="110" y1="149.33333333333334" x2="410" y2="149.33333333333334" stroke="#d4a747" stroke-width="1.4"></line><line x1="110" y1="212.66666666666669" x2="410" y2="212.66666666666669" stroke="#d4a747" stroke-width="1.4"></line><text x="260" y="66" text-anchor="middle" dominant-baseline="central" font-family="Georgia, Times New Roman, serif" font-size="13" fill="#1b1810">licensed parallel partition</text></svg><text x="14" y="210" font-family="Georgia, Times New Roman, serif" font-size="14" font-weight="700" fill="#1b1810">Step 2: licensed_home(rectangle_parallel_partition,rectangle_area_model)</text><text x="14" y="232" font-family="system-ui, sans-serif" font-size="12" fill="#4d4638"><tspan x="14" dy="0">The parallel band partition is licensed inside</tspan><tspan x="14" dy="15">the rectangle area-model vocabulary.</tspan></text></g><g data-frame-index="2" data-caption-lines="2" transform="translate(694 18)"><rect x="0" y="0" width="320" height="276" rx="6" fill="#fffaf0" stroke="#cabf9f"></rect><svg xmlns="http://www.w3.org/2000/svg" viewBox="86 52 348 248" preserveAspectRatio="xMidYMid meet" x="10" y="10" width="300" height="176"><rect x="86" y="52" width="348" height="248" fill="#f8f1df" stroke="#0d0c08" stroke-width="0"></rect><polygon points="265,76 370,264 160,264" fill="#cabf9f" stroke="#0d0c08" stroke-width="1.5"></polygon><text x="265" y="286" text-anchor="middle" dominant-baseline="central" font-family="Georgia, Times New Roman, serif" font-size="14" fill="#1b1810">triangle host</text><polygon points="230,138.66666666666666 300,138.66666666666666 335,201.33333333333331 195,201.33333333333331" fill="#b95238" opacity="0.55" stroke="none"></polygon><polygon points="195,201.33333333333331 335,201.33333333333331 370,264 160,264" fill="#b95238" opacity="0.55" stroke="none"></polygon><line x1="230" y1="138.66666666666666" x2="300" y2="138.66666666666666" stroke="#b95238" stroke-width="2.4" stroke-dasharray="9 5"></line><line x1="195" y1="201.33333333333331" x2="335" y2="201.33333333333331" stroke="#b95238" stroke-width="2.4" stroke-dasharray="9 5"></line><text x="265" y="56" text-anchor="middle" dominant-baseline="central" font-family="Georgia, Times New Roman, serif" font-size="13" fill="#1b1810">parallel bands on triangle</text></svg><text x="14" y="210" font-family="Georgia, Times New Roman, serif" font-size="14" font-weight="700" fill="#1b1810">Step 3: transplant(rectangle_parallel_partition,triangle_region)</text><text x="14" y="232" font-family="system-ui, sans-serif" font-size="12" fill="#4d4638"><tspan x="14" dy="0">Transplant the rectangle's parallel partition</tspan><tspan x="14" dy="15">rule onto the triangular host.</tspan></text></g><g data-frame-index="3" data-caption-lines="2" transform="translate(1032 18)"><rect x="0" y="0" width="320" height="276" rx="6" fill="#fffaf0" stroke="#cabf9f"></rect><svg xmlns="http://www.w3.org/2000/svg" viewBox="86 52 348 248" preserveAspectRatio="xMidYMid meet" x="10" y="10" width="300" height="176"><rect x="86" y="52" width="348" height="248" fill="#f8f1df" stroke="#0d0c08" stroke-width="0"></rect><polygon points="265,76 370,264 160,264" fill="#cabf9f" stroke="#0d0c08" stroke-width="1.5"></polygon><text x="265" y="286" text-anchor="middle" dominant-baseline="central" font-family="Georgia, Times New Roman, serif" font-size="14" fill="#1b1810">triangle host</text><polygon points="230,138.66666666666666 300,138.66666666666666 335,201.33333333333331 195,201.33333333333331" fill="#b95238" opacity="0.55" stroke="none"></polygon><polygon points="195,201.33333333333331 335,201.33333333333331 370,264 160,264" fill="#b95238" opacity="0.55" stroke="none"></polygon><line x1="230" y1="138.66666666666666" x2="300" y2="138.66666666666666" stroke="#b95238" stroke-width="2.4" stroke-dasharray="9 5"></line><line x1="195" y1="201.33333333333331" x2="335" y2="201.33333333333331" stroke="#b95238" stroke-width="2.4" stroke-dasharray="9 5"></line><text x="265" y="56" text-anchor="middle" dominant-baseline="central" font-family="Georgia, Times New Roman, serif" font-size="13" fill="#1b1810">parallel bands on triangle</text></svg><text x="14" y="210" font-family="Georgia, Times New Roman, serif" font-size="14" font-weight="700" fill="#1b1810">Step 4: hybrid_result(parallel_partition_on_triangle)</text><text x="14" y="232" font-family="system-ui, sans-serif" font-size="12" fill="#4d4638"><tspan x="14" dy="0">The result is a hybridized model: a foreign</tspan><tspan x="14" dy="15">primitive on an illicit host.</tspan></text></g></svg>
