<svg xmlns="http://www.w3.org/2000/svg" viewBox="0 0 1370 296" preserveAspectRatio="xMidYMid meet" role="img" aria-label="DEMO-hybridization-vertical-partition-on-circle incorrect filmstrip vertical partition on circle"><rect x="0" y="0" width="1370" height="296" fill="#f8f1df"></rect><metadata data-hermes-kind="monitoring-visual-proof">{&quot;kind&quot;:&quot;hermes_monitoring_visual_filmstrip_proof&quot;,&quot;lesson_code&quot;:&quot;DEMO-hybridization-vertical-partition-on-circle&quot;,&quot;visual_index&quot;:0,&quot;side&quot;:&quot;incorrect&quot;,&quot;expression&quot;:&quot;vertical partition on circle&quot;,&quot;proof&quot;:{&quot;source&quot;:&quot;&quot;,&quot;status&quot;:&quot;&quot;,&quot;frame_count&quot;:null,&quot;temporal&quot;:false,&quot;frame_sequence&quot;:[]},&quot;interpretive_residue&quot;:{}}</metadata><g data-frame-index="0" transform="translate(18 18)"><rect x="0" y="0" width="320" height="260" rx="6" fill="#fffaf0" stroke="#cabf9f"></rect><svg xmlns="http://www.w3.org/2000/svg" viewBox="86 62 348 238" preserveAspectRatio="xMidYMid meet" x="10" y="10" width="300" height="176"><rect x="86" y="62" width="348" height="238" fill="#f8f1df" stroke="#0d0c08" stroke-width="0"></rect><circle cx="260" cy="181" r="94" fill="#cabf9f" stroke="#0d0c08" stroke-width="1.5"></circle><text x="260" y="297" text-anchor="middle" dominant-baseline="central" font-family="Georgia, Times New Roman, serif" font-size="14" fill="#1b1810">circle host</text></svg><text x="14" y="210" font-family="Georgia, Times New Roman, serif" font-size="14" font-weight="700" fill="#1b1810">Step 1: host_shape(circle_region)</text><text x="14" y="232" font-family="system-ui, sans-serif" font-size="12" fill="#4d4638">Choose a circle as the region host.</text></g><g data-frame-index="1" transform="translate(356 18)"><rect x="0" y="0" width="320" height="260" rx="6" fill="#fffaf0" stroke="#cabf9f"></rect><svg xmlns="http://www.w3.org/2000/svg" viewBox="86 62 348 238" preserveAspectRatio="xMidYMid meet" x="10" y="10" width="300" height="176"><rect x="86" y="62" width="348" height="238" fill="#f8f1df" stroke="#0d0c08" stroke-width="0"></rect><rect x="110" y="86" width="300" height="190" fill="#cabf9f" stroke="#0d0c08" stroke-width="1.25"></rect><rect x="110" y="86" width="300" height="190" fill="none" stroke="#0d0c08" stroke-width="1.75"></rect><text x="260" y="298" text-anchor="middle" dominant-baseline="central" font-family="Georgia, Times New Roman, serif" font-size="14" fill="#1b1810">rectangle home</text><rect x="210" y="86" width="100" height="190" fill="#d4a747" opacity="0.42" stroke="none"></rect><line x1="210" y1="86" x2="210" y2="276" stroke="#d4a747" stroke-width="1.4"></line><line x1="310" y1="86" x2="310" y2="276" stroke="#d4a747" stroke-width="1.4"></line><text x="260" y="66" text-anchor="middle" dominant-baseline="central" font-family="Georgia, Times New Roman, serif" font-size="13" fill="#1b1810">licensed vertical partition</text></svg><text x="14" y="210" font-family="Georgia, Times New Roman, serif" font-size="14" font-weight="700" fill="#1b1810">Step 2: licensed_home(rectangle_vertical_partition,rectangle_area_model)</text><text x="14" y="232" font-family="system-ui, sans-serif" font-size="12" fill="#4d4638">The vertical partition is licensed inside the rectangle area-model vocabulary.</text></g><g data-frame-index="2" transform="translate(694 18)"><rect x="0" y="0" width="320" height="260" rx="6" fill="#fffaf0" stroke="#cabf9f"></rect><svg xmlns="http://www.w3.org/2000/svg" viewBox="86 62 348 238" preserveAspectRatio="xMidYMid meet" x="10" y="10" width="300" height="176"><rect x="86" y="62" width="348" height="238" fill="#f8f1df" stroke="#0d0c08" stroke-width="0"></rect><circle cx="260" cy="181" r="94" fill="#cabf9f" stroke="#0d0c08" stroke-width="1.5"></circle><text x="260" y="297" text-anchor="middle" dominant-baseline="central" font-family="Georgia, Times New Roman, serif" font-size="14" fill="#1b1810">circle host</text><polygon points="228.66666666666666,92.37595009128604 233.88888888888889,90.69933623420474 239.1111111111111,89.35037195390451 244.33333333333331,88.31475006477268 249.55555555555554,87.58204894000879 254.77777777777777,87.14517383180699 260,87 265.22222222222223,87.14517383180699 270.44444444444446,87.58204894000879 275.66666666666663,88.31475006477268 280.88888888888886,89.35037195390449 286.1111111111111,90.69933623420472 291.3333333333333,92.37595009128604 291.3333333333333,269.62404990871397 286.1111111111111,271.30066376579526 280.88888888888886,272.64962804609553 275.66666666666663,273.6852499352273 270.44444444444446,274.4179510599912 265.22222222222223,274.85482616819303 260,275 254.77777777777777,274.85482616819303 249.55555555555554,274.4179510599912 244.33333333333331,273.6852499352273 239.1111111111111,272.6496280460955 233.88888888888889,271.30066376579526 228.66666666666666,269.62404990871397" fill="#b95238" opacity="0.55" stroke="none"></polygon><line x1="228.66666666666666" y1="92.37595009128604" x2="228.66666666666666" y2="269.62404990871397" stroke="#b95238" stroke-width="2.4" stroke-dasharray="9 5"></line><line x1="291.3333333333333" y1="92.37595009128604" x2="291.3333333333333" y2="269.62404990871397" stroke="#b95238" stroke-width="2.4" stroke-dasharray="9 5"></line><text x="260" y="67" text-anchor="middle" dominant-baseline="central" font-family="Georgia, Times New Roman, serif" font-size="13" fill="#1b1810">vertical partition on circle</text></svg><text x="14" y="210" font-family="Georgia, Times New Roman, serif" font-size="14" font-weight="700" fill="#1b1810">Step 3: transplant(rectangle_vertical_partition,circle_region)</text><text x="14" y="232" font-family="system-ui, sans-serif" font-size="12" fill="#4d4638">Transplant the rectangle's vertical partition rule onto the circular host.</text></g><g data-frame-index="3" transform="translate(1032 18)"><rect x="0" y="0" width="320" height="260" rx="6" fill="#fffaf0" stroke="#cabf9f"></rect><svg xmlns="http://www.w3.org/2000/svg" viewBox="86 62 348 238" preserveAspectRatio="xMidYMid meet" x="10" y="10" width="300" height="176"><rect x="86" y="62" width="348" height="238" fill="#f8f1df" stroke="#0d0c08" stroke-width="0"></rect><circle cx="260" cy="181" r="94" fill="#cabf9f" stroke="#0d0c08" stroke-width="1.5"></circle><text x="260" y="297" text-anchor="middle" dominant-baseline="central" font-family="Georgia, Times New Roman, serif" font-size="14" fill="#1b1810">circle host</text><polygon points="228.66666666666666,92.37595009128604 233.88888888888889,90.69933623420474 239.1111111111111,89.35037195390451 244.33333333333331,88.31475006477268 249.55555555555554,87.58204894000879 254.77777777777777,87.14517383180699 260,87 265.22222222222223,87.14517383180699 270.44444444444446,87.58204894000879 275.66666666666663,88.31475006477268 280.88888888888886,89.35037195390449 286.1111111111111,90.69933623420472 291.3333333333333,92.37595009128604 291.3333333333333,269.62404990871397 286.1111111111111,271.30066376579526 280.88888888888886,272.64962804609553 275.66666666666663,273.6852499352273 270.44444444444446,274.4179510599912 265.22222222222223,274.85482616819303 260,275 254.77777777777777,274.85482616819303 249.55555555555554,274.4179510599912 244.33333333333331,273.6852499352273 239.1111111111111,272.6496280460955 233.88888888888889,271.30066376579526 228.66666666666666,269.62404990871397" fill="#b95238" opacity="0.55" stroke="none"></polygon><line x1="228.66666666666666" y1="92.37595009128604" x2="228.66666666666666" y2="269.62404990871397" stroke="#b95238" stroke-width="2.4" stroke-dasharray="9 5"></line><line x1="291.3333333333333" y1="92.37595009128604" x2="291.3333333333333" y2="269.62404990871397" stroke="#b95238" stroke-width="2.4" stroke-dasharray="9 5"></line><text x="260" y="67" text-anchor="middle" dominant-baseline="central" font-family="Georgia, Times New Roman, serif" font-size="13" fill="#1b1810">vertical partition on circle</text></svg><text x="14" y="210" font-family="Georgia, Times New Roman, serif" font-size="14" font-weight="700" fill="#1b1810">Step 4: hybrid_result(vertical_partition_on_circle)</text><text x="14" y="232" font-family="system-ui, sans-serif" font-size="12" fill="#4d4638">The result is a hybridized model: a foreign primitive on an illicit host.</text></g></svg>
