<svg xmlns="http://www.w3.org/2000/svg" viewBox="0 0 1032 296" preserveAspectRatio="xMidYMid meet" role="img" aria-label="DEMO-area-fraction-product-cross-multiply correct filmstrip 1/2 x 1/3"><rect x="0" y="0" width="1032" height="296" fill="#f8f1df"></rect><metadata data-hermes-kind="monitoring-visual-proof">{&quot;kind&quot;:&quot;hermes_monitoring_visual_filmstrip_proof&quot;,&quot;lesson_code&quot;:&quot;DEMO-area-fraction-product-cross-multiply&quot;,&quot;visual_index&quot;:0,&quot;side&quot;:&quot;correct&quot;,&quot;expression&quot;:&quot;1/2 x 1/3&quot;,&quot;proof&quot;:{&quot;source&quot;:&quot;&quot;,&quot;status&quot;:&quot;&quot;,&quot;frame_count&quot;:null,&quot;temporal&quot;:false,&quot;frame_sequence&quot;:[]},&quot;interpretive_residue&quot;:{}}</metadata><g data-frame-index="0" transform="translate(18 18)"><rect x="0" y="0" width="320" height="260" rx="6" fill="#fffaf0" stroke="#cabf9f"></rect><svg xmlns="http://www.w3.org/2000/svg" viewBox="16 16 468 468" preserveAspectRatio="xMidYMid meet" x="10" y="10" width="300" height="176"><rect x="16" y="16" width="468" height="468" fill="#f8f1df" stroke="#0d0c08" stroke-width="0"></rect><rect x="40" y="40" width="420" height="420" fill="#cabf9f" stroke="#0d0c08" stroke-width="1.5"></rect><rect x="40" y="40" width="420" height="420" fill="none" stroke="#0d0c08" stroke-width="1.5"></rect><rect x="40" y="40" width="210" height="420" fill="#d4a747" stroke="#0d0c08" stroke-width="1.5"></rect><rect x="40" y="40" width="210" height="420" fill="none" stroke="#0d0c08" stroke-width="1.5"></rect><line x1="250" y1="40" x2="250" y2="460" stroke="#0d0c08" stroke-width="0.8"></line></svg><text x="14" y="210" font-family="Georgia, Times New Roman, serif" font-size="14" font-weight="700" fill="#1b1810">Step 1: area_model_fraction(1,2,1,3)</text><text x="14" y="232" font-family="system-ui, sans-serif" font-size="12" fill="#4d4638">Split the unit square into 2 columns; select 1 (1/2 one way).</text></g><g data-frame-index="1" transform="translate(356 18)"><rect x="0" y="0" width="320" height="260" rx="6" fill="#fffaf0" stroke="#cabf9f"></rect><svg xmlns="http://www.w3.org/2000/svg" viewBox="16 16 468 468" preserveAspectRatio="xMidYMid meet" x="10" y="10" width="300" height="176"><rect x="16" y="16" width="468" height="468" fill="#f8f1df" stroke="#0d0c08" stroke-width="0"></rect><rect x="40" y="40" width="420" height="420" fill="#cabf9f" stroke="#0d0c08" stroke-width="1.5"></rect><rect x="40" y="40" width="420" height="420" fill="none" stroke="#0d0c08" stroke-width="1.5"></rect><rect x="40" y="40" width="210" height="420" fill="#d4a747" stroke="#0d0c08" stroke-width="1.5"></rect><rect x="40" y="40" width="210" height="420" fill="none" stroke="#0d0c08" stroke-width="1.5"></rect><rect x="40" y="40" width="420" height="140" fill="#d4a747" stroke="#0d0c08" stroke-width="1.5"></rect><rect x="40" y="40" width="420" height="140" fill="none" stroke="#0d0c08" stroke-width="1.5"></rect><line x1="250" y1="40" x2="250" y2="460" stroke="#0d0c08" stroke-width="0.8"></line><line x1="40" y1="180" x2="460" y2="180" stroke="#0d0c08" stroke-width="0.8"></line><line x1="40" y1="320" x2="460" y2="320" stroke="#0d0c08" stroke-width="0.8"></line></svg><text x="14" y="210" font-family="Georgia, Times New Roman, serif" font-size="14" font-weight="700" fill="#1b1810">Step 2: area_model_fraction(1,2,1,3)</text><text x="14" y="232" font-family="system-ui, sans-serif" font-size="12" fill="#4d4638">Split the other way into 3 rows; select 1 (1/3 the other way).</text></g><g data-frame-index="2" transform="translate(694 18)"><rect x="0" y="0" width="320" height="260" rx="6" fill="#fffaf0" stroke="#cabf9f"></rect><svg xmlns="http://www.w3.org/2000/svg" viewBox="16 16 468 468" preserveAspectRatio="xMidYMid meet" x="10" y="10" width="300" height="176"><rect x="16" y="16" width="468" height="468" fill="#f8f1df" stroke="#0d0c08" stroke-width="0"></rect><rect x="40" y="40" width="420" height="420" fill="#cabf9f" stroke="#0d0c08" stroke-width="1.5"></rect><rect x="40" y="40" width="420" height="420" fill="none" stroke="#0d0c08" stroke-width="1.5"></rect><rect x="40" y="40" width="210" height="140" fill="#cabf9f" stroke="#0d0c08" stroke-width="1.5"></rect><rect x="40" y="40" width="210" height="140" fill="none" stroke="#0d0c08" stroke-width="1.5"></rect><text x="145" y="110" text-anchor="middle" dominant-baseline="central" font-family="Georgia, Times New Roman, serif" font-size="22" fill="#1b1810">1</text><line x1="250" y1="40" x2="250" y2="460" stroke="#0d0c08" stroke-width="0.8"></line><line x1="40" y1="180" x2="460" y2="180" stroke="#0d0c08" stroke-width="0.8"></line><line x1="40" y1="320" x2="460" y2="320" stroke="#0d0c08" stroke-width="0.8"></line></svg><text x="14" y="210" font-family="Georgia, Times New Roman, serif" font-size="14" font-weight="700" fill="#1b1810">Step 3: area_model_fraction(1,2,1,3)</text><text x="14" y="232" font-family="system-ui, sans-serif" font-size="12" fill="#4d4638">The overlap is 1 of 6 small rectangles: 1/2 x 1/3 = fraction(1,6).</text></g></svg>
