<svg xmlns="http://www.w3.org/2000/svg" viewBox="102 63 276 236" preserveAspectRatio="xMidYMid meet" role="img" aria-label="DEMO-hybridization-radial-partition-on-set frame 3 transplant(circle_radial_partition,fractional_set_model)"><rect x="102" y="63" width="276" height="236" fill="#f8f1df" stroke="#0d0c08" stroke-width="0"></rect><circle cx="160" cy="132" r="34" fill="#cabf9f" stroke="#0d0c08" stroke-width="1.5"></circle><circle cx="246" cy="132" r="34" fill="#cabf9f" stroke="#0d0c08" stroke-width="1.5"></circle><circle cx="160" cy="218" r="34" fill="#cabf9f" stroke="#0d0c08" stroke-width="1.5"></circle><text x="203" y="274" text-anchor="middle" dominant-baseline="central" font-family="Georgia, Times New Roman, serif" font-size="14" fill="#1b1810">set host</text><path d="M 160 132 L 160 98 A 34 34 0 0 1 189.44486372867092 149 Z" fill="#b95238" opacity="0.7" stroke="none"></path><line x1="160" y1="132" x2="160" y2="98" stroke="#b95238" stroke-width="2.2" stroke-dasharray="7 4"></line><line x1="160" y1="132" x2="189.44486372867092" y2="149" stroke="#b95238" stroke-width="2.2" stroke-dasharray="7 4"></line><line x1="160" y1="132" x2="130.5551362713291" y2="149" stroke="#b95238" stroke-width="2.2" stroke-dasharray="7 4"></line><path d="M 246 132 L 246 98 A 34 34 0 0 1 275.4448637286709 149 Z" fill="#b95238" opacity="0.7" stroke="none"></path><line x1="246" y1="132" x2="246" y2="98" stroke="#b95238" stroke-width="2.2" stroke-dasharray="7 4"></line><line x1="246" y1="132" x2="275.4448637286709" y2="149" stroke="#b95238" stroke-width="2.2" stroke-dasharray="7 4"></line><line x1="246" y1="132" x2="216.5551362713291" y2="149" stroke="#b95238" stroke-width="2.2" stroke-dasharray="7 4"></line><line x1="160" y1="218" x2="160" y2="184" stroke="#b95238" stroke-width="2.2" stroke-dasharray="7 4"></line><line x1="160" y1="218" x2="189.44486372867092" y2="235" stroke="#b95238" stroke-width="2.2" stroke-dasharray="7 4"></line><line x1="160" y1="218" x2="130.5551362713291" y2="235" stroke="#b95238" stroke-width="2.2" stroke-dasharray="7 4"></line><text x="203" y="80" text-anchor="middle" dominant-baseline="central" font-family="Georgia, Times New Roman, serif" font-size="13" fill="#1b1810">radial partition on set</text><metadata data-hermes-kind="hybridization-frame-proof">{"kind":"hermes_hybridization_frame_proof","case_code":"DEMO-hybridization-radial-partition-on-set","document_kind":"radial_partition_on_set","frame_index":2,"step":3,"verb":"transplant(circle_radial_partition,fractional_set_model)","caption":"Transplant the circle's radial partition rule onto each element of the set host.","source":"hybridization_scene_frame"}</metadata></svg>
