<svg xmlns="http://www.w3.org/2000/svg" viewBox="0 0 1124 328" role="img" aria-label="Canonical hybridization temporal filmstrip"><rect x="0" y="0" width="1124" height="328" fill="#f8f1df"/><text x="151" y="26" text-anchor="middle" font-family="system-ui, sans-serif" font-size="17" font-weight="700" fill="#1b1810">Host</text><g transform="translate(-41.758620689655174 49.8103448275862) scale(0.7413793103448276)"><rect x="86" y="47" width="348" height="268" fill="#f8f1df" stroke="#0d0c08" stroke-width="0"></rect><rect x="110" y="86" width="300" height="190" fill="#cabf9f" stroke="#0d0c08" stroke-width="1.25"></rect><rect x="110" y="86" width="300" height="190" fill="none" stroke="#0d0c08" stroke-width="1.75"></rect><text x="260" y="298" text-anchor="middle" dominant-baseline="central" font-family="Georgia, Times New Roman, serif" font-size="14" fill="#1b1810">rectangle host</text></g><text x="425" y="26" text-anchor="middle" font-family="system-ui, sans-serif" font-size="17" font-weight="700" fill="#1b1810">Licensed home</text><g transform="translate(232.24137931034483 49.8103448275862) scale(0.7413793103448276)"><rect x="86" y="47" width="348" height="268" fill="#f8f1df" stroke="#0d0c08" stroke-width="0"></rect><circle cx="260" cy="181" r="94" fill="#cabf9f" stroke="#0d0c08" stroke-width="1.5"></circle><text x="260" y="297" text-anchor="middle" dominant-baseline="central" font-family="Georgia, Times New Roman, serif" font-size="14" fill="#1b1810">circle home</text><line x1="260" y1="181" x2="260" y2="87" stroke="#d4a747" stroke-width="1.4"></line><line x1="260" y1="181" x2="341.4063879557372" y2="134" stroke="#d4a747" stroke-width="1.4"></line><line x1="260" y1="181" x2="341.4063879557373" y2="228" stroke="#d4a747" stroke-width="1.4"></line><line x1="260" y1="181" x2="260" y2="275" stroke="#d4a747" stroke-width="1.4"></line><line x1="260" y1="181" x2="178.59361204426278" y2="228.00000000000003" stroke="#d4a747" stroke-width="1.4"></line><line x1="260" y1="181" x2="178.59361204426278" y2="134" stroke="#d4a747" stroke-width="1.4"></line><text x="260" y="67" text-anchor="middle" dominant-baseline="central" font-family="Georgia, Times New Roman, serif" font-size="13" fill="#1b1810">licensed radial partition</text></g><text x="699" y="26" text-anchor="middle" font-family="system-ui, sans-serif" font-size="17" font-weight="700" fill="#1b1810">Transplant</text><g transform="translate(506.2413793103448 49.8103448275862) scale(0.7413793103448276)"><rect x="86" y="47" width="348" height="268" fill="#f8f1df" stroke="#0d0c08" stroke-width="0"></rect><rect x="110" y="86" width="300" height="190" fill="#cabf9f" stroke="#0d0c08" stroke-width="1.25"></rect><rect x="110" y="86" width="300" height="190" fill="none" stroke="#0d0c08" stroke-width="1.75"></rect><text x="260" y="298" text-anchor="middle" dominant-baseline="central" font-family="Georgia, Times New Roman, serif" font-size="14" fill="#1b1810">rectangle host</text><line x1="260" y1="181" x2="260" y2="86" stroke="#b95238" stroke-width="2.4" stroke-dasharray="9 5"></line><line x1="260" y1="181" x2="410" y2="94.39745962155612" stroke="#b95238" stroke-width="2.4" stroke-dasharray="9 5"></line><line x1="260" y1="181" x2="410" y2="267.60254037844385" stroke="#b95238" stroke-width="2.4" stroke-dasharray="9 5"></line><line x1="260" y1="181" x2="260" y2="276" stroke="#b95238" stroke-width="2.4" stroke-dasharray="9 5"></line><line x1="260" y1="181" x2="110" y2="267.6025403784439" stroke="#b95238" stroke-width="2.4" stroke-dasharray="9 5"></line><line x1="260" y1="181" x2="110" y2="94.39745962155611" stroke="#b95238" stroke-width="2.4" stroke-dasharray="9 5"></line><text x="260" y="51" text-anchor="middle" dominant-baseline="central" font-family="Georgia, Times New Roman, serif" font-size="13" fill="#1b1810">radial partition on rectangle</text></g><text x="973" y="26" text-anchor="middle" font-family="system-ui, sans-serif" font-size="17" font-weight="700" fill="#1b1810">Hybrid result</text><g transform="translate(780.2413793103449 49.8103448275862) scale(0.7413793103448276)"><rect x="86" y="47" width="348" height="268" fill="#f8f1df" stroke="#0d0c08" stroke-width="0"></rect><rect x="110" y="86" width="300" height="190" fill="#cabf9f" stroke="#0d0c08" stroke-width="1.25"></rect><rect x="110" y="86" width="300" height="190" fill="none" stroke="#0d0c08" stroke-width="1.75"></rect><text x="260" y="298" text-anchor="middle" dominant-baseline="central" font-family="Georgia, Times New Roman, serif" font-size="14" fill="#1b1810">rectangle host</text><line x1="260" y1="181" x2="260" y2="86" stroke="#b95238" stroke-width="2.4" stroke-dasharray="9 5"></line><line x1="260" y1="181" x2="410" y2="94.39745962155612" stroke="#b95238" stroke-width="2.4" stroke-dasharray="9 5"></line><line x1="260" y1="181" x2="410" y2="267.60254037844385" stroke="#b95238" stroke-width="2.4" stroke-dasharray="9 5"></line><line x1="260" y1="181" x2="260" y2="276" stroke="#b95238" stroke-width="2.4" stroke-dasharray="9 5"></line><line x1="260" y1="181" x2="110" y2="267.6025403784439" stroke="#b95238" stroke-width="2.4" stroke-dasharray="9 5"></line><line x1="260" y1="181" x2="110" y2="94.39745962155611" stroke="#b95238" stroke-width="2.4" stroke-dasharray="9 5"></line><text x="260" y="51" text-anchor="middle" dominant-baseline="central" font-family="Georgia, Times New Roman, serif" font-size="13" fill="#1b1810">radial partition on rectangle</text></g></svg>
