<svg xmlns="http://www.w3.org/2000/svg" viewBox="0 0 1124 328" role="img" aria-label="Canonical hybridization temporal filmstrip"><rect x="0" y="0" width="1124" height="328" fill="#f8f1df"/><text x="151" y="26" text-anchor="middle" font-family="system-ui, sans-serif" font-size="17" font-weight="700" fill="#1b1810">Host</text><g transform="translate(-41.758620689655174 49.8103448275862) scale(0.7413793103448276)"><rect x="86" y="62" width="348" height="238" fill="#f8f1df" stroke="#0d0c08" stroke-width="0"></rect><circle cx="260" cy="181" r="94" fill="#cabf9f" stroke="#0d0c08" stroke-width="1.5"></circle><text x="260" y="297" text-anchor="middle" dominant-baseline="central" font-family="Georgia, Times New Roman, serif" font-size="14" fill="#1b1810">circle host</text></g><text x="425" y="26" text-anchor="middle" font-family="system-ui, sans-serif" font-size="17" font-weight="700" fill="#1b1810">Licensed home</text><g transform="translate(232.24137931034483 49.8103448275862) scale(0.7413793103448276)"><rect x="86" y="62" width="348" height="238" fill="#f8f1df" stroke="#0d0c08" stroke-width="0"></rect><rect x="110" y="86" width="300" height="190" fill="#cabf9f" stroke="#0d0c08" stroke-width="1.25"></rect><rect x="110" y="86" width="300" height="190" fill="none" stroke="#0d0c08" stroke-width="1.75"></rect><text x="260" y="298" text-anchor="middle" dominant-baseline="central" font-family="Georgia, Times New Roman, serif" font-size="14" fill="#1b1810">rectangle home</text><rect x="210" y="86" width="100" height="190" fill="#d4a747" opacity="0.42" stroke="none"></rect><line x1="210" y1="86" x2="210" y2="276" stroke="#d4a747" stroke-width="1.4"></line><line x1="310" y1="86" x2="310" y2="276" stroke="#d4a747" stroke-width="1.4"></line><text x="260" y="66" text-anchor="middle" dominant-baseline="central" font-family="Georgia, Times New Roman, serif" font-size="13" fill="#1b1810">licensed vertical partition</text></g><text x="699" y="26" text-anchor="middle" font-family="system-ui, sans-serif" font-size="17" font-weight="700" fill="#1b1810">Transplant</text><g transform="translate(506.2413793103448 49.8103448275862) scale(0.7413793103448276)"><rect x="86" y="62" width="348" height="238" fill="#f8f1df" stroke="#0d0c08" stroke-width="0"></rect><circle cx="260" cy="181" r="94" fill="#cabf9f" stroke="#0d0c08" stroke-width="1.5"></circle><text x="260" y="297" text-anchor="middle" dominant-baseline="central" font-family="Georgia, Times New Roman, serif" font-size="14" fill="#1b1810">circle host</text><polygon points="228.66666666666666,92.37595009128604 233.88888888888889,90.69933623420474 239.1111111111111,89.35037195390451 244.33333333333331,88.31475006477268 249.55555555555554,87.58204894000879 254.77777777777777,87.14517383180699 260,87 265.22222222222223,87.14517383180699 270.44444444444446,87.58204894000879 275.66666666666663,88.31475006477268 280.88888888888886,89.35037195390449 286.1111111111111,90.69933623420472 291.3333333333333,92.37595009128604 291.3333333333333,269.62404990871397 286.1111111111111,271.30066376579526 280.88888888888886,272.64962804609553 275.66666666666663,273.6852499352273 270.44444444444446,274.4179510599912 265.22222222222223,274.85482616819303 260,275 254.77777777777777,274.85482616819303 249.55555555555554,274.4179510599912 244.33333333333331,273.6852499352273 239.1111111111111,272.6496280460955 233.88888888888889,271.30066376579526 228.66666666666666,269.62404990871397" fill="#b95238" opacity="0.55" stroke="none"></polygon><line x1="228.66666666666666" y1="92.37595009128604" x2="228.66666666666666" y2="269.62404990871397" stroke="#b95238" stroke-width="2.4" stroke-dasharray="9 5"></line><line x1="291.3333333333333" y1="92.37595009128604" x2="291.3333333333333" y2="269.62404990871397" stroke="#b95238" stroke-width="2.4" stroke-dasharray="9 5"></line><text x="260" y="67" text-anchor="middle" dominant-baseline="central" font-family="Georgia, Times New Roman, serif" font-size="13" fill="#1b1810">vertical partition on circle</text></g><text x="973" y="26" text-anchor="middle" font-family="system-ui, sans-serif" font-size="17" font-weight="700" fill="#1b1810">Hybrid result</text><g transform="translate(780.2413793103449 49.8103448275862) scale(0.7413793103448276)"><rect x="86" y="62" width="348" height="238" fill="#f8f1df" stroke="#0d0c08" stroke-width="0"></rect><circle cx="260" cy="181" r="94" fill="#cabf9f" stroke="#0d0c08" stroke-width="1.5"></circle><text x="260" y="297" text-anchor="middle" dominant-baseline="central" font-family="Georgia, Times New Roman, serif" font-size="14" fill="#1b1810">circle host</text><polygon points="228.66666666666666,92.37595009128604 233.88888888888889,90.69933623420474 239.1111111111111,89.35037195390451 244.33333333333331,88.31475006477268 249.55555555555554,87.58204894000879 254.77777777777777,87.14517383180699 260,87 265.22222222222223,87.14517383180699 270.44444444444446,87.58204894000879 275.66666666666663,88.31475006477268 280.88888888888886,89.35037195390449 286.1111111111111,90.69933623420472 291.3333333333333,92.37595009128604 291.3333333333333,269.62404990871397 286.1111111111111,271.30066376579526 280.88888888888886,272.64962804609553 275.66666666666663,273.6852499352273 270.44444444444446,274.4179510599912 265.22222222222223,274.85482616819303 260,275 254.77777777777777,274.85482616819303 249.55555555555554,274.4179510599912 244.33333333333331,273.6852499352273 239.1111111111111,272.6496280460955 233.88888888888889,271.30066376579526 228.66666666666666,269.62404990871397" fill="#b95238" opacity="0.55" stroke="none"></polygon><line x1="228.66666666666666" y1="92.37595009128604" x2="228.66666666666666" y2="269.62404990871397" stroke="#b95238" stroke-width="2.4" stroke-dasharray="9 5"></line><line x1="291.3333333333333" y1="92.37595009128604" x2="291.3333333333333" y2="269.62404990871397" stroke="#b95238" stroke-width="2.4" stroke-dasharray="9 5"></line><text x="260" y="67" text-anchor="middle" dominant-baseline="central" font-family="Georgia, Times New Roman, serif" font-size="13" fill="#1b1810">vertical partition on circle</text></g></svg>
