<svg xmlns="http://www.w3.org/2000/svg" viewBox="102 63 276 236" preserveAspectRatio="xMidYMid meet" role="img" aria-label="PARAM-transplant-radial-on-set-1over4 frame 4 hybrid_result(transplant(radial,set),4)"><rect x="102" y="63" width="276" height="236" fill="#f8f1df" stroke="#0d0c08" stroke-width="0"></rect><circle cx="160" cy="132" r="34" fill="#cabf9f" stroke="#0d0c08" stroke-width="1.5"></circle><circle cx="246" cy="132" r="34" fill="#cabf9f" stroke="#0d0c08" stroke-width="1.5"></circle><circle cx="160" cy="218" r="34" fill="#cabf9f" stroke="#0d0c08" stroke-width="1.5"></circle><text x="203" y="274" text-anchor="middle" dominant-baseline="central" font-family="Georgia, Times New Roman, serif" font-size="14" fill="#1b1810">one whole (a set)</text><path d="M 160 132 L 160 98 A 34 34 0 0 1 194 132 Z" fill="#b95238" opacity="0.7" stroke="none"></path><line x1="160" y1="132" x2="160" y2="98" stroke="#b95238" stroke-width="2.2" stroke-dasharray="7 4"></line><line x1="160" y1="132" x2="194" y2="132" stroke="#b95238" stroke-width="2.2" stroke-dasharray="7 4"></line><line x1="160" y1="132" x2="160" y2="166" stroke="#b95238" stroke-width="2.2" stroke-dasharray="7 4"></line><line x1="160" y1="132" x2="126" y2="132" stroke="#b95238" stroke-width="2.2" stroke-dasharray="7 4"></line><line x1="246" y1="132" x2="246" y2="98" stroke="#b95238" stroke-width="2.2" stroke-dasharray="7 4"></line><line x1="246" y1="132" x2="280" y2="132" stroke="#b95238" stroke-width="2.2" stroke-dasharray="7 4"></line><line x1="246" y1="132" x2="246" y2="166" stroke="#b95238" stroke-width="2.2" stroke-dasharray="7 4"></line><line x1="246" y1="132" x2="212" y2="132" stroke="#b95238" stroke-width="2.2" stroke-dasharray="7 4"></line><line x1="160" y1="218" x2="160" y2="184" stroke="#b95238" stroke-width="2.2" stroke-dasharray="7 4"></line><line x1="160" y1="218" x2="194" y2="218" stroke="#b95238" stroke-width="2.2" stroke-dasharray="7 4"></line><line x1="160" y1="218" x2="160" y2="252" stroke="#b95238" stroke-width="2.2" stroke-dasharray="7 4"></line><line x1="160" y1="218" x2="126" y2="218" stroke="#b95238" stroke-width="2.2" stroke-dasharray="7 4"></line></svg>
