<svg xmlns="http://www.w3.org/2000/svg" viewBox="0 0 520 360" role="img" aria-label="Same radial-rule transplant on a set, parametric over the fraction (only the cut count changes)"><rect x="0" y="0" width="520" height="360" fill="#f8f1df"/><text x="260" y="30" text-anchor="middle" font-family="system-ui, sans-serif" font-size="18" font-weight="700" fill="#1b1810">Same radial-rule transplant on a set, parametric over the fraction (only the cut count changes)</text><text x="137" y="66" text-anchor="middle" font-family="Georgia, serif" font-size="20" font-weight="700" fill="#1b1810">1/3</text><g transform="translate(-63 43.16666666666666) scale(0.8333333333333334)"><rect x="102" y="63" width="276" height="236" fill="#f8f1df" stroke="#0d0c08" stroke-width="0"></rect><circle cx="160" cy="132" r="34" fill="#cabf9f" stroke="#0d0c08" stroke-width="1.5"></circle><circle cx="246" cy="132" r="34" fill="#cabf9f" stroke="#0d0c08" stroke-width="1.5"></circle><circle cx="160" cy="218" r="34" fill="#cabf9f" stroke="#0d0c08" stroke-width="1.5"></circle><text x="203" y="274" text-anchor="middle" dominant-baseline="central" font-family="Georgia, Times New Roman, serif" font-size="14" fill="#1b1810">one whole (a set)</text><path d="M 160 132 L 160 98 A 34 34 0 0 1 189.44486372867092 149 Z" fill="#b95238" opacity="0.7" stroke="none"></path><line x1="160" y1="132" x2="160" y2="98" stroke="#b95238" stroke-width="2.2" stroke-dasharray="7 4"></line><line x1="160" y1="132" x2="189.44486372867092" y2="149" stroke="#b95238" stroke-width="2.2" stroke-dasharray="7 4"></line><line x1="160" y1="132" x2="130.5551362713291" y2="149" stroke="#b95238" stroke-width="2.2" stroke-dasharray="7 4"></line><line x1="246" y1="132" x2="246" y2="98" stroke="#b95238" stroke-width="2.2" stroke-dasharray="7 4"></line><line x1="246" y1="132" x2="275.4448637286709" y2="149" stroke="#b95238" stroke-width="2.2" stroke-dasharray="7 4"></line><line x1="246" y1="132" x2="216.5551362713291" y2="149" stroke="#b95238" stroke-width="2.2" stroke-dasharray="7 4"></line><line x1="160" y1="218" x2="160" y2="184" stroke="#b95238" stroke-width="2.2" stroke-dasharray="7 4"></line><line x1="160" y1="218" x2="189.44486372867092" y2="235" stroke="#b95238" stroke-width="2.2" stroke-dasharray="7 4"></line><line x1="160" y1="218" x2="130.5551362713291" y2="235" stroke="#b95238" stroke-width="2.2" stroke-dasharray="7 4"></line></g><text x="383" y="66" text-anchor="middle" font-family="Georgia, serif" font-size="20" font-weight="700" fill="#1b1810">1/4</text><g transform="translate(183 43.16666666666666) scale(0.8333333333333334)"><rect x="102" y="63" width="276" height="236" fill="#f8f1df" stroke="#0d0c08" stroke-width="0"></rect><circle cx="160" cy="132" r="34" fill="#cabf9f" stroke="#0d0c08" stroke-width="1.5"></circle><circle cx="246" cy="132" r="34" fill="#cabf9f" stroke="#0d0c08" stroke-width="1.5"></circle><circle cx="160" cy="218" r="34" fill="#cabf9f" stroke="#0d0c08" stroke-width="1.5"></circle><text x="203" y="274" text-anchor="middle" dominant-baseline="central" font-family="Georgia, Times New Roman, serif" font-size="14" fill="#1b1810">one whole (a set)</text><path d="M 160 132 L 160 98 A 34 34 0 0 1 194 132 Z" fill="#b95238" opacity="0.7" stroke="none"></path><line x1="160" y1="132" x2="160" y2="98" stroke="#b95238" stroke-width="2.2" stroke-dasharray="7 4"></line><line x1="160" y1="132" x2="194" y2="132" stroke="#b95238" stroke-width="2.2" stroke-dasharray="7 4"></line><line x1="160" y1="132" x2="160" y2="166" stroke="#b95238" stroke-width="2.2" stroke-dasharray="7 4"></line><line x1="160" y1="132" x2="126" y2="132" stroke="#b95238" stroke-width="2.2" stroke-dasharray="7 4"></line><line x1="246" y1="132" x2="246" y2="98" stroke="#b95238" stroke-width="2.2" stroke-dasharray="7 4"></line><line x1="246" y1="132" x2="280" y2="132" stroke="#b95238" stroke-width="2.2" stroke-dasharray="7 4"></line><line x1="246" y1="132" x2="246" y2="166" stroke="#b95238" stroke-width="2.2" stroke-dasharray="7 4"></line><line x1="246" y1="132" x2="212" y2="132" stroke="#b95238" stroke-width="2.2" stroke-dasharray="7 4"></line><line x1="160" y1="218" x2="160" y2="184" stroke="#b95238" stroke-width="2.2" stroke-dasharray="7 4"></line><line x1="160" y1="218" x2="194" y2="218" stroke="#b95238" stroke-width="2.2" stroke-dasharray="7 4"></line><line x1="160" y1="218" x2="160" y2="252" stroke="#b95238" stroke-width="2.2" stroke-dasharray="7 4"></line><line x1="160" y1="218" x2="126" y2="218" stroke="#b95238" stroke-width="2.2" stroke-dasharray="7 4"></line></g></svg>
