<svg xmlns="http://www.w3.org/2000/svg" viewBox="0 0 520 360" role="img" aria-label="Same grid-rule transplant on a circle, parametric over the fraction (only the cut count changes)"><rect x="0" y="0" width="520" height="360" fill="#f8f1df"/><text x="260" y="30" text-anchor="middle" font-family="system-ui, sans-serif" font-size="18" font-weight="700" fill="#1b1810">Same grid-rule transplant on a circle, parametric over the fraction (only the cut count changes)</text><text x="137" y="66" text-anchor="middle" font-family="Georgia, serif" font-size="20" font-weight="700" fill="#1b1810">1/4</text><g transform="translate(-34.839080459770116 74.3735632183908) scale(0.6609195402298851)"><rect x="86" y="62" width="348" height="238" fill="#f8f1df" stroke="#0d0c08" stroke-width="0"></rect><circle cx="260" cy="181" r="94" fill="#cabf9f" stroke="#0d0c08" stroke-width="1.5"></circle><text x="260" y="297" text-anchor="middle" dominant-baseline="central" font-family="Georgia, Times New Roman, serif" font-size="14" fill="#1b1810">one whole</text><polygon points="166,181 169.91666666666666,154.14868614842928 173.83333333333334,143.43265306738368 177.75,135.49244568206285 181.66666666666666,129.03954495109875 185.58333333333334,123.57039333042387 189.5,118.82484418998212 193.41666666666666,114.64745881111847 197.33333333333334,110.93653670500657 201.25,107.62127351881882 205.16666666666669,104.6501109656631 209.08333333333331,101.98422274282463 213,99.59361204426277 213,262.4063879557372 209.08333333333331,260.0157772571754 205.16666666666669,257.3498890343369 201.25,254.37872648118116 197.33333333333334,251.06346329499343 193.41666666666666,247.35254118888153 189.5,243.17515581001788 185.58333333333334,238.42960666957612 181.66666666666666,232.96045504890125 177.75,226.50755431793715 173.83333333333334,218.56734693261632 169.91666666666666,207.85131385157072 166,181" fill="#b95238" opacity="0.55" stroke="none"></polygon><line x1="213" y1="99.59361204426277" x2="213" y2="262.4063879557372" stroke="#b95238" stroke-width="2.4" stroke-dasharray="9 5"></line><line x1="260" y1="87" x2="260" y2="275" stroke="#b95238" stroke-width="2.4" stroke-dasharray="9 5"></line><line x1="307" y1="99.59361204426277" x2="307" y2="262.4063879557372" stroke="#b95238" stroke-width="2.4" stroke-dasharray="9 5"></line></g><text x="383" y="66" text-anchor="middle" font-family="Georgia, serif" font-size="20" font-weight="700" fill="#1b1810">1/6</text><g transform="translate(211.16091954022988 74.3735632183908) scale(0.6609195402298851)"><rect x="86" y="62" width="348" height="238" fill="#f8f1df" stroke="#0d0c08" stroke-width="0"></rect><circle cx="260" cy="181" r="94" fill="#cabf9f" stroke="#0d0c08" stroke-width="1.5"></circle><text x="260" y="297" text-anchor="middle" dominant-baseline="central" font-family="Georgia, Times New Roman, serif" font-size="14" fill="#1b1810">one whole</text><polygon points="166,181 168.61111111111111,158.9983867033728 171.22222222222223,150.10491668825753 173.83333333333334,143.43265306738368 176.44444444444446,137.93645235465996 179.05555555555557,133.2088197092785 181.66666666666669,129.03954495109872 184.27777777777777,125.30309647989043 186.88888888888889,121.91730006085737 189.5,118.82484418998212 192.11111111111111,115.98385765494773 194.72222222222223,113.3626454657261 197.33333333333334,110.93653670500657 197.33333333333334,251.06346329499343 194.72222222222223,248.6373545342739 192.11111111111111,246.0161423450523 189.5,243.17515581001788 186.88888888888889,240.08269993914263 184.27777777777777,236.69690352010957 181.66666666666669,232.96045504890128 179.05555555555557,228.7911802907215 176.44444444444446,224.06354764534004 173.83333333333334,218.56734693261632 171.22222222222223,211.89508331174247 168.61111111111111,203.0016132966272 166,181" fill="#b95238" opacity="0.55" stroke="none"></polygon><line x1="197.33333333333334" y1="110.93653670500657" x2="197.33333333333334" y2="251.06346329499343" stroke="#b95238" stroke-width="2.4" stroke-dasharray="9 5"></line><line x1="228.66666666666666" y1="92.37595009128604" x2="228.66666666666666" y2="269.62404990871397" stroke="#b95238" stroke-width="2.4" stroke-dasharray="9 5"></line><line x1="260" y1="87" x2="260" y2="275" stroke="#b95238" stroke-width="2.4" stroke-dasharray="9 5"></line><line x1="291.3333333333333" y1="92.37595009128604" x2="291.3333333333333" y2="269.62404990871397" stroke="#b95238" stroke-width="2.4" stroke-dasharray="9 5"></line><line x1="322.66666666666663" y1="110.93653670500655" x2="322.66666666666663" y2="251.06346329499345" stroke="#b95238" stroke-width="2.4" stroke-dasharray="9 5"></line></g></svg>
