<svg xmlns="http://www.w3.org/2000/svg" viewBox="86 62 348 238" preserveAspectRatio="xMidYMid meet" role="img" aria-label="PARAM-transplant-grid-on-circle-1over4 frame 3 apply_foreign_partition(grid,circle,4)"><rect x="86" y="62" width="348" height="238" fill="#f8f1df" stroke="#0d0c08" stroke-width="0"></rect><circle cx="260" cy="181" r="94" fill="#cabf9f" stroke="#0d0c08" stroke-width="1.5"></circle><text x="260" y="297" text-anchor="middle" dominant-baseline="central" font-family="Georgia, Times New Roman, serif" font-size="14" fill="#1b1810">one whole</text><polygon points="166,181 169.91666666666666,154.14868614842928 173.83333333333334,143.43265306738368 177.75,135.49244568206285 181.66666666666666,129.03954495109875 185.58333333333334,123.57039333042387 189.5,118.82484418998212 193.41666666666666,114.64745881111847 197.33333333333334,110.93653670500657 201.25,107.62127351881882 205.16666666666669,104.6501109656631 209.08333333333331,101.98422274282463 213,99.59361204426277 213,262.4063879557372 209.08333333333331,260.0157772571754 205.16666666666669,257.3498890343369 201.25,254.37872648118116 197.33333333333334,251.06346329499343 193.41666666666666,247.35254118888153 189.5,243.17515581001788 185.58333333333334,238.42960666957612 181.66666666666666,232.96045504890125 177.75,226.50755431793715 173.83333333333334,218.56734693261632 169.91666666666666,207.85131385157072 166,181" fill="#b95238" opacity="0.55" stroke="none"></polygon><line x1="213" y1="99.59361204426277" x2="213" y2="262.4063879557372" stroke="#b95238" stroke-width="2.4" stroke-dasharray="9 5"></line><line x1="260" y1="87" x2="260" y2="275" stroke="#b95238" stroke-width="2.4" stroke-dasharray="9 5"></line><line x1="307" y1="99.59361204426277" x2="307" y2="262.4063879557372" stroke="#b95238" stroke-width="2.4" stroke-dasharray="9 5"></line></svg>
