<svg xmlns="http://www.w3.org/2000/svg" viewBox="0 0 520 360" role="img" aria-label="Same radial-rule transplant on a rectangle, parametric over the fraction (only the cut count changes)"><rect x="0" y="0" width="520" height="360" fill="#f8f1df"/><text x="260" y="30" text-anchor="middle" font-family="system-ui, sans-serif" font-size="18" font-weight="700" fill="#1b1810">Same radial-rule transplant on a rectangle, parametric over the fraction (only the cut count changes)</text><text x="137" y="66" text-anchor="middle" font-family="Georgia, serif" font-size="20" font-weight="700" fill="#1b1810">1/4</text><g transform="translate(-34.839080459770116 74.37356321839079) scale(0.6609195402298851)"><rect x="86" y="47" width="348" height="268" fill="#f8f1df" stroke="#0d0c08" stroke-width="0"></rect><rect x="110" y="86" width="300" height="190" fill="#cabf9f" stroke="#0d0c08" stroke-width="1.25"></rect><rect x="110" y="86" width="300" height="190" fill="none" stroke="#0d0c08" stroke-width="1.75"></rect><text x="260" y="298" text-anchor="middle" dominant-baseline="central" font-family="Georgia, Times New Roman, serif" font-size="14" fill="#1b1810">one whole</text><line x1="260" y1="181" x2="260" y2="86" stroke="#b95238" stroke-width="2.4" stroke-dasharray="9 5"></line><line x1="260" y1="181" x2="410" y2="181" stroke="#b95238" stroke-width="2.4" stroke-dasharray="9 5"></line><line x1="260" y1="181" x2="260" y2="276" stroke="#b95238" stroke-width="2.4" stroke-dasharray="9 5"></line><line x1="260" y1="181" x2="110" y2="181.00000000000003" stroke="#b95238" stroke-width="2.4" stroke-dasharray="9 5"></line></g><text x="383" y="66" text-anchor="middle" font-family="Georgia, serif" font-size="20" font-weight="700" fill="#1b1810">1/6</text><g transform="translate(211.16091954022988 74.37356321839079) scale(0.6609195402298851)"><rect x="86" y="47" width="348" height="268" fill="#f8f1df" stroke="#0d0c08" stroke-width="0"></rect><rect x="110" y="86" width="300" height="190" fill="#cabf9f" stroke="#0d0c08" stroke-width="1.25"></rect><rect x="110" y="86" width="300" height="190" fill="none" stroke="#0d0c08" stroke-width="1.75"></rect><text x="260" y="298" text-anchor="middle" dominant-baseline="central" font-family="Georgia, Times New Roman, serif" font-size="14" fill="#1b1810">one whole</text><line x1="260" y1="181" x2="260" y2="86" stroke="#b95238" stroke-width="2.4" stroke-dasharray="9 5"></line><line x1="260" y1="181" x2="410" y2="94.39745962155612" stroke="#b95238" stroke-width="2.4" stroke-dasharray="9 5"></line><line x1="260" y1="181" x2="410" y2="267.60254037844385" stroke="#b95238" stroke-width="2.4" stroke-dasharray="9 5"></line><line x1="260" y1="181" x2="260" y2="276" stroke="#b95238" stroke-width="2.4" stroke-dasharray="9 5"></line><line x1="260" y1="181" x2="110" y2="267.6025403784439" stroke="#b95238" stroke-width="2.4" stroke-dasharray="9 5"></line><line x1="260" y1="181" x2="110" y2="94.39745962155611" stroke="#b95238" stroke-width="2.4" stroke-dasharray="9 5"></line></g></svg>
