<svg xmlns="http://www.w3.org/2000/svg" viewBox="86 62 348 238" preserveAspectRatio="xMidYMid meet" role="img" aria-label="PARAM-transplant-vertical-on-circle-1over8 frame 3 apply_foreign_partition(vertical,circle,8)"><rect x="86" y="62" width="348" height="238" fill="#f8f1df" stroke="#0d0c08" stroke-width="0"></rect><circle cx="260" cy="181" r="94" fill="#cabf9f" stroke="#0d0c08" stroke-width="1.5"></circle><text x="260" y="297" text-anchor="middle" dominant-baseline="central" font-family="Georgia, Times New Roman, serif" font-size="14" fill="#1b1810">one whole</text><polygon points="166,181 167.95833333333334,161.91252774141572 169.91666666666666,154.14868614842928 171.875,148.28938436837362 173.83333333333334,143.43265306738368 175.79166666666666,139.22732235991782 177.75,135.49244568206285 179.70833333333334,132.1200627671343 181.66666666666666,129.03954495109875 183.625,126.20164806310322 185.58333333333334,123.57039333042387 187.54166666666666,121.11853433193578 189.5,118.82484418998212 189.5,243.17515581001788 187.54166666666666,240.8814656680642 185.58333333333334,238.42960666957612 183.625,235.79835193689678 181.66666666666666,232.96045504890125 179.70833333333334,229.8799372328657 177.75,226.50755431793715 175.79166666666666,222.77267764008218 173.83333333333334,218.56734693261632 171.875,213.71061563162638 169.91666666666666,207.85131385157072 167.95833333333334,200.08747225858428 166,181" fill="#b95238" opacity="0.55" stroke="none"></polygon><line x1="189.5" y1="118.82484418998212" x2="189.5" y2="243.17515581001788" stroke="#b95238" stroke-width="2.4" stroke-dasharray="9 5"></line><line x1="213" y1="99.59361204426277" x2="213" y2="262.4063879557372" stroke="#b95238" stroke-width="2.4" stroke-dasharray="9 5"></line><line x1="236.5" y1="89.9848913641257" x2="236.5" y2="272.0151086358743" stroke="#b95238" stroke-width="2.4" stroke-dasharray="9 5"></line><line x1="260" y1="87" x2="260" y2="275" stroke="#b95238" stroke-width="2.4" stroke-dasharray="9 5"></line><line x1="283.5" y1="89.9848913641257" x2="283.5" y2="272.0151086358743" stroke="#b95238" stroke-width="2.4" stroke-dasharray="9 5"></line><line x1="307" y1="99.59361204426277" x2="307" y2="262.4063879557372" stroke="#b95238" stroke-width="2.4" stroke-dasharray="9 5"></line><line x1="330.5" y1="118.82484418998212" x2="330.5" y2="243.17515581001788" stroke="#b95238" stroke-width="2.4" stroke-dasharray="9 5"></line></svg>
