<svg xmlns="http://www.w3.org/2000/svg" viewBox="0 0 1370 296" preserveAspectRatio="xMidYMid meet" role="img" aria-label="IM-G2-U2-L7 incorrect filmstrip 62 - 43"><rect x="0" y="0" width="1370" height="296" fill="#f8f1df"></rect><metadata data-hermes-kind="monitoring-visual-proof">{&quot;kind&quot;:&quot;hermes_monitoring_visual_filmstrip_proof&quot;,&quot;lesson_code&quot;:&quot;IM-G2-U2-L7&quot;,&quot;visual_index&quot;:0,&quot;side&quot;:&quot;incorrect&quot;,&quot;expression&quot;:&quot;62 - 43&quot;,&quot;proof&quot;:{&quot;source&quot;:&quot;representation_grammar_and_render_contract&quot;,&quot;status&quot;:&quot;misconception_deformation&quot;,&quot;frame_count&quot;:4,&quot;temporal&quot;:true,&quot;frame_sequence&quot;:[{&quot;step&quot;:1,&quot;verb&quot;:&quot;show_minuend(62)&quot;,&quot;caption&quot;:&quot;Show 62. Subtract 43 place by place.&quot;},{&quot;step&quot;:2,&quot;verb&quot;:&quot;borrow_without_reducing_place(0)&quot;,&quot;caption&quot;:&quot;The ones place has 2 but needs 3; make 12 here without reducing the next place (tens). Then 12 - 3 = 9.&quot;},{&quot;step&quot;:3,&quot;verb&quot;:&quot;borrow_without_reducing_place(1)&quot;,&quot;caption&quot;:&quot;The tens place: 6 - 4 = 2, no borrow.&quot;},{&quot;step&quot;:4,&quot;verb&quot;:&quot;deformed_difference(29)&quot;,&quot;caption&quot;:&quot;Borrowing without reducing the next place gives 29, not 19.&quot;}],&quot;grammar&quot;:{&quot;deformation&quot;:{&quot;correct_answer&quot;:19,&quot;correct_task&quot;:&quot;whole_number_subtraction(62,43)&quot;,&quot;misconception&quot;:&quot;borrow_without_reducing_bases&quot;,&quot;mode&quot;:&quot;misconception&quot;,&quot;representation&quot;:&quot;base_ten_blocks&quot;,&quot;violation&quot;:&quot;reason(next_place_not_reduced_after_borrow)&quot;,&quot;wrong_answer&quot;:29},&quot;preserves&quot;:false,&quot;representation&quot;:&quot;base_ten_blocks&quot;,&quot;spec&quot;:&quot;subtract_without_reducing_borrow(62,43,10)&quot;,&quot;target_task&quot;:&quot;whole_number_subtraction(62,43)&quot;}},&quot;interpretive_residue&quot;:{&quot;status&quot;:&quot;human_endorsement_required&quot;,&quot;claim&quot;:&quot;Hermes checks representation grammar, denotation, deformation evidence, refusal, and render frames; it does not certify that this generated visual is a faithful reading of any particular student's work.&quot;,&quot;machine_certifies&quot;:[&quot;render spec denotation or named deformation evidence&quot;,&quot;representation refusal when a vocabulary cannot productively denote the task&quot;,&quot;temporal frame count and scene-contract shape&quot;],&quot;human_must_endorse&quot;:[&quot;the fit between extracted teacher-guide numbers and the lesson activity&quot;,&quot;the projective reading from an actual student work sample to this labeled misconception&quot;]}}</metadata><g data-frame-index="0" transform="translate(18 18)"><rect x="0" y="0" width="320" height="260" rx="6" fill="#fffaf0" stroke="#cabf9f"></rect><svg xmlns="http://www.w3.org/2000/svg" viewBox="16 16 258 296" preserveAspectRatio="xMidYMid meet" x="10" y="10" width="300" height="176"><rect x="16" y="16" width="258" height="296" fill="#f8f1df" stroke="#0d0c08" stroke-width="0"></rect><g class="bt-block" data-place="1" data-idx="0"><rect x="40" y="40" width="160" height="16" fill="#cabf9f" stroke="#0d0c08" stroke-width="1"></rect><line x1="56" y1="40" x2="56" y2="56" stroke="#0d0c08" stroke-width="0.5"></line><line x1="72" y1="40" x2="72" y2="56" stroke="#0d0c08" stroke-width="0.5"></line><line x1="88" y1="40" x2="88" y2="56" stroke="#0d0c08" stroke-width="0.5"></line><line x1="104" y1="40" x2="104" y2="56" stroke="#0d0c08" stroke-width="0.5"></line><line x1="120" y1="40" x2="120" y2="56" stroke="#0d0c08" stroke-width="0.5"></line><line x1="136" y1="40" x2="136" y2="56" stroke="#0d0c08" stroke-width="0.5"></line><line x1="152" y1="40" x2="152" y2="56" stroke="#0d0c08" stroke-width="0.5"></line><line x1="168" y1="40" x2="168" y2="56" stroke="#0d0c08" stroke-width="0.5"></line><line x1="184" y1="40" x2="184" y2="56" stroke="#0d0c08" stroke-width="0.5"></line></g><g class="bt-block" data-place="1" data-idx="1"><rect x="40" y="64" width="160" height="16" fill="#cabf9f" stroke="#0d0c08" stroke-width="1"></rect><line x1="56" y1="64" x2="56" y2="80" stroke="#0d0c08" stroke-width="0.5"></line><line x1="72" y1="64" x2="72" y2="80" stroke="#0d0c08" stroke-width="0.5"></line><line x1="88" y1="64" x2="88" y2="80" stroke="#0d0c08" stroke-width="0.5"></line><line x1="104" y1="64" x2="104" y2="80" stroke="#0d0c08" stroke-width="0.5"></line><line x1="120" y1="64" x2="120" y2="80" stroke="#0d0c08" stroke-width="0.5"></line><line x1="136" y1="64" x2="136" y2="80" stroke="#0d0c08" stroke-width="0.5"></line><line x1="152" y1="64" x2="152" y2="80" stroke="#0d0c08" stroke-width="0.5"></line><line x1="168" y1="64" x2="168" y2="80" stroke="#0d0c08" stroke-width="0.5"></line><line x1="184" y1="64" x2="184" y2="80" stroke="#0d0c08" stroke-width="0.5"></line></g><g class="bt-block" data-place="1" data-idx="2"><rect x="40" y="88" width="160" height="16" fill="#cabf9f" stroke="#0d0c08" stroke-width="1"></rect><line x1="56" y1="88" x2="56" y2="104" stroke="#0d0c08" stroke-width="0.5"></line><line x1="72" y1="88" x2="72" y2="104" stroke="#0d0c08" stroke-width="0.5"></line><line x1="88" y1="88" x2="88" y2="104" stroke="#0d0c08" stroke-width="0.5"></line><line x1="104" y1="88" x2="104" y2="104" stroke="#0d0c08" stroke-width="0.5"></line><line x1="120" y1="88" x2="120" y2="104" stroke="#0d0c08" stroke-width="0.5"></line><line x1="136" y1="88" x2="136" y2="104" stroke="#0d0c08" stroke-width="0.5"></line><line x1="152" y1="88" x2="152" y2="104" stroke="#0d0c08" stroke-width="0.5"></line><line x1="168" y1="88" x2="168" y2="104" stroke="#0d0c08" stroke-width="0.5"></line><line x1="184" y1="88" x2="184" y2="104" stroke="#0d0c08" stroke-width="0.5"></line></g><g class="bt-block" data-place="1" data-idx="3"><rect x="40" y="112" width="160" height="16" fill="#cabf9f" stroke="#0d0c08" stroke-width="1"></rect><line x1="56" y1="112" x2="56" y2="128" stroke="#0d0c08" stroke-width="0.5"></line><line x1="72" y1="112" x2="72" y2="128" stroke="#0d0c08" stroke-width="0.5"></line><line x1="88" y1="112" x2="88" y2="128" stroke="#0d0c08" stroke-width="0.5"></line><line x1="104" y1="112" x2="104" y2="128" stroke="#0d0c08" stroke-width="0.5"></line><line x1="120" y1="112" x2="120" y2="128" stroke="#0d0c08" stroke-width="0.5"></line><line x1="136" y1="112" x2="136" y2="128" stroke="#0d0c08" stroke-width="0.5"></line><line x1="152" y1="112" x2="152" y2="128" stroke="#0d0c08" stroke-width="0.5"></line><line x1="168" y1="112" x2="168" y2="128" stroke="#0d0c08" stroke-width="0.5"></line><line x1="184" y1="112" x2="184" y2="128" stroke="#0d0c08" stroke-width="0.5"></line></g><g class="bt-block" data-place="1" data-idx="4"><rect x="40" y="136" width="160" height="16" fill="#cabf9f" stroke="#0d0c08" stroke-width="1"></rect><line x1="56" y1="136" x2="56" y2="152" stroke="#0d0c08" stroke-width="0.5"></line><line x1="72" y1="136" x2="72" y2="152" stroke="#0d0c08" stroke-width="0.5"></line><line x1="88" y1="136" x2="88" y2="152" stroke="#0d0c08" stroke-width="0.5"></line><line x1="104" y1="136" x2="104" y2="152" stroke="#0d0c08" stroke-width="0.5"></line><line x1="120" y1="136" x2="120" y2="152" stroke="#0d0c08" stroke-width="0.5"></line><line x1="136" y1="136" x2="136" y2="152" stroke="#0d0c08" stroke-width="0.5"></line><line x1="152" y1="136" x2="152" y2="152" stroke="#0d0c08" stroke-width="0.5"></line><line x1="168" y1="136" x2="168" y2="152" stroke="#0d0c08" stroke-width="0.5"></line><line x1="184" y1="136" x2="184" y2="152" stroke="#0d0c08" stroke-width="0.5"></line></g><g class="bt-block" data-place="1" data-idx="5"><rect x="40" y="160" width="160" height="16" fill="#cabf9f" stroke="#0d0c08" stroke-width="1"></rect><line x1="56" y1="160" x2="56" y2="176" stroke="#0d0c08" stroke-width="0.5"></line><line x1="72" y1="160" x2="72" y2="176" stroke="#0d0c08" stroke-width="0.5"></line><line x1="88" y1="160" x2="88" y2="176" stroke="#0d0c08" stroke-width="0.5"></line><line x1="104" y1="160" x2="104" y2="176" stroke="#0d0c08" stroke-width="0.5"></line><line x1="120" y1="160" x2="120" y2="176" stroke="#0d0c08" stroke-width="0.5"></line><line x1="136" y1="160" x2="136" y2="176" stroke="#0d0c08" stroke-width="0.5"></line><line x1="152" y1="160" x2="152" y2="176" stroke="#0d0c08" stroke-width="0.5"></line><line x1="168" y1="160" x2="168" y2="176" stroke="#0d0c08" stroke-width="0.5"></line><line x1="184" y1="160" x2="184" y2="176" stroke="#0d0c08" stroke-width="0.5"></line></g><g class="bt-block" data-place="0" data-idx="6"><rect x="234" y="40" width="16" height="16" fill="#3f7f89" stroke="#0d0c08" stroke-width="1"></rect></g><g class="bt-block" data-place="0" data-idx="7"><rect x="234" y="64" width="16" height="16" fill="#3f7f89" stroke="#0d0c08" stroke-width="1"></rect></g><text x="120" y="194" text-anchor="middle" dominant-baseline="central" font-family="Georgia, Times New Roman, serif" font-size="12" fill="#1b1810">tens</text><text x="120" y="210" text-anchor="middle" dominant-baseline="central" font-family="Georgia, Times New Roman, serif" font-size="11" fill="#1b1810">× 6</text><text x="242" y="194" text-anchor="middle" dominant-baseline="central" font-family="Georgia, Times New Roman, serif" font-size="12" fill="#1b1810">ones</text><text x="242" y="210" text-anchor="middle" dominant-baseline="central" font-family="Georgia, Times New Roman, serif" font-size="11" fill="#1b1810">× 2</text></svg><text x="14" y="210" font-family="Georgia, Times New Roman, serif" font-size="14" font-weight="700" fill="#1b1810">Step 1: show_minuend(62)</text><text x="14" y="232" font-family="system-ui, sans-serif" font-size="12" fill="#4d4638">Show 62. Subtract 43 place by place.</text></g><g data-frame-index="1" transform="translate(356 18)"><rect x="0" y="0" width="320" height="260" rx="6" fill="#fffaf0" stroke="#cabf9f"></rect><svg xmlns="http://www.w3.org/2000/svg" viewBox="16 16 258 296" preserveAspectRatio="xMidYMid meet" x="10" y="10" width="300" height="176"><rect x="16" y="16" width="258" height="296" fill="#f8f1df" stroke="#0d0c08" stroke-width="0"></rect><g class="bt-block" data-place="1" data-idx="0"><rect x="40" y="40" width="160" height="16" fill="#cabf9f" stroke="#0d0c08" stroke-width="1"></rect><line x1="56" y1="40" x2="56" y2="56" stroke="#0d0c08" stroke-width="0.5"></line><line x1="72" y1="40" x2="72" y2="56" stroke="#0d0c08" stroke-width="0.5"></line><line x1="88" y1="40" x2="88" y2="56" stroke="#0d0c08" stroke-width="0.5"></line><line x1="104" y1="40" x2="104" y2="56" stroke="#0d0c08" stroke-width="0.5"></line><line x1="120" y1="40" x2="120" y2="56" stroke="#0d0c08" stroke-width="0.5"></line><line x1="136" y1="40" x2="136" y2="56" stroke="#0d0c08" stroke-width="0.5"></line><line x1="152" y1="40" x2="152" y2="56" stroke="#0d0c08" stroke-width="0.5"></line><line x1="168" y1="40" x2="168" y2="56" stroke="#0d0c08" stroke-width="0.5"></line><line x1="184" y1="40" x2="184" y2="56" stroke="#0d0c08" stroke-width="0.5"></line></g><g class="bt-block" data-place="1" data-idx="1"><rect x="40" y="64" width="160" height="16" fill="#cabf9f" stroke="#0d0c08" stroke-width="1"></rect><line x1="56" y1="64" x2="56" y2="80" stroke="#0d0c08" stroke-width="0.5"></line><line x1="72" y1="64" x2="72" y2="80" stroke="#0d0c08" stroke-width="0.5"></line><line x1="88" y1="64" x2="88" y2="80" stroke="#0d0c08" stroke-width="0.5"></line><line x1="104" y1="64" x2="104" y2="80" stroke="#0d0c08" stroke-width="0.5"></line><line x1="120" y1="64" x2="120" y2="80" stroke="#0d0c08" stroke-width="0.5"></line><line x1="136" y1="64" x2="136" y2="80" stroke="#0d0c08" stroke-width="0.5"></line><line x1="152" y1="64" x2="152" y2="80" stroke="#0d0c08" stroke-width="0.5"></line><line x1="168" y1="64" x2="168" y2="80" stroke="#0d0c08" stroke-width="0.5"></line><line x1="184" y1="64" x2="184" y2="80" stroke="#0d0c08" stroke-width="0.5"></line></g><g class="bt-block" data-place="1" data-idx="2"><rect x="40" y="88" width="160" height="16" fill="#cabf9f" stroke="#0d0c08" stroke-width="1"></rect><line x1="56" y1="88" x2="56" y2="104" stroke="#0d0c08" stroke-width="0.5"></line><line x1="72" y1="88" x2="72" y2="104" stroke="#0d0c08" stroke-width="0.5"></line><line x1="88" y1="88" x2="88" y2="104" stroke="#0d0c08" stroke-width="0.5"></line><line x1="104" y1="88" x2="104" y2="104" stroke="#0d0c08" stroke-width="0.5"></line><line x1="120" y1="88" x2="120" y2="104" stroke="#0d0c08" stroke-width="0.5"></line><line x1="136" y1="88" x2="136" y2="104" stroke="#0d0c08" stroke-width="0.5"></line><line x1="152" y1="88" x2="152" y2="104" stroke="#0d0c08" stroke-width="0.5"></line><line x1="168" y1="88" x2="168" y2="104" stroke="#0d0c08" stroke-width="0.5"></line><line x1="184" y1="88" x2="184" y2="104" stroke="#0d0c08" stroke-width="0.5"></line></g><g class="bt-block" data-place="1" data-idx="3"><rect x="40" y="112" width="160" height="16" fill="#cabf9f" stroke="#0d0c08" stroke-width="1"></rect><line x1="56" y1="112" x2="56" y2="128" stroke="#0d0c08" stroke-width="0.5"></line><line x1="72" y1="112" x2="72" y2="128" stroke="#0d0c08" stroke-width="0.5"></line><line x1="88" y1="112" x2="88" y2="128" stroke="#0d0c08" stroke-width="0.5"></line><line x1="104" y1="112" x2="104" y2="128" stroke="#0d0c08" stroke-width="0.5"></line><line x1="120" y1="112" x2="120" y2="128" stroke="#0d0c08" stroke-width="0.5"></line><line x1="136" y1="112" x2="136" y2="128" stroke="#0d0c08" stroke-width="0.5"></line><line x1="152" y1="112" x2="152" y2="128" stroke="#0d0c08" stroke-width="0.5"></line><line x1="168" y1="112" x2="168" y2="128" stroke="#0d0c08" stroke-width="0.5"></line><line x1="184" y1="112" x2="184" y2="128" stroke="#0d0c08" stroke-width="0.5"></line></g><g class="bt-block" data-place="1" data-idx="4"><rect x="40" y="136" width="160" height="16" fill="#cabf9f" stroke="#0d0c08" stroke-width="1"></rect><line x1="56" y1="136" x2="56" y2="152" stroke="#0d0c08" stroke-width="0.5"></line><line x1="72" y1="136" x2="72" y2="152" stroke="#0d0c08" stroke-width="0.5"></line><line x1="88" y1="136" x2="88" y2="152" stroke="#0d0c08" stroke-width="0.5"></line><line x1="104" y1="136" x2="104" y2="152" stroke="#0d0c08" stroke-width="0.5"></line><line x1="120" y1="136" x2="120" y2="152" stroke="#0d0c08" stroke-width="0.5"></line><line x1="136" y1="136" x2="136" y2="152" stroke="#0d0c08" stroke-width="0.5"></line><line x1="152" y1="136" x2="152" y2="152" stroke="#0d0c08" stroke-width="0.5"></line><line x1="168" y1="136" x2="168" y2="152" stroke="#0d0c08" stroke-width="0.5"></line><line x1="184" y1="136" x2="184" y2="152" stroke="#0d0c08" stroke-width="0.5"></line></g><g class="bt-block" data-place="1" data-idx="5"><rect x="40" y="160" width="160" height="16" fill="#cabf9f" stroke="#0d0c08" stroke-width="1"></rect><line x1="56" y1="160" x2="56" y2="176" stroke="#0d0c08" stroke-width="0.5"></line><line x1="72" y1="160" x2="72" y2="176" stroke="#0d0c08" stroke-width="0.5"></line><line x1="88" y1="160" x2="88" y2="176" stroke="#0d0c08" stroke-width="0.5"></line><line x1="104" y1="160" x2="104" y2="176" stroke="#0d0c08" stroke-width="0.5"></line><line x1="120" y1="160" x2="120" y2="176" stroke="#0d0c08" stroke-width="0.5"></line><line x1="136" y1="160" x2="136" y2="176" stroke="#0d0c08" stroke-width="0.5"></line><line x1="152" y1="160" x2="152" y2="176" stroke="#0d0c08" stroke-width="0.5"></line><line x1="168" y1="160" x2="168" y2="176" stroke="#0d0c08" stroke-width="0.5"></line><line x1="184" y1="160" x2="184" y2="176" stroke="#0d0c08" stroke-width="0.5"></line></g><g class="bt-block" data-place="0" data-idx="6"><rect x="234" y="40" width="16" height="16" fill="#3f7f89" stroke="#0d0c08" stroke-width="1"></rect></g><g class="bt-block" data-place="0" data-idx="7"><rect x="234" y="64" width="16" height="16" fill="#3f7f89" stroke="#0d0c08" stroke-width="1"></rect></g><g class="bt-block" data-place="0" data-idx="8"><rect x="234" y="88" width="16" height="16" fill="#3f7f89" stroke="#0d0c08" stroke-width="1"></rect></g><g class="bt-block" data-place="0" data-idx="9"><rect x="234" y="112" width="16" height="16" fill="#3f7f89" stroke="#0d0c08" stroke-width="1"></rect></g><g class="bt-block" data-place="0" data-idx="10"><rect x="234" y="136" width="16" height="16" fill="#3f7f89" stroke="#0d0c08" stroke-width="1"></rect></g><g class="bt-block" data-place="0" data-idx="11"><rect x="234" y="160" width="16" height="16" fill="#3f7f89" stroke="#0d0c08" stroke-width="1"></rect></g><g class="bt-block" data-place="0" data-idx="12"><rect x="234" y="184" width="16" height="16" fill="#3f7f89" stroke="#0d0c08" stroke-width="1"></rect></g><g class="bt-block" data-place="0" data-idx="13"><rect x="234" y="208" width="16" height="16" fill="#3f7f89" stroke="#0d0c08" stroke-width="1"></rect></g><g class="bt-block" data-place="0" data-idx="14"><rect x="234" y="232" width="16" height="16" fill="#3f7f89" stroke="#0d0c08" stroke-width="1"></rect></g><text x="120" y="266" text-anchor="middle" dominant-baseline="central" font-family="Georgia, Times New Roman, serif" font-size="12" fill="#1b1810">tens</text><text x="120" y="282" text-anchor="middle" dominant-baseline="central" font-family="Georgia, Times New Roman, serif" font-size="11" fill="#1b1810">× 6</text><text x="242" y="266" text-anchor="middle" dominant-baseline="central" font-family="Georgia, Times New Roman, serif" font-size="12" fill="#1b1810">ones</text><text x="242" y="282" text-anchor="middle" dominant-baseline="central" font-family="Georgia, Times New Roman, serif" font-size="11" fill="#1b1810">× 9</text></svg><text x="14" y="210" font-family="Georgia, Times New Roman, serif" font-size="14" font-weight="700" fill="#1b1810">Step 2: borrow_without_reducing_place(0)</text><text x="14" y="232" font-family="system-ui, sans-serif" font-size="12" fill="#4d4638">The ones place has 2 but needs 3; make 12 here without reducing the next place (tens). Then 12 - 3 = 9.</text></g><g data-frame-index="2" transform="translate(694 18)"><rect x="0" y="0" width="320" height="260" rx="6" fill="#fffaf0" stroke="#cabf9f"></rect><svg xmlns="http://www.w3.org/2000/svg" viewBox="16 16 258 296" preserveAspectRatio="xMidYMid meet" x="10" y="10" width="300" height="176"><rect x="16" y="16" width="258" height="296" fill="#f8f1df" stroke="#0d0c08" stroke-width="0"></rect><g class="bt-block" data-place="1" data-idx="0"><rect x="40" y="40" width="160" height="16" fill="#cabf9f" stroke="#0d0c08" stroke-width="1"></rect><line x1="56" y1="40" x2="56" y2="56" stroke="#0d0c08" stroke-width="0.5"></line><line x1="72" y1="40" x2="72" y2="56" stroke="#0d0c08" stroke-width="0.5"></line><line x1="88" y1="40" x2="88" y2="56" stroke="#0d0c08" stroke-width="0.5"></line><line x1="104" y1="40" x2="104" y2="56" stroke="#0d0c08" stroke-width="0.5"></line><line x1="120" y1="40" x2="120" y2="56" stroke="#0d0c08" stroke-width="0.5"></line><line x1="136" y1="40" x2="136" y2="56" stroke="#0d0c08" stroke-width="0.5"></line><line x1="152" y1="40" x2="152" y2="56" stroke="#0d0c08" stroke-width="0.5"></line><line x1="168" y1="40" x2="168" y2="56" stroke="#0d0c08" stroke-width="0.5"></line><line x1="184" y1="40" x2="184" y2="56" stroke="#0d0c08" stroke-width="0.5"></line></g><g class="bt-block" data-place="1" data-idx="1"><rect x="40" y="64" width="160" height="16" fill="#cabf9f" stroke="#0d0c08" stroke-width="1"></rect><line x1="56" y1="64" x2="56" y2="80" stroke="#0d0c08" stroke-width="0.5"></line><line x1="72" y1="64" x2="72" y2="80" stroke="#0d0c08" stroke-width="0.5"></line><line x1="88" y1="64" x2="88" y2="80" stroke="#0d0c08" stroke-width="0.5"></line><line x1="104" y1="64" x2="104" y2="80" stroke="#0d0c08" stroke-width="0.5"></line><line x1="120" y1="64" x2="120" y2="80" stroke="#0d0c08" stroke-width="0.5"></line><line x1="136" y1="64" x2="136" y2="80" stroke="#0d0c08" stroke-width="0.5"></line><line x1="152" y1="64" x2="152" y2="80" stroke="#0d0c08" stroke-width="0.5"></line><line x1="168" y1="64" x2="168" y2="80" stroke="#0d0c08" stroke-width="0.5"></line><line x1="184" y1="64" x2="184" y2="80" stroke="#0d0c08" stroke-width="0.5"></line></g><g class="bt-block" data-place="0" data-idx="2"><rect x="234" y="40" width="16" height="16" fill="#3f7f89" stroke="#0d0c08" stroke-width="1"></rect></g><g class="bt-block" data-place="0" data-idx="3"><rect x="234" y="64" width="16" height="16" fill="#3f7f89" stroke="#0d0c08" stroke-width="1"></rect></g><text x="120" y="98" text-anchor="middle" dominant-baseline="central" font-family="Georgia, Times New Roman, serif" font-size="12" fill="#1b1810">tens</text><text x="120" y="114" text-anchor="middle" dominant-baseline="central" font-family="Georgia, Times New Roman, serif" font-size="11" fill="#1b1810">× 2</text><text x="242" y="98" text-anchor="middle" dominant-baseline="central" font-family="Georgia, Times New Roman, serif" font-size="12" fill="#1b1810">ones</text><text x="242" y="114" text-anchor="middle" dominant-baseline="central" font-family="Georgia, Times New Roman, serif" font-size="11" fill="#1b1810">× 2</text></svg><text x="14" y="210" font-family="Georgia, Times New Roman, serif" font-size="14" font-weight="700" fill="#1b1810">Step 3: borrow_without_reducing_place(1)</text><text x="14" y="232" font-family="system-ui, sans-serif" font-size="12" fill="#4d4638">The tens place: 6 - 4 = 2, no borrow.</text></g><g data-frame-index="3" transform="translate(1032 18)"><rect x="0" y="0" width="320" height="260" rx="6" fill="#fffaf0" stroke="#cabf9f"></rect><svg xmlns="http://www.w3.org/2000/svg" viewBox="16 16 258 296" preserveAspectRatio="xMidYMid meet" x="10" y="10" width="300" height="176"><rect x="16" y="16" width="258" height="296" fill="#f8f1df" stroke="#0d0c08" stroke-width="0"></rect><g class="bt-block" data-place="1" data-idx="0"><rect x="40" y="40" width="160" height="16" fill="#cabf9f" stroke="#0d0c08" stroke-width="1"></rect><line x1="56" y1="40" x2="56" y2="56" stroke="#0d0c08" stroke-width="0.5"></line><line x1="72" y1="40" x2="72" y2="56" stroke="#0d0c08" stroke-width="0.5"></line><line x1="88" y1="40" x2="88" y2="56" stroke="#0d0c08" stroke-width="0.5"></line><line x1="104" y1="40" x2="104" y2="56" stroke="#0d0c08" stroke-width="0.5"></line><line x1="120" y1="40" x2="120" y2="56" stroke="#0d0c08" stroke-width="0.5"></line><line x1="136" y1="40" x2="136" y2="56" stroke="#0d0c08" stroke-width="0.5"></line><line x1="152" y1="40" x2="152" y2="56" stroke="#0d0c08" stroke-width="0.5"></line><line x1="168" y1="40" x2="168" y2="56" stroke="#0d0c08" stroke-width="0.5"></line><line x1="184" y1="40" x2="184" y2="56" stroke="#0d0c08" stroke-width="0.5"></line></g><g class="bt-block" data-place="1" data-idx="1"><rect x="40" y="64" width="160" height="16" fill="#cabf9f" stroke="#0d0c08" stroke-width="1"></rect><line x1="56" y1="64" x2="56" y2="80" stroke="#0d0c08" stroke-width="0.5"></line><line x1="72" y1="64" x2="72" y2="80" stroke="#0d0c08" stroke-width="0.5"></line><line x1="88" y1="64" x2="88" y2="80" stroke="#0d0c08" stroke-width="0.5"></line><line x1="104" y1="64" x2="104" y2="80" stroke="#0d0c08" stroke-width="0.5"></line><line x1="120" y1="64" x2="120" y2="80" stroke="#0d0c08" stroke-width="0.5"></line><line x1="136" y1="64" x2="136" y2="80" stroke="#0d0c08" stroke-width="0.5"></line><line x1="152" y1="64" x2="152" y2="80" stroke="#0d0c08" stroke-width="0.5"></line><line x1="168" y1="64" x2="168" y2="80" stroke="#0d0c08" stroke-width="0.5"></line><line x1="184" y1="64" x2="184" y2="80" stroke="#0d0c08" stroke-width="0.5"></line></g><g class="bt-block" data-place="0" data-idx="2"><rect x="234" y="40" width="16" height="16" fill="#3f7f89" stroke="#0d0c08" stroke-width="1"></rect></g><g class="bt-block" data-place="0" data-idx="3"><rect x="234" y="64" width="16" height="16" fill="#3f7f89" stroke="#0d0c08" stroke-width="1"></rect></g><g class="bt-block" data-place="0" data-idx="4"><rect x="234" y="88" width="16" height="16" fill="#3f7f89" stroke="#0d0c08" stroke-width="1"></rect></g><g class="bt-block" data-place="0" data-idx="5"><rect x="234" y="112" width="16" height="16" fill="#3f7f89" stroke="#0d0c08" stroke-width="1"></rect></g><g class="bt-block" data-place="0" data-idx="6"><rect x="234" y="136" width="16" height="16" fill="#3f7f89" stroke="#0d0c08" stroke-width="1"></rect></g><g class="bt-block" data-place="0" data-idx="7"><rect x="234" y="160" width="16" height="16" fill="#3f7f89" stroke="#0d0c08" stroke-width="1"></rect></g><g class="bt-block" data-place="0" data-idx="8"><rect x="234" y="184" width="16" height="16" fill="#3f7f89" stroke="#0d0c08" stroke-width="1"></rect></g><g class="bt-block" data-place="0" data-idx="9"><rect x="234" y="208" width="16" height="16" fill="#3f7f89" stroke="#0d0c08" stroke-width="1"></rect></g><g class="bt-block" data-place="0" data-idx="10"><rect x="234" y="232" width="16" height="16" fill="#3f7f89" stroke="#0d0c08" stroke-width="1"></rect></g><text x="120" y="266" text-anchor="middle" dominant-baseline="central" font-family="Georgia, Times New Roman, serif" font-size="12" fill="#1b1810">tens</text><text x="120" y="282" text-anchor="middle" dominant-baseline="central" font-family="Georgia, Times New Roman, serif" font-size="11" fill="#1b1810">× 2</text><text x="242" y="266" text-anchor="middle" dominant-baseline="central" font-family="Georgia, Times New Roman, serif" font-size="12" fill="#1b1810">ones</text><text x="242" y="282" text-anchor="middle" dominant-baseline="central" font-family="Georgia, Times New Roman, serif" font-size="11" fill="#1b1810">× 9</text></svg><text x="14" y="210" font-family="Georgia, Times New Roman, serif" font-size="14" font-weight="700" fill="#1b1810">Step 4: deformed_difference(29)</text><text x="14" y="232" font-family="system-ui, sans-serif" font-size="12" fill="#4d4638">Borrowing without reducing the next place gives 29, not 19.</text></g></svg>
