<svg xmlns="http://www.w3.org/2000/svg" viewBox="0 0 1032 296" preserveAspectRatio="xMidYMid meet" role="img" aria-label="IM-G1-U3-L17 incorrect filmstrip 6 + 8"><rect x="0" y="0" width="1032" height="296" fill="#f8f1df"></rect><metadata data-hermes-kind="monitoring-visual-proof">{&quot;kind&quot;:&quot;hermes_monitoring_visual_filmstrip_proof&quot;,&quot;lesson_code&quot;:&quot;IM-G1-U3-L17&quot;,&quot;visual_index&quot;:0,&quot;side&quot;:&quot;incorrect&quot;,&quot;expression&quot;:&quot;6 + 8&quot;,&quot;proof&quot;:{&quot;source&quot;:&quot;representation_grammar_and_render_contract&quot;,&quot;status&quot;:&quot;misconception_deformation&quot;,&quot;frame_count&quot;:3,&quot;temporal&quot;:true,&quot;frame_sequence&quot;:[{&quot;step&quot;:1,&quot;verb&quot;:&quot;make_ten_drop_leftover(8,6)&quot;,&quot;caption&quot;:&quot;Start with 8 in the ten-frame.&quot;},{&quot;step&quot;:2,&quot;verb&quot;:&quot;make_ten_drop_leftover(8,6)&quot;,&quot;caption&quot;:&quot;Add 2 to make ten: 8 needs 2 more, and 6 has it to give.&quot;},{&quot;step&quot;:3,&quot;verb&quot;:&quot;make_ten_drop_leftover(8,6)&quot;,&quot;caption&quot;:&quot;The ten is full, but the leftover 4 from 6 is dropped. The student keeps 10 instead of preserving the full sum 14.&quot;}],&quot;grammar&quot;:{&quot;deformation&quot;:{&quot;correct_answer&quot;:14,&quot;correct_task&quot;:&quot;whole_number_addition(8,6)&quot;,&quot;misconception&quot;:&quot;make_ten_drop_leftover&quot;,&quot;mode&quot;:&quot;misconception&quot;,&quot;representation&quot;:&quot;set_grouping&quot;,&quot;violation&quot;:&quot;reason(leftover_not_preserved)&quot;,&quot;wrong_answer&quot;:10},&quot;preserves&quot;:false,&quot;representation&quot;:&quot;set_grouping&quot;,&quot;spec&quot;:&quot;make_ten_drop_leftover(8,6)&quot;,&quot;target_task&quot;:&quot;whole_number_addition(8,6)&quot;}},&quot;interpretive_residue&quot;:{&quot;status&quot;:&quot;human_endorsement_required&quot;,&quot;claim&quot;:&quot;Hermes checks representation grammar, denotation, deformation evidence, refusal, and render frames; it does not certify that this generated visual is a faithful reading of any particular student's work.&quot;,&quot;machine_certifies&quot;:[&quot;render spec denotation or named deformation evidence&quot;,&quot;representation refusal when a vocabulary cannot productively denote the task&quot;,&quot;temporal frame count and scene-contract shape&quot;],&quot;human_must_endorse&quot;:[&quot;the fit between extracted teacher-guide numbers and the lesson activity&quot;,&quot;the projective reading from an actual student work sample to this labeled misconception&quot;]}}</metadata><g data-frame-index="0" transform="translate(18 18)"><rect x="0" y="0" width="320" height="260" rx="6" fill="#fffaf0" stroke="#cabf9f"></rect><svg xmlns="http://www.w3.org/2000/svg" viewBox="16 16 368 228" preserveAspectRatio="xMidYMid meet" x="10" y="10" width="300" height="176"><rect x="16" y="16" width="368" height="228" fill="#f8f1df" stroke="#0d0c08" stroke-width="0"></rect><rect x="40" y="40" width="64" height="64" fill="none" stroke="#0d0c08" stroke-width="1"></rect><rect x="104" y="40" width="64" height="64" fill="none" stroke="#0d0c08" stroke-width="1"></rect><rect x="168" y="40" width="64" height="64" fill="none" stroke="#0d0c08" stroke-width="1"></rect><rect x="232" y="40" width="64" height="64" fill="none" stroke="#0d0c08" stroke-width="1"></rect><rect x="296" y="40" width="64" height="64" fill="none" stroke="#0d0c08" stroke-width="1"></rect><rect x="40" y="104" width="64" height="64" fill="none" stroke="#0d0c08" stroke-width="1"></rect><rect x="104" y="104" width="64" height="64" fill="none" stroke="#0d0c08" stroke-width="1"></rect><rect x="168" y="104" width="64" height="64" fill="none" stroke="#0d0c08" stroke-width="1"></rect><rect x="232" y="104" width="64" height="64" fill="none" stroke="#0d0c08" stroke-width="1"></rect><rect x="296" y="104" width="64" height="64" fill="none" stroke="#0d0c08" stroke-width="1"></rect><circle cx="72" cy="72" r="20" fill="#3f7f89" stroke="#0d0c08" stroke-width="1.25"></circle><circle cx="136" cy="72" r="20" fill="#3f7f89" stroke="#0d0c08" stroke-width="1.25"></circle><circle cx="200" cy="72" r="20" fill="#3f7f89" stroke="#0d0c08" stroke-width="1.25"></circle><circle cx="264" cy="72" r="20" fill="#3f7f89" stroke="#0d0c08" stroke-width="1.25"></circle><circle cx="328" cy="72" r="20" fill="#3f7f89" stroke="#0d0c08" stroke-width="1.25"></circle><circle cx="72" cy="136" r="20" fill="#3f7f89" stroke="#0d0c08" stroke-width="1.25"></circle><circle cx="136" cy="136" r="20" fill="#3f7f89" stroke="#0d0c08" stroke-width="1.25"></circle><circle cx="200" cy="136" r="20" fill="#3f7f89" stroke="#0d0c08" stroke-width="1.25"></circle></svg><text x="14" y="210" font-family="Georgia, Times New Roman, serif" font-size="14" font-weight="700" fill="#1b1810">Step 1: make_ten_drop_leftover(8,6)</text><text x="14" y="232" font-family="system-ui, sans-serif" font-size="12" fill="#4d4638">Start with 8 in the ten-frame.</text></g><g data-frame-index="1" transform="translate(356 18)"><rect x="0" y="0" width="320" height="260" rx="6" fill="#fffaf0" stroke="#cabf9f"></rect><svg xmlns="http://www.w3.org/2000/svg" viewBox="16 16 368 228" preserveAspectRatio="xMidYMid meet" x="10" y="10" width="300" height="176"><rect x="16" y="16" width="368" height="228" fill="#f8f1df" stroke="#0d0c08" stroke-width="0"></rect><rect x="40" y="40" width="64" height="64" fill="none" stroke="#0d0c08" stroke-width="1"></rect><rect x="104" y="40" width="64" height="64" fill="none" stroke="#0d0c08" stroke-width="1"></rect><rect x="168" y="40" width="64" height="64" fill="none" stroke="#0d0c08" stroke-width="1"></rect><rect x="232" y="40" width="64" height="64" fill="none" stroke="#0d0c08" stroke-width="1"></rect><rect x="296" y="40" width="64" height="64" fill="none" stroke="#0d0c08" stroke-width="1"></rect><rect x="40" y="104" width="64" height="64" fill="none" stroke="#0d0c08" stroke-width="1"></rect><rect x="104" y="104" width="64" height="64" fill="none" stroke="#0d0c08" stroke-width="1"></rect><rect x="168" y="104" width="64" height="64" fill="none" stroke="#0d0c08" stroke-width="1"></rect><rect x="232" y="104" width="64" height="64" fill="none" stroke="#0d0c08" stroke-width="1"></rect><rect x="296" y="104" width="64" height="64" fill="none" stroke="#0d0c08" stroke-width="1"></rect><circle cx="72" cy="72" r="20" fill="#3f7f89" stroke="#0d0c08" stroke-width="1.25"></circle><circle cx="136" cy="72" r="20" fill="#3f7f89" stroke="#0d0c08" stroke-width="1.25"></circle><circle cx="200" cy="72" r="20" fill="#3f7f89" stroke="#0d0c08" stroke-width="1.25"></circle><circle cx="264" cy="72" r="20" fill="#3f7f89" stroke="#0d0c08" stroke-width="1.25"></circle><circle cx="328" cy="72" r="20" fill="#3f7f89" stroke="#0d0c08" stroke-width="1.25"></circle><circle cx="72" cy="136" r="20" fill="#3f7f89" stroke="#0d0c08" stroke-width="1.25"></circle><circle cx="136" cy="136" r="20" fill="#3f7f89" stroke="#0d0c08" stroke-width="1.25"></circle><circle cx="200" cy="136" r="20" fill="#3f7f89" stroke="#0d0c08" stroke-width="1.25"></circle><circle cx="264" cy="136" r="20" fill="#d4a747" stroke="#0d0c08" stroke-width="1.25"></circle><circle cx="328" cy="136" r="20" fill="#d4a747" stroke="#0d0c08" stroke-width="1.25"></circle></svg><text x="14" y="210" font-family="Georgia, Times New Roman, serif" font-size="14" font-weight="700" fill="#1b1810">Step 2: make_ten_drop_leftover(8,6)</text><text x="14" y="232" font-family="system-ui, sans-serif" font-size="12" fill="#4d4638">Add 2 to make ten: 8 needs 2 more, and 6 has it to give.</text></g><g data-frame-index="2" transform="translate(694 18)"><rect x="0" y="0" width="320" height="260" rx="6" fill="#fffaf0" stroke="#cabf9f"></rect><svg xmlns="http://www.w3.org/2000/svg" viewBox="16 16 368 228" preserveAspectRatio="xMidYMid meet" x="10" y="10" width="300" height="176"><rect x="16" y="16" width="368" height="228" fill="#f8f1df" stroke="#0d0c08" stroke-width="0"></rect><rect x="40" y="40" width="64" height="64" fill="none" stroke="#0d0c08" stroke-width="1"></rect><rect x="104" y="40" width="64" height="64" fill="none" stroke="#0d0c08" stroke-width="1"></rect><rect x="168" y="40" width="64" height="64" fill="none" stroke="#0d0c08" stroke-width="1"></rect><rect x="232" y="40" width="64" height="64" fill="none" stroke="#0d0c08" stroke-width="1"></rect><rect x="296" y="40" width="64" height="64" fill="none" stroke="#0d0c08" stroke-width="1"></rect><rect x="40" y="104" width="64" height="64" fill="none" stroke="#0d0c08" stroke-width="1"></rect><rect x="104" y="104" width="64" height="64" fill="none" stroke="#0d0c08" stroke-width="1"></rect><rect x="168" y="104" width="64" height="64" fill="none" stroke="#0d0c08" stroke-width="1"></rect><rect x="232" y="104" width="64" height="64" fill="none" stroke="#0d0c08" stroke-width="1"></rect><rect x="296" y="104" width="64" height="64" fill="none" stroke="#0d0c08" stroke-width="1"></rect><circle cx="72" cy="72" r="20" fill="#3f7f89" stroke="#0d0c08" stroke-width="1.25"></circle><circle cx="136" cy="72" r="20" fill="#3f7f89" stroke="#0d0c08" stroke-width="1.25"></circle><circle cx="200" cy="72" r="20" fill="#3f7f89" stroke="#0d0c08" stroke-width="1.25"></circle><circle cx="264" cy="72" r="20" fill="#3f7f89" stroke="#0d0c08" stroke-width="1.25"></circle><circle cx="328" cy="72" r="20" fill="#3f7f89" stroke="#0d0c08" stroke-width="1.25"></circle><circle cx="72" cy="136" r="20" fill="#3f7f89" stroke="#0d0c08" stroke-width="1.25"></circle><circle cx="136" cy="136" r="20" fill="#3f7f89" stroke="#0d0c08" stroke-width="1.25"></circle><circle cx="200" cy="136" r="20" fill="#3f7f89" stroke="#0d0c08" stroke-width="1.25"></circle><circle cx="264" cy="136" r="20" fill="#d4a747" stroke="#0d0c08" stroke-width="1.25"></circle><circle cx="328" cy="136" r="20" fill="#d4a747" stroke="#0d0c08" stroke-width="1.25"></circle><circle cx="72" cy="200" r="20" fill="#b95238" stroke="#0d0c08" stroke-width="1.25"></circle><circle cx="136" cy="200" r="20" fill="#b95238" stroke="#0d0c08" stroke-width="1.25"></circle><circle cx="200" cy="200" r="20" fill="#b95238" stroke="#0d0c08" stroke-width="1.25"></circle><circle cx="264" cy="200" r="20" fill="#b95238" stroke="#0d0c08" stroke-width="1.25"></circle></svg><text x="14" y="210" font-family="Georgia, Times New Roman, serif" font-size="14" font-weight="700" fill="#1b1810">Step 3: make_ten_drop_leftover(8,6)</text><text x="14" y="232" font-family="system-ui, sans-serif" font-size="12" fill="#4d4638">The ten is full, but the leftover 4 from 6 is dropped. The student keeps 10 instead of preserving the full sum 14.</text></g></svg>
