<svg xmlns="http://www.w3.org/2000/svg" viewBox="0 0 980 300" role="img"><rect x="0" y="0" width="980" height="300" fill="#f8f1df"/><text x="172" y="24" text-anchor="middle" font-family="system-ui,sans-serif" font-size="15" font-weight="700" fill="#1b1810">1 whole</text><text x="172" y="44" text-anchor="middle" font-family="system-ui,sans-serif" font-size="11" fill="#5a5446">Partition the whole into 5; reach 5/5 = 1 whole.</text><g transform="translate(16.82758620689655 84.3448275862069) scale(0.8620689655172413)"><rect x="6" y="16" width="348" height="118" fill="#f8f1df" stroke="#0d0c08" stroke-width="0"></rect><rect x="30" y="40" width="300" height="70" fill="#cabf9f" stroke="#0d0c08" stroke-width="1.5"></rect><rect x="30" y="40" width="60" height="70" fill="#d4a747" stroke="#0d0c08" stroke-width="0.75"></rect><rect x="90" y="40" width="60" height="70" fill="#d4a747" stroke="#0d0c08" stroke-width="0.75"></rect><rect x="150" y="40" width="60" height="70" fill="#d4a747" stroke="#0d0c08" stroke-width="0.75"></rect><rect x="210" y="40" width="60" height="70" fill="#d4a747" stroke="#0d0c08" stroke-width="0.75"></rect><rect x="270" y="40" width="60" height="70" fill="#d4a747" stroke="#0d0c08" stroke-width="0.75"></rect><rect x="30" y="40" width="300" height="70" fill="none" stroke="#0d0c08" stroke-width="1.5"></rect><text x="180" y="75" text-anchor="middle" dominant-baseline="central" font-family="Georgia, &quot;Times New Roman&quot;, serif" font-size="20" fill="#1b1810">5/5 = 1</text></g><text x="490" y="24" text-anchor="middle" font-family="system-ui,sans-serif" font-size="15" font-weight="700" fill="#1b1810">Re-partition</text><text x="490" y="44" text-anchor="middle" font-family="system-ui,sans-serif" font-size="11" fill="#5a5446">To say 7-something, re-partition the SAME whole into 7.</text><g transform="translate(334.82758620689657 84.3448275862069) scale(0.8620689655172413)"><rect x="6" y="16" width="348" height="118" fill="#f8f1df" stroke="#0d0c08" stroke-width="0"></rect><rect x="30" y="40" width="300" height="70" fill="#cabf9f" stroke="#0d0c08" stroke-width="1.5"></rect><rect x="30" y="40" width="42.857142857142854" height="70" fill="#d4a747" stroke="#0d0c08" stroke-width="0.75"></rect><rect x="72.85714285714286" y="40" width="42.857142857142854" height="70" fill="#d4a747" stroke="#0d0c08" stroke-width="0.75"></rect><rect x="115.71428571428571" y="40" width="42.857142857142854" height="70" fill="#d4a747" stroke="#0d0c08" stroke-width="0.75"></rect><rect x="158.57142857142856" y="40" width="42.857142857142854" height="70" fill="#d4a747" stroke="#0d0c08" stroke-width="0.75"></rect><rect x="201.42857142857142" y="40" width="42.857142857142854" height="70" fill="#d4a747" stroke="#0d0c08" stroke-width="0.75"></rect><rect x="244.28571428571428" y="40" width="42.857142857142854" height="70" fill="#d4a747" stroke="#0d0c08" stroke-width="0.75"></rect><rect x="287.1428571428571" y="40" width="42.857142857142854" height="70" fill="#d4a747" stroke="#0d0c08" stroke-width="0.75"></rect><rect x="30" y="40" width="300" height="70" fill="none" stroke="#0d0c08" stroke-width="1.5"></rect><text x="180" y="75" text-anchor="middle" dominant-baseline="central" font-family="Georgia, &quot;Times New Roman&quot;, serif" font-size="20" fill="#1b1810">7 parts?</text></g><text x="808" y="24" text-anchor="middle" font-family="system-ui,sans-serif" font-size="15" font-weight="700" fill="#1b1810">Chain lost (mc2)</text><text x="808" y="44" text-anchor="middle" font-family="system-ui,sans-serif" font-size="11" fill="#5a5446">Whole now read as 7/7: the original 1/5 chain is lost.</text><g transform="translate(652.8275862068965 84.3448275862069) scale(0.8620689655172413)"><rect x="6" y="16" width="348" height="118" fill="#f8f1df" stroke="#0d0c08" stroke-width="0"></rect><rect x="30" y="40" width="300" height="70" fill="#cabf9f" stroke="#0d0c08" stroke-width="1.5"></rect><rect x="30" y="40" width="42.857142857142854" height="70" fill="#d4a747" stroke="#0d0c08" stroke-width="0.75"></rect><rect x="72.85714285714286" y="40" width="42.857142857142854" height="70" fill="#d4a747" stroke="#0d0c08" stroke-width="0.75"></rect><rect x="115.71428571428571" y="40" width="42.857142857142854" height="70" fill="#d4a747" stroke="#0d0c08" stroke-width="0.75"></rect><rect x="158.57142857142856" y="40" width="42.857142857142854" height="70" fill="#d4a747" stroke="#0d0c08" stroke-width="0.75"></rect><rect x="201.42857142857142" y="40" width="42.857142857142854" height="70" fill="#d4a747" stroke="#0d0c08" stroke-width="0.75"></rect><rect x="244.28571428571428" y="40" width="42.857142857142854" height="70" fill="#d4a747" stroke="#0d0c08" stroke-width="0.75"></rect><rect x="287.1428571428571" y="40" width="42.857142857142854" height="70" fill="#d4a747" stroke="#0d0c08" stroke-width="0.75"></rect><rect x="30" y="40" width="300" height="70" fill="none" stroke="#0d0c08" stroke-width="1.5"></rect><text x="180" y="75" text-anchor="middle" dominant-baseline="central" font-family="Georgia, &quot;Times New Roman&quot;, serif" font-size="20" fill="#1b1810">7/7 ✗ chain lost</text></g></svg>
