<svg xmlns="http://www.w3.org/2000/svg" viewBox="0 0 980 340" role="img" aria-label="WATCH FOR: equipartition_failure(miscount_partition) of 1/8 on a bar"><rect x="0" y="0" width="980" height="340" fill="#f8f1df"/><text x="490" y="28" text-anchor="middle" font-family="Georgia, 'Times New Roman', serif" font-size="20" font-weight="700" fill="#1b1810">WATCH FOR: equipartition_failure(miscount_partition) of 1/8 on a bar</text><text x="172" y="64" text-anchor="middle" font-family="system-ui,sans-serif" font-size="15" font-weight="700" fill="#1b1810">establish whole</text><text x="172" y="84" text-anchor="middle" font-family="system-ui,sans-serif" font-size="11" fill="#5a5446">Establish the whole bar. One length, not yet pa…</text><g transform="translate(17.108695652173914 120.95652173913044) scale(0.8152173913043478)"><rect x="6" y="46" width="368" height="124" fill="#f8f1df" stroke="#0d0c08" stroke-width="0"></rect><rect x="30" y="70" width="320" height="76" fill="#cabf9f" stroke="#0d0c08" stroke-width="1.5"></rect><rect x="30" y="70" width="320" height="76" fill="none" stroke="#0d0c08" stroke-width="1.5"></rect><text x="190" y="108" text-anchor="middle" dominant-baseline="central" font-family="Georgia, &quot;Times New Roman&quot;, serif" font-size="20" fill="#1b1810">1 whole (target: 8 equal parts)</text></g><text x="490" y="64" text-anchor="middle" font-family="system-ui,sans-serif" font-size="15" font-weight="700" fill="#1b1810">apply partition</text><text x="490" y="84" text-anchor="middle" font-family="system-ui,sans-serif" font-size="11" fill="#5a5446">Partition the bar into equal parts, but make th…</text><g transform="translate(335.10869565217394 120.95652173913044) scale(0.8152173913043478)"><rect x="6" y="46" width="368" height="124" fill="#f8f1df" stroke="#0d0c08" stroke-width="0"></rect><rect x="30" y="70" width="320" height="76" fill="#cabf9f" stroke="#0d0c08" stroke-width="1.5"></rect><rect x="30" y="70" width="35.55555555555556" height="76" fill="#d4a747" stroke="#0d0c08" stroke-width="0.75"></rect><rect x="65.55555555555556" y="70" width="35.55555555555556" height="76" fill="#d4a747" stroke="#0d0c08" stroke-width="0.75"></rect><rect x="101.11111111111111" y="70" width="35.55555555555556" height="76" fill="#d4a747" stroke="#0d0c08" stroke-width="0.75"></rect><rect x="136.66666666666669" y="70" width="35.55555555555556" height="76" fill="#d4a747" stroke="#0d0c08" stroke-width="0.75"></rect><rect x="172.22222222222223" y="70" width="35.55555555555556" height="76" fill="#d4a747" stroke="#0d0c08" stroke-width="0.75"></rect><rect x="207.77777777777777" y="70" width="35.55555555555556" height="76" fill="#d4a747" stroke="#0d0c08" stroke-width="0.75"></rect><rect x="243.33333333333331" y="70" width="35.55555555555556" height="76" fill="#d4a747" stroke="#0d0c08" stroke-width="0.75"></rect><rect x="278.88888888888886" y="70" width="35.55555555555556" height="76" fill="#d4a747" stroke="#0d0c08" stroke-width="0.75"></rect><rect x="314.4444444444444" y="70" width="35.55555555555556" height="76" fill="#d4a747" stroke="#0d0c08" stroke-width="0.75"></rect><rect x="30" y="70" width="320" height="76" fill="none" stroke="#0d0c08" stroke-width="1.5"></rect><text x="190" y="108" text-anchor="middle" dominant-baseline="central" font-family="Georgia, &quot;Times New Roman&quot;, serif" font-size="20" fill="#1b1810">drew 9 equal parts for a 8-part task (off by one)</text></g><text x="808" y="64" text-anchor="middle" font-family="system-ui,sans-serif" font-size="15" font-weight="700" fill="#1b1810">shade parts</text><text x="808" y="84" text-anchor="middle" font-family="system-ui,sans-serif" font-size="11" fill="#5a5446">Shade and read the fraction off the miscounted …</text><g transform="translate(653.1086956521739 120.95652173913044) scale(0.8152173913043478)"><rect x="6" y="46" width="368" height="124" fill="#f8f1df" stroke="#0d0c08" stroke-width="0"></rect><rect x="30" y="70" width="320" height="76" fill="#cabf9f" stroke="#0d0c08" stroke-width="1.5"></rect><rect x="30" y="70" width="35.55555555555556" height="76" fill="#b95238" stroke="#0d0c08" stroke-width="0.75"></rect><rect x="65.55555555555556" y="70" width="35.55555555555556" height="76" fill="#d4a747" stroke="#0d0c08" stroke-width="0.75"></rect><rect x="101.11111111111111" y="70" width="35.55555555555556" height="76" fill="#d4a747" stroke="#0d0c08" stroke-width="0.75"></rect><rect x="136.66666666666669" y="70" width="35.55555555555556" height="76" fill="#d4a747" stroke="#0d0c08" stroke-width="0.75"></rect><rect x="172.22222222222223" y="70" width="35.55555555555556" height="76" fill="#d4a747" stroke="#0d0c08" stroke-width="0.75"></rect><rect x="207.77777777777777" y="70" width="35.55555555555556" height="76" fill="#d4a747" stroke="#0d0c08" stroke-width="0.75"></rect><rect x="243.33333333333331" y="70" width="35.55555555555556" height="76" fill="#d4a747" stroke="#0d0c08" stroke-width="0.75"></rect><rect x="278.88888888888886" y="70" width="35.55555555555556" height="76" fill="#d4a747" stroke="#0d0c08" stroke-width="0.75"></rect><rect x="314.4444444444444" y="70" width="35.55555555555556" height="76" fill="#d4a747" stroke="#0d0c08" stroke-width="0.75"></rect><rect x="30" y="70" width="320" height="76" fill="none" stroke="#0d0c08" stroke-width="1.5"></rect><text x="190" y="108" text-anchor="middle" dominant-baseline="central" font-family="Georgia, &quot;Times New Roman&quot;, serif" font-size="20" fill="#1b1810">read 1/9 off a 9-part bar (wanted /8)</text></g></svg>
