<svg xmlns="http://www.w3.org/2000/svg" viewBox="0 0 980 340" role="img" aria-label="WATCH FOR: equipartition_failure(unequal_partition) of 1/6 on a bar"><rect x="0" y="0" width="980" height="340" fill="#f8f1df"/><text x="490" y="28" text-anchor="middle" font-family="Georgia, 'Times New Roman', serif" font-size="20" font-weight="700" fill="#1b1810">WATCH FOR: equipartition_failure(unequal_partition) of 1/6 on a bar</text><text x="172" y="64" text-anchor="middle" font-family="system-ui,sans-serif" font-size="15" font-weight="700" fill="#1b1810">establish whole</text><text x="172" y="84" text-anchor="middle" font-family="system-ui,sans-serif" font-size="11" fill="#5a5446">Establish the whole bar. One length, not yet pa…</text><g transform="translate(17.108695652173914 120.95652173913044) scale(0.8152173913043478)"><rect x="6" y="46" width="368" height="124" fill="#f8f1df" stroke="#0d0c08" stroke-width="0"></rect><rect x="30" y="70" width="320" height="76" fill="#cabf9f" stroke="#0d0c08" stroke-width="1.5"></rect><rect x="30" y="70" width="320" height="76" fill="none" stroke="#0d0c08" stroke-width="1.5"></rect><text x="190" y="108" text-anchor="middle" dominant-baseline="central" font-family="Georgia, &quot;Times New Roman&quot;, serif" font-size="20" fill="#1b1810">1 whole (target: 6 equal parts)</text></g><text x="490" y="64" text-anchor="middle" font-family="system-ui,sans-serif" font-size="15" font-weight="700" fill="#1b1810">apply partition</text><text x="490" y="84" text-anchor="middle" font-family="system-ui,sans-serif" font-size="11" fill="#5a5446">Partition the bar into parts of different sizes…</text><g transform="translate(335.10869565217394 120.95652173913044) scale(0.8152173913043478)"><rect x="6" y="46" width="368" height="124" fill="#f8f1df" stroke="#0d0c08" stroke-width="0"></rect><rect x="30" y="70" width="320" height="76" fill="#cabf9f" stroke="#0d0c08" stroke-width="1.5"></rect><rect x="30" y="70" width="69.1358024691358" height="76" fill="#d4a747" stroke="#0d0c08" stroke-width="0.75"></rect><rect x="99.1358024691358" y="70" width="53.333333333333336" height="76" fill="#d4a747" stroke="#0d0c08" stroke-width="0.75"></rect><rect x="152.46913580246914" y="70" width="37.53086419753086" height="76" fill="#d4a747" stroke="#0d0c08" stroke-width="0.75"></rect><rect x="190" y="70" width="37.53086419753086" height="76" fill="#d4a747" stroke="#0d0c08" stroke-width="0.75"></rect><rect x="227.53086419753086" y="70" width="53.333333333333336" height="76" fill="#d4a747" stroke="#0d0c08" stroke-width="0.75"></rect><rect x="280.8641975308642" y="70" width="69.1358024691358" height="76" fill="#d4a747" stroke="#0d0c08" stroke-width="0.75"></rect><rect x="30" y="70" width="320" height="76" fill="none" stroke="#0d0c08" stroke-width="1.5"></rect><text x="190" y="108" text-anchor="middle" dominant-baseline="central" font-family="Georgia, &quot;Times New Roman&quot;, serif" font-size="20" fill="#1b1810">6 unequal parts (no equipartition)</text></g><text x="808" y="64" text-anchor="middle" font-family="system-ui,sans-serif" font-size="15" font-weight="700" fill="#1b1810">shade parts</text><text x="808" y="84" text-anchor="middle" font-family="system-ui,sans-serif" font-size="11" fill="#5a5446">Shade some parts. Because the parts are unequal…</text><g transform="translate(653.1086956521739 120.95652173913044) scale(0.8152173913043478)"><rect x="6" y="46" width="368" height="124" fill="#f8f1df" stroke="#0d0c08" stroke-width="0"></rect><rect x="30" y="70" width="320" height="76" fill="#cabf9f" stroke="#0d0c08" stroke-width="1.5"></rect><rect x="30" y="70" width="69.1358024691358" height="76" fill="#b95238" stroke="#0d0c08" stroke-width="0.75"></rect><rect x="99.1358024691358" y="70" width="53.333333333333336" height="76" fill="#d4a747" stroke="#0d0c08" stroke-width="0.75"></rect><rect x="152.46913580246914" y="70" width="37.53086419753086" height="76" fill="#d4a747" stroke="#0d0c08" stroke-width="0.75"></rect><rect x="190" y="70" width="37.53086419753086" height="76" fill="#d4a747" stroke="#0d0c08" stroke-width="0.75"></rect><rect x="227.53086419753086" y="70" width="53.333333333333336" height="76" fill="#d4a747" stroke="#0d0c08" stroke-width="0.75"></rect><rect x="280.8641975308642" y="70" width="69.1358024691358" height="76" fill="#d4a747" stroke="#0d0c08" stroke-width="0.75"></rect><rect x="30" y="70" width="320" height="76" fill="none" stroke="#0d0c08" stroke-width="1.5"></rect><text x="190" y="108" text-anchor="middle" dominant-baseline="central" font-family="Georgia, &quot;Times New Roman&quot;, serif" font-size="20" fill="#1b1810">shaded 1 of 6 unequal parts: not 1/6</text></g></svg>
