<svg xmlns="http://www.w3.org/2000/svg" viewBox="0 0 980 340" role="img" aria-label="WATCH FOR: equipartition_failure(unequal_partition) of 1/6 on a circle"><rect x="0" y="0" width="980" height="340" fill="#f8f1df"/><text x="490" y="28" text-anchor="middle" font-family="Georgia, 'Times New Roman', serif" font-size="20" font-weight="700" fill="#1b1810">WATCH FOR: equipartition_failure(unequal_partition) of 1/6 on a circle</text><text x="172" y="64" text-anchor="middle" font-family="system-ui,sans-serif" font-size="15" font-weight="700" fill="#1b1810">establish whole</text><text x="172" y="84" text-anchor="middle" font-family="system-ui,sans-serif" font-size="11" fill="#5a5446">Establish the whole. One region, not yet partit…</text><g transform="translate(50.425925925925924 106.12962962962963) scale(0.9351851851851852)"><rect x="22" y="2" width="216" height="216" fill="#f8f1df" stroke="#0d0c08" stroke-width="0"></rect><circle cx="130" cy="110" r="84" fill="#cabf9f" stroke="#0d0c08" stroke-width="1.5"></circle><text x="130" y="216" text-anchor="middle" dominant-baseline="central" font-family="Georgia, &quot;Times New Roman&quot;, serif" font-size="14" fill="#1b1810">1 whole (target: thirds-style 6 equal parts)</text></g><text x="490" y="64" text-anchor="middle" font-family="system-ui,sans-serif" font-size="15" font-weight="700" fill="#1b1810">apply partition</text><text x="490" y="84" text-anchor="middle" font-family="system-ui,sans-serif" font-size="11" fill="#5a5446">Cut the circle with equal-width vertical strips…</text><g transform="translate(368.4259259259259 106.12962962962963) scale(0.9351851851851852)"><rect x="22" y="2" width="216" height="216" fill="#f8f1df" stroke="#0d0c08" stroke-width="0"></rect><circle cx="130" cy="110" r="84" fill="#cabf9f" stroke="#0d0c08" stroke-width="1.5"></circle><text x="130" y="216" text-anchor="middle" dominant-baseline="central" font-family="Georgia, &quot;Times New Roman&quot;, serif" font-size="14" fill="#1b1810">circle</text><line x1="74" y1="47.390096630005885" x2="74" y2="172.60990336999413" stroke="#b95238" stroke-width="2.4" stroke-dasharray="9 5"></line><line x1="102" y1="30.804040507106677" x2="102" y2="189.19595949289334" stroke="#b95238" stroke-width="2.4" stroke-dasharray="9 5"></line><line x1="130" y1="26" x2="130" y2="194" stroke="#b95238" stroke-width="2.4" stroke-dasharray="9 5"></line><line x1="158" y1="30.804040507106677" x2="158" y2="189.19595949289334" stroke="#b95238" stroke-width="2.4" stroke-dasharray="9 5"></line><line x1="186" y1="47.390096630005885" x2="186" y2="172.60990336999413" stroke="#b95238" stroke-width="2.4" stroke-dasharray="9 5"></line><text x="130" y="6" text-anchor="middle" dominant-baseline="central" font-family="Georgia, &quot;Times New Roman&quot;, serif" font-size="13" fill="#1b1810">6 vertical strips: equal WIDTH, unequal AREA</text></g><text x="808" y="64" text-anchor="middle" font-family="system-ui,sans-serif" font-size="15" font-weight="700" fill="#1b1810">shade parts</text><text x="808" y="84" text-anchor="middle" font-family="system-ui,sans-serif" font-size="11" fill="#5a5446">Shade some strips. Because the strips are unequ…</text><g transform="translate(686.4259259259259 106.12962962962963) scale(0.9351851851851852)"><rect x="22" y="2" width="216" height="216" fill="#f8f1df" stroke="#0d0c08" stroke-width="0"></rect><circle cx="130" cy="110" r="84" fill="#cabf9f" stroke="#0d0c08" stroke-width="1.5"></circle><text x="130" y="216" text-anchor="middle" dominant-baseline="central" font-family="Georgia, &quot;Times New Roman&quot;, serif" font-size="14" fill="#1b1810">circle</text><polygon points="46,110 48.333333333333336,90.33898386258845 50.666666666666664,82.39162767886849 53,76.42917933681096 55.33333333333333,71.51768082756851 57.66666666666667,67.2929878253127 60,63.5672529350244 62.333333333333336,60.22829898202972 64.66666666666666,57.20269367140446 67,54.439222467643596 69.33333333333334,51.90046854271924 71.66666666666666,49.55810871405312 74,47.390096630005885 74,172.60990336999413 71.66666666666666,170.4418912859469 69.33333333333334,168.09953145728076 67,165.5607775323564 64.66666666666666,162.79730632859554 62.333333333333336,159.7717010179703 60,156.43274706497562 57.66666666666667,152.7070121746873 55.33333333333333,148.4823191724315 53,143.57082066318904 50.666666666666664,137.60837232113153 48.333333333333336,129.66101613741154 46,110" fill="#b95238" opacity="0.55" stroke="none"></polygon><line x1="74" y1="47.390096630005885" x2="74" y2="172.60990336999413" stroke="#b95238" stroke-width="2.4" stroke-dasharray="9 5"></line><line x1="102" y1="30.804040507106677" x2="102" y2="189.19595949289334" stroke="#b95238" stroke-width="2.4" stroke-dasharray="9 5"></line><line x1="130" y1="26" x2="130" y2="194" stroke="#b95238" stroke-width="2.4" stroke-dasharray="9 5"></line><line x1="158" y1="30.804040507106677" x2="158" y2="189.19595949289334" stroke="#b95238" stroke-width="2.4" stroke-dasharray="9 5"></line><line x1="186" y1="47.390096630005885" x2="186" y2="172.60990336999413" stroke="#b95238" stroke-width="2.4" stroke-dasharray="9 5"></line><text x="130" y="6" text-anchor="middle" dominant-baseline="central" font-family="Georgia, &quot;Times New Roman&quot;, serif" font-size="13" fill="#1b1810">shaded 1 of 6 unequal strips: not 1/6</text></g></svg>
