<svg xmlns="http://www.w3.org/2000/svg" viewBox="0 0 980 340" role="img" aria-label="WATCH FOR: equipartition_failure(unequal_partition) of 1/3 on a circle"><rect x="0" y="0" width="980" height="340" fill="#f8f1df"/><text x="490" y="28" text-anchor="middle" font-family="Georgia, 'Times New Roman', serif" font-size="20" font-weight="700" fill="#1b1810">WATCH FOR: equipartition_failure(unequal_partition) of 1/3 on a circle</text><text x="172" y="64" text-anchor="middle" font-family="system-ui,sans-serif" font-size="15" font-weight="700" fill="#1b1810">establish whole</text><text x="172" y="84" text-anchor="middle" font-family="system-ui,sans-serif" font-size="11" fill="#5a5446">Establish the whole. One region, not yet partit…</text><g transform="translate(50.425925925925924 106.12962962962963) scale(0.9351851851851852)"><rect x="22" y="2" width="216" height="216" fill="#f8f1df" stroke="#0d0c08" stroke-width="0"></rect><circle cx="130" cy="110" r="84" fill="#cabf9f" stroke="#0d0c08" stroke-width="1.5"></circle><text x="130" y="216" text-anchor="middle" dominant-baseline="central" font-family="Georgia, &quot;Times New Roman&quot;, serif" font-size="14" fill="#1b1810">1 whole (target: thirds-style 3 equal parts)</text></g><text x="490" y="64" text-anchor="middle" font-family="system-ui,sans-serif" font-size="15" font-weight="700" fill="#1b1810">apply partition</text><text x="490" y="84" text-anchor="middle" font-family="system-ui,sans-serif" font-size="11" fill="#5a5446">Cut the circle with equal-width vertical strips…</text><g transform="translate(368.4259259259259 106.12962962962963) scale(0.9351851851851852)"><rect x="22" y="2" width="216" height="216" fill="#f8f1df" stroke="#0d0c08" stroke-width="0"></rect><circle cx="130" cy="110" r="84" fill="#cabf9f" stroke="#0d0c08" stroke-width="1.5"></circle><text x="130" y="216" text-anchor="middle" dominant-baseline="central" font-family="Georgia, &quot;Times New Roman&quot;, serif" font-size="14" fill="#1b1810">circle</text><line x1="102" y1="30.804040507106677" x2="102" y2="189.19595949289334" stroke="#b95238" stroke-width="2.4" stroke-dasharray="9 5"></line><line x1="158" y1="30.804040507106677" x2="158" y2="189.19595949289334" stroke="#b95238" stroke-width="2.4" stroke-dasharray="9 5"></line><text x="130" y="6" text-anchor="middle" dominant-baseline="central" font-family="Georgia, &quot;Times New Roman&quot;, serif" font-size="13" fill="#1b1810">3 vertical strips: equal WIDTH, unequal AREA</text></g><text x="808" y="64" text-anchor="middle" font-family="system-ui,sans-serif" font-size="15" font-weight="700" fill="#1b1810">shade parts</text><text x="808" y="84" text-anchor="middle" font-family="system-ui,sans-serif" font-size="11" fill="#5a5446">Shade some strips. Because the strips are unequ…</text><g transform="translate(686.4259259259259 106.12962962962963) scale(0.9351851851851852)"><rect x="22" y="2" width="216" height="216" fill="#f8f1df" stroke="#0d0c08" stroke-width="0"></rect><circle cx="130" cy="110" r="84" fill="#cabf9f" stroke="#0d0c08" stroke-width="1.5"></circle><text x="130" y="216" text-anchor="middle" dominant-baseline="central" font-family="Georgia, &quot;Times New Roman&quot;, serif" font-size="14" fill="#1b1810">circle</text><polygon points="46,110 50.666666666666664,82.39162767886849 55.33333333333333,71.51768082756851 60,63.5672529350244 64.66666666666666,57.20269367140446 69.33333333333334,51.90046854271924 74,47.390096630005885 78.66666666666667,43.51023470571663 83.33333333333333,40.15572878021976 88,37.25386608210715 92.66666666666667,34.752261015880194 97.33333333333333,32.612088225040665 102,30.804040507106677 102,189.19595949289334 97.33333333333333,187.38791177495932 92.66666666666667,185.2477389841198 88,182.74613391789285 83.33333333333333,179.84427121978024 78.66666666666667,176.48976529428336 74,172.60990336999413 69.33333333333334,168.09953145728076 64.66666666666666,162.79730632859554 60,156.43274706497562 55.33333333333333,148.4823191724315 50.666666666666664,137.60837232113153 46,110" fill="#b95238" opacity="0.55" stroke="none"></polygon><line x1="102" y1="30.804040507106677" x2="102" y2="189.19595949289334" stroke="#b95238" stroke-width="2.4" stroke-dasharray="9 5"></line><line x1="158" y1="30.804040507106677" x2="158" y2="189.19595949289334" stroke="#b95238" stroke-width="2.4" stroke-dasharray="9 5"></line><text x="130" y="6" text-anchor="middle" dominant-baseline="central" font-family="Georgia, &quot;Times New Roman&quot;, serif" font-size="13" fill="#1b1810">shaded 1 of 3 unequal strips: not 1/3</text></g></svg>
