<svg xmlns="http://www.w3.org/2000/svg" viewBox="0 0 1298 340" role="img" aria-label="WATCH FOR: transplant(vertical) of 1/2 on a circle"><rect x="0" y="0" width="1298" height="340" fill="#f8f1df"/><text x="649" y="28" text-anchor="middle" font-family="Georgia, 'Times New Roman', serif" font-size="20" font-weight="700" fill="#1b1810">WATCH FOR: transplant(vertical) of 1/2 on a circle</text><text x="172" y="64" text-anchor="middle" font-family="system-ui,sans-serif" font-size="15" font-weight="700" fill="#1b1810">establish whole</text><text x="172" y="84" text-anchor="middle" font-family="system-ui,sans-serif" font-size="11" fill="#5a5446">Choose a circle as the host.</text><g transform="translate(-48.67226890756302 55.378151260504204) scale(0.8487394957983193)"><rect x="86" y="62" width="348" height="238" fill="#f8f1df" stroke="#0d0c08" stroke-width="0"></rect><circle cx="260" cy="181" r="94" fill="#cabf9f" stroke="#0d0c08" stroke-width="1.5"></circle><text x="260" y="297" text-anchor="middle" dominant-baseline="central" font-family="Georgia, &quot;Times New Roman&quot;, serif" font-size="14" fill="#1b1810">one whole</text></g><text x="490" y="64" text-anchor="middle" font-family="system-ui,sans-serif" font-size="15" font-weight="700" fill="#1b1810">licensed home</text><text x="490" y="84" text-anchor="middle" font-family="system-ui,sans-serif" font-size="11" fill="#5a5446">The vertical-strip partition rule is licensed i…</text><g transform="translate(269.32773109243703 55.378151260504204) scale(0.8487394957983193)"><rect x="86" y="62" width="348" height="238" fill="#f8f1df" stroke="#0d0c08" stroke-width="0"></rect><rect x="110" y="86" width="300" height="190" fill="#cabf9f" stroke="#0d0c08" stroke-width="1.25"></rect><rect x="110" y="86" width="300" height="190" fill="none" stroke="#0d0c08" stroke-width="1.75"></rect><text x="260" y="298" text-anchor="middle" dominant-baseline="central" font-family="Georgia, &quot;Times New Roman&quot;, serif" font-size="14" fill="#1b1810">one whole</text><rect x="110" y="86" width="150" height="190" fill="#d4a747" opacity="0.42" stroke="none"></rect><line x1="260" y1="86" x2="260" y2="276" stroke="#d4a747" stroke-width="1.4"></line></g><text x="808" y="64" text-anchor="middle" font-family="system-ui,sans-serif" font-size="15" font-weight="700" fill="#1b1810">apply foreign partition</text><text x="808" y="84" text-anchor="middle" font-family="system-ui,sans-serif" font-size="11" fill="#5a5446">Transplant the vertical-strip partition rule on…</text><g transform="translate(587.327731092437 55.378151260504204) scale(0.8487394957983193)"><rect x="86" y="62" width="348" height="238" fill="#f8f1df" stroke="#0d0c08" stroke-width="0"></rect><circle cx="260" cy="181" r="94" fill="#cabf9f" stroke="#0d0c08" stroke-width="1.5"></circle><text x="260" y="297" text-anchor="middle" dominant-baseline="central" font-family="Georgia, &quot;Times New Roman&quot;, serif" font-size="14" fill="#1b1810">one whole</text><polygon points="166,181 173.83333333333334,143.43265306738368 181.66666666666666,129.03954495109875 189.5,118.82484418998212 197.33333333333334,110.93653670500657 205.16666666666669,104.6501109656631 213,99.59361204426277 220.83333333333334,95.54842176868691 228.66666666666666,92.37595009128604 236.5,89.9848913641257 244.33333333333334,88.31475006477268 252.16666666666666,87.32695751237239 260,87 260,275 252.16666666666666,274.67304248762764 244.33333333333334,273.6852499352273 236.5,272.0151086358743 228.66666666666666,269.62404990871397 220.83333333333334,266.4515782313131 213,262.4063879557372 205.16666666666669,257.3498890343369 197.33333333333334,251.06346329499343 189.5,243.17515581001788 181.66666666666666,232.96045504890125 173.83333333333334,218.56734693261632 166,181" fill="#b95238" opacity="0.55" stroke="none"></polygon><line x1="260" y1="87" x2="260" y2="275" stroke="#b95238" stroke-width="2.4" stroke-dasharray="9 5"></line></g><text x="1126" y="64" text-anchor="middle" font-family="system-ui,sans-serif" font-size="15" font-weight="700" fill="#1b1810">hybrid result</text><text x="1126" y="84" text-anchor="middle" font-family="system-ui,sans-serif" font-size="11" fill="#5a5446">Hybridized model of 1/2: a foreign partition ru…</text><g transform="translate(905.327731092437 55.378151260504204) scale(0.8487394957983193)"><rect x="86" y="62" width="348" height="238" fill="#f8f1df" stroke="#0d0c08" stroke-width="0"></rect><circle cx="260" cy="181" r="94" fill="#cabf9f" stroke="#0d0c08" stroke-width="1.5"></circle><text x="260" y="297" text-anchor="middle" dominant-baseline="central" font-family="Georgia, &quot;Times New Roman&quot;, serif" font-size="14" fill="#1b1810">one whole</text><polygon points="166,181 173.83333333333334,143.43265306738368 181.66666666666666,129.03954495109875 189.5,118.82484418998212 197.33333333333334,110.93653670500657 205.16666666666669,104.6501109656631 213,99.59361204426277 220.83333333333334,95.54842176868691 228.66666666666666,92.37595009128604 236.5,89.9848913641257 244.33333333333334,88.31475006477268 252.16666666666666,87.32695751237239 260,87 260,275 252.16666666666666,274.67304248762764 244.33333333333334,273.6852499352273 236.5,272.0151086358743 228.66666666666666,269.62404990871397 220.83333333333334,266.4515782313131 213,262.4063879557372 205.16666666666669,257.3498890343369 197.33333333333334,251.06346329499343 189.5,243.17515581001788 181.66666666666666,232.96045504890125 173.83333333333334,218.56734693261632 166,181" fill="#b95238" opacity="0.55" stroke="none"></polygon><line x1="260" y1="87" x2="260" y2="275" stroke="#b95238" stroke-width="2.4" stroke-dasharray="9 5"></line></g></svg>
