<svg xmlns="http://www.w3.org/2000/svg" viewBox="0 0 980 340" role="img" aria-label="WATCH FOR: equipartition_failure(unequal_partition) of 1/8 on a circle"><rect x="0" y="0" width="980" height="340" fill="#f8f1df"/><text x="490" y="28" text-anchor="middle" font-family="Georgia, 'Times New Roman', serif" font-size="20" font-weight="700" fill="#1b1810">WATCH FOR: equipartition_failure(unequal_partition) of 1/8 on a circle</text><text x="172" y="64" text-anchor="middle" font-family="system-ui,sans-serif" font-size="15" font-weight="700" fill="#1b1810">establish whole</text><text x="172" y="84" text-anchor="middle" font-family="system-ui,sans-serif" font-size="11" fill="#5a5446">Establish the whole. One region, not yet partit…</text><g transform="translate(50.425925925925924 106.12962962962963) scale(0.9351851851851852)"><rect x="22" y="2" width="216" height="216" fill="#f8f1df" stroke="#0d0c08" stroke-width="0"></rect><circle cx="130" cy="110" r="84" fill="#cabf9f" stroke="#0d0c08" stroke-width="1.5"></circle><text x="130" y="216" text-anchor="middle" dominant-baseline="central" font-family="Georgia, &quot;Times New Roman&quot;, serif" font-size="14" fill="#1b1810">1 whole (target: thirds-style 8 equal parts)</text></g><text x="490" y="64" text-anchor="middle" font-family="system-ui,sans-serif" font-size="15" font-weight="700" fill="#1b1810">apply partition</text><text x="490" y="84" text-anchor="middle" font-family="system-ui,sans-serif" font-size="11" fill="#5a5446">Cut the circle with equal-width vertical strips…</text><g transform="translate(368.4259259259259 106.12962962962963) scale(0.9351851851851852)"><rect x="22" y="2" width="216" height="216" fill="#f8f1df" stroke="#0d0c08" stroke-width="0"></rect><circle cx="130" cy="110" r="84" fill="#cabf9f" stroke="#0d0c08" stroke-width="1.5"></circle><text x="130" y="216" text-anchor="middle" dominant-baseline="central" font-family="Georgia, &quot;Times New Roman&quot;, serif" font-size="14" fill="#1b1810">circle</text><line x1="67" y1="54.439222467643596" x2="67" y2="165.5607775323564" stroke="#b95238" stroke-width="2.4" stroke-dasharray="9 5"></line><line x1="88" y1="37.25386608210715" x2="88" y2="182.74613391789285" stroke="#b95238" stroke-width="2.4" stroke-dasharray="9 5"></line><line x1="109" y1="28.667349729644243" x2="109" y2="191.33265027035577" stroke="#b95238" stroke-width="2.4" stroke-dasharray="9 5"></line><line x1="130" y1="26" x2="130" y2="194" stroke="#b95238" stroke-width="2.4" stroke-dasharray="9 5"></line><line x1="151" y1="28.667349729644243" x2="151" y2="191.33265027035577" stroke="#b95238" stroke-width="2.4" stroke-dasharray="9 5"></line><line x1="172" y1="37.25386608210715" x2="172" y2="182.74613391789285" stroke="#b95238" stroke-width="2.4" stroke-dasharray="9 5"></line><line x1="193" y1="54.439222467643596" x2="193" y2="165.5607775323564" stroke="#b95238" stroke-width="2.4" stroke-dasharray="9 5"></line><text x="130" y="6" text-anchor="middle" dominant-baseline="central" font-family="Georgia, &quot;Times New Roman&quot;, serif" font-size="13" fill="#1b1810">8 vertical strips: equal WIDTH, unequal AREA</text></g><text x="808" y="64" text-anchor="middle" font-family="system-ui,sans-serif" font-size="15" font-weight="700" fill="#1b1810">shade parts</text><text x="808" y="84" text-anchor="middle" font-family="system-ui,sans-serif" font-size="11" fill="#5a5446">Shade some strips. Because the strips are unequ…</text><g transform="translate(686.4259259259259 106.12962962962963) scale(0.9351851851851852)"><rect x="22" y="2" width="216" height="216" fill="#f8f1df" stroke="#0d0c08" stroke-width="0"></rect><circle cx="130" cy="110" r="84" fill="#cabf9f" stroke="#0d0c08" stroke-width="1.5"></circle><text x="130" y="216" text-anchor="middle" dominant-baseline="central" font-family="Georgia, &quot;Times New Roman&quot;, serif" font-size="14" fill="#1b1810">circle</text><polygon points="46,110 47.75,92.94310989658432 49.5,86.00520889859635 51.25,80.76923709514239 53,76.42917933681096 54.75,72.6712242365223 56.5,69.33367486482211 58.25,66.3200560897796 60,63.5672529350244 61.75,61.031259971283724 63.5,58.67992595484687 65.25,56.488903020027706 67,54.439222467643596 67,165.5607775323564 65.25,163.5110969799723 63.5,161.32007404515312 61.75,158.96874002871627 60,156.43274706497562 58.25,153.6799439102204 56.5,150.66632513517789 54.75,147.3287757634777 53,143.57082066318904 51.25,139.2307629048576 49.5,133.99479110140365 47.75,127.05689010341568 46,110" fill="#b95238" opacity="0.55" stroke="none"></polygon><line x1="67" y1="54.439222467643596" x2="67" y2="165.5607775323564" stroke="#b95238" stroke-width="2.4" stroke-dasharray="9 5"></line><line x1="88" y1="37.25386608210715" x2="88" y2="182.74613391789285" stroke="#b95238" stroke-width="2.4" stroke-dasharray="9 5"></line><line x1="109" y1="28.667349729644243" x2="109" y2="191.33265027035577" stroke="#b95238" stroke-width="2.4" stroke-dasharray="9 5"></line><line x1="130" y1="26" x2="130" y2="194" stroke="#b95238" stroke-width="2.4" stroke-dasharray="9 5"></line><line x1="151" y1="28.667349729644243" x2="151" y2="191.33265027035577" stroke="#b95238" stroke-width="2.4" stroke-dasharray="9 5"></line><line x1="172" y1="37.25386608210715" x2="172" y2="182.74613391789285" stroke="#b95238" stroke-width="2.4" stroke-dasharray="9 5"></line><line x1="193" y1="54.439222467643596" x2="193" y2="165.5607775323564" stroke="#b95238" stroke-width="2.4" stroke-dasharray="9 5"></line><text x="130" y="6" text-anchor="middle" dominant-baseline="central" font-family="Georgia, &quot;Times New Roman&quot;, serif" font-size="13" fill="#1b1810">shaded 1 of 8 unequal strips: not 1/8</text></g></svg>
