<svg xmlns="http://www.w3.org/2000/svg" viewBox="0 0 1298 340" role="img" aria-label="WATCH FOR: transplant(vertical) of 1/6 on a circle"><rect x="0" y="0" width="1298" height="340" fill="#f8f1df"/><text x="649" y="28" text-anchor="middle" font-family="Georgia, 'Times New Roman', serif" font-size="20" font-weight="700" fill="#1b1810">WATCH FOR: transplant(vertical) of 1/6 on a circle</text><text x="172" y="64" text-anchor="middle" font-family="system-ui,sans-serif" font-size="15" font-weight="700" fill="#1b1810">establish whole</text><text x="172" y="84" text-anchor="middle" font-family="system-ui,sans-serif" font-size="11" fill="#5a5446">Choose a circle as the host.</text><g transform="translate(-48.67226890756302 55.378151260504204) scale(0.8487394957983193)"><rect x="86" y="62" width="348" height="238" fill="#f8f1df" stroke="#0d0c08" stroke-width="0"></rect><circle cx="260" cy="181" r="94" fill="#cabf9f" stroke="#0d0c08" stroke-width="1.5"></circle><text x="260" y="297" text-anchor="middle" dominant-baseline="central" font-family="Georgia, &quot;Times New Roman&quot;, serif" font-size="14" fill="#1b1810">one whole</text></g><text x="490" y="64" text-anchor="middle" font-family="system-ui,sans-serif" font-size="15" font-weight="700" fill="#1b1810">licensed home</text><text x="490" y="84" text-anchor="middle" font-family="system-ui,sans-serif" font-size="11" fill="#5a5446">The vertical-strip partition rule is licensed i…</text><g transform="translate(269.32773109243703 55.378151260504204) scale(0.8487394957983193)"><rect x="86" y="62" width="348" height="238" fill="#f8f1df" stroke="#0d0c08" stroke-width="0"></rect><rect x="110" y="86" width="300" height="190" fill="#cabf9f" stroke="#0d0c08" stroke-width="1.25"></rect><rect x="110" y="86" width="300" height="190" fill="none" stroke="#0d0c08" stroke-width="1.75"></rect><text x="260" y="298" text-anchor="middle" dominant-baseline="central" font-family="Georgia, &quot;Times New Roman&quot;, serif" font-size="14" fill="#1b1810">one whole</text><rect x="110" y="86" width="50" height="190" fill="#d4a747" opacity="0.42" stroke="none"></rect><line x1="160" y1="86" x2="160" y2="276" stroke="#d4a747" stroke-width="1.4"></line><line x1="210" y1="86" x2="210" y2="276" stroke="#d4a747" stroke-width="1.4"></line><line x1="260" y1="86" x2="260" y2="276" stroke="#d4a747" stroke-width="1.4"></line><line x1="310" y1="86" x2="310" y2="276" stroke="#d4a747" stroke-width="1.4"></line><line x1="360" y1="86" x2="360" y2="276" stroke="#d4a747" stroke-width="1.4"></line></g><text x="808" y="64" text-anchor="middle" font-family="system-ui,sans-serif" font-size="15" font-weight="700" fill="#1b1810">apply foreign partition</text><text x="808" y="84" text-anchor="middle" font-family="system-ui,sans-serif" font-size="11" fill="#5a5446">Transplant the vertical-strip partition rule on…</text><g transform="translate(587.327731092437 55.378151260504204) scale(0.8487394957983193)"><rect x="86" y="62" width="348" height="238" fill="#f8f1df" stroke="#0d0c08" stroke-width="0"></rect><circle cx="260" cy="181" r="94" fill="#cabf9f" stroke="#0d0c08" stroke-width="1.5"></circle><text x="260" y="297" text-anchor="middle" dominant-baseline="central" font-family="Georgia, &quot;Times New Roman&quot;, serif" font-size="14" fill="#1b1810">one whole</text><polygon points="166,181 168.61111111111111,158.9983867033728 171.22222222222223,150.10491668825753 173.83333333333334,143.43265306738368 176.44444444444446,137.93645235465996 179.05555555555557,133.2088197092785 181.66666666666669,129.03954495109872 184.27777777777777,125.30309647989043 186.88888888888889,121.91730006085737 189.5,118.82484418998212 192.11111111111111,115.98385765494773 194.72222222222223,113.3626454657261 197.33333333333334,110.93653670500657 197.33333333333334,251.06346329499343 194.72222222222223,248.6373545342739 192.11111111111111,246.0161423450523 189.5,243.17515581001788 186.88888888888889,240.08269993914263 184.27777777777777,236.69690352010957 181.66666666666669,232.96045504890128 179.05555555555557,228.7911802907215 176.44444444444446,224.06354764534004 173.83333333333334,218.56734693261632 171.22222222222223,211.89508331174247 168.61111111111111,203.0016132966272 166,181" fill="#b95238" opacity="0.55" stroke="none"></polygon><line x1="197.33333333333334" y1="110.93653670500657" x2="197.33333333333334" y2="251.06346329499343" stroke="#b95238" stroke-width="2.4" stroke-dasharray="9 5"></line><line x1="228.66666666666666" y1="92.37595009128604" x2="228.66666666666666" y2="269.62404990871397" stroke="#b95238" stroke-width="2.4" stroke-dasharray="9 5"></line><line x1="260" y1="87" x2="260" y2="275" stroke="#b95238" stroke-width="2.4" stroke-dasharray="9 5"></line><line x1="291.3333333333333" y1="92.37595009128604" x2="291.3333333333333" y2="269.62404990871397" stroke="#b95238" stroke-width="2.4" stroke-dasharray="9 5"></line><line x1="322.66666666666663" y1="110.93653670500655" x2="322.66666666666663" y2="251.06346329499345" stroke="#b95238" stroke-width="2.4" stroke-dasharray="9 5"></line></g><text x="1126" y="64" text-anchor="middle" font-family="system-ui,sans-serif" font-size="15" font-weight="700" fill="#1b1810">hybrid result</text><text x="1126" y="84" text-anchor="middle" font-family="system-ui,sans-serif" font-size="11" fill="#5a5446">Hybridized model of 1/6: a foreign partition ru…</text><g transform="translate(905.327731092437 55.378151260504204) scale(0.8487394957983193)"><rect x="86" y="62" width="348" height="238" fill="#f8f1df" stroke="#0d0c08" stroke-width="0"></rect><circle cx="260" cy="181" r="94" fill="#cabf9f" stroke="#0d0c08" stroke-width="1.5"></circle><text x="260" y="297" text-anchor="middle" dominant-baseline="central" font-family="Georgia, &quot;Times New Roman&quot;, serif" font-size="14" fill="#1b1810">one whole</text><polygon points="166,181 168.61111111111111,158.9983867033728 171.22222222222223,150.10491668825753 173.83333333333334,143.43265306738368 176.44444444444446,137.93645235465996 179.05555555555557,133.2088197092785 181.66666666666669,129.03954495109872 184.27777777777777,125.30309647989043 186.88888888888889,121.91730006085737 189.5,118.82484418998212 192.11111111111111,115.98385765494773 194.72222222222223,113.3626454657261 197.33333333333334,110.93653670500657 197.33333333333334,251.06346329499343 194.72222222222223,248.6373545342739 192.11111111111111,246.0161423450523 189.5,243.17515581001788 186.88888888888889,240.08269993914263 184.27777777777777,236.69690352010957 181.66666666666669,232.96045504890128 179.05555555555557,228.7911802907215 176.44444444444446,224.06354764534004 173.83333333333334,218.56734693261632 171.22222222222223,211.89508331174247 168.61111111111111,203.0016132966272 166,181" fill="#b95238" opacity="0.55" stroke="none"></polygon><line x1="197.33333333333334" y1="110.93653670500657" x2="197.33333333333334" y2="251.06346329499343" stroke="#b95238" stroke-width="2.4" stroke-dasharray="9 5"></line><line x1="228.66666666666666" y1="92.37595009128604" x2="228.66666666666666" y2="269.62404990871397" stroke="#b95238" stroke-width="2.4" stroke-dasharray="9 5"></line><line x1="260" y1="87" x2="260" y2="275" stroke="#b95238" stroke-width="2.4" stroke-dasharray="9 5"></line><line x1="291.3333333333333" y1="92.37595009128604" x2="291.3333333333333" y2="269.62404990871397" stroke="#b95238" stroke-width="2.4" stroke-dasharray="9 5"></line><line x1="322.66666666666663" y1="110.93653670500655" x2="322.66666666666663" y2="251.06346329499345" stroke="#b95238" stroke-width="2.4" stroke-dasharray="9 5"></line></g></svg>
