<svg xmlns="http://www.w3.org/2000/svg" viewBox="0 0 980 340" role="img" aria-label="WATCH FOR: equipartition_failure(miscount_partition) of 1/6 on a rectangle"><rect x="0" y="0" width="980" height="340" fill="#f8f1df"/><text x="490" y="28" text-anchor="middle" font-family="Georgia, 'Times New Roman', serif" font-size="20" font-weight="700" fill="#1b1810">WATCH FOR: equipartition_failure(miscount_partition) of 1/6 on a rectangle</text><text x="172" y="64" text-anchor="middle" font-family="system-ui,sans-serif" font-size="15" font-weight="700" fill="#1b1810">establish whole</text><text x="172" y="84" text-anchor="middle" font-family="system-ui,sans-serif" font-size="11" fill="#5a5446">Establish the whole region. One area, not yet p…</text><g transform="translate(15.28358208955224 80.26865671641792) scale(1.1194029850746268)"><rect x="6" y="36" width="268" height="158" fill="#f8f1df" stroke="#0d0c08" stroke-width="0"></rect><rect x="30" y="60" width="220" height="110" fill="#cabf9f" stroke="#0d0c08" stroke-width="1.5"></rect><rect x="30" y="60" width="220" height="110" fill="none" stroke="#0d0c08" stroke-width="1.5"></rect><text x="140" y="115" text-anchor="middle" dominant-baseline="central" font-family="Georgia, &quot;Times New Roman&quot;, serif" font-size="22" fill="#1b1810">1 whole (target: 6 equal parts)</text></g><text x="490" y="64" text-anchor="middle" font-family="system-ui,sans-serif" font-size="15" font-weight="700" fill="#1b1810">apply partition</text><text x="490" y="84" text-anchor="middle" font-family="system-ui,sans-serif" font-size="11" fill="#5a5446">Partition the region into equal parts, but make…</text><g transform="translate(333.2835820895522 80.26865671641792) scale(1.1194029850746268)"><rect x="6" y="36" width="268" height="158" fill="#f8f1df" stroke="#0d0c08" stroke-width="0"></rect><rect x="30" y="60" width="220" height="110" fill="#cabf9f" stroke="#0d0c08" stroke-width="1.5"></rect><line x1="61.42857142857143" y1="60" x2="61.42857142857143" y2="170" stroke="#0d0c08" stroke-width="0.5"></line><line x1="92.85714285714286" y1="60" x2="92.85714285714286" y2="170" stroke="#0d0c08" stroke-width="0.5"></line><line x1="124.28571428571428" y1="60" x2="124.28571428571428" y2="170" stroke="#0d0c08" stroke-width="0.5"></line><line x1="155.71428571428572" y1="60" x2="155.71428571428572" y2="170" stroke="#0d0c08" stroke-width="0.5"></line><line x1="187.14285714285714" y1="60" x2="187.14285714285714" y2="170" stroke="#0d0c08" stroke-width="0.5"></line><line x1="218.57142857142856" y1="60" x2="218.57142857142856" y2="170" stroke="#0d0c08" stroke-width="0.5"></line><rect x="30" y="60" width="220" height="110" fill="none" stroke="#0d0c08" stroke-width="1.5"></rect><text x="140" y="115" text-anchor="middle" dominant-baseline="central" font-family="Georgia, &quot;Times New Roman&quot;, serif" font-size="22" fill="#1b1810">drew 7 equal parts for a 6-part task (off by one)</text></g><text x="808" y="64" text-anchor="middle" font-family="system-ui,sans-serif" font-size="15" font-weight="700" fill="#1b1810">shade parts</text><text x="808" y="84" text-anchor="middle" font-family="system-ui,sans-serif" font-size="11" fill="#5a5446">Shade and read the fraction off the miscounted …</text><g transform="translate(651.2835820895523 80.26865671641792) scale(1.1194029850746268)"><rect x="6" y="36" width="268" height="158" fill="#f8f1df" stroke="#0d0c08" stroke-width="0"></rect><rect x="30" y="60" width="31.428571428571427" height="110" fill="#b95238" stroke="#0d0c08" stroke-width="1.5"></rect><rect x="30" y="60" width="31.428571428571427" height="110" fill="none" stroke="#0d0c08" stroke-width="1.5"></rect><text x="45.714285714285715" y="115" text-anchor="middle" dominant-baseline="central" font-family="Georgia, &quot;Times New Roman&quot;, serif" font-size="22" fill="#1b1810">read 1/7 off a 7-part region (wanted /6)</text><rect x="61.42857142857143" y="60" width="31.428571428571427" height="110" fill="#cabf9f" stroke="#0d0c08" stroke-width="1.5"></rect><rect x="61.42857142857143" y="60" width="31.428571428571427" height="110" fill="none" stroke="#0d0c08" stroke-width="1.5"></rect><rect x="92.85714285714286" y="60" width="31.428571428571427" height="110" fill="#cabf9f" stroke="#0d0c08" stroke-width="1.5"></rect><rect x="92.85714285714286" y="60" width="31.428571428571427" height="110" fill="none" stroke="#0d0c08" stroke-width="1.5"></rect><rect x="124.28571428571429" y="60" width="31.428571428571427" height="110" fill="#cabf9f" stroke="#0d0c08" stroke-width="1.5"></rect><rect x="124.28571428571429" y="60" width="31.428571428571427" height="110" fill="none" stroke="#0d0c08" stroke-width="1.5"></rect><rect x="155.71428571428572" y="60" width="31.428571428571427" height="110" fill="#cabf9f" stroke="#0d0c08" stroke-width="1.5"></rect><rect x="155.71428571428572" y="60" width="31.428571428571427" height="110" fill="none" stroke="#0d0c08" stroke-width="1.5"></rect><rect x="187.14285714285714" y="60" width="31.428571428571427" height="110" fill="#cabf9f" stroke="#0d0c08" stroke-width="1.5"></rect><rect x="187.14285714285714" y="60" width="31.428571428571427" height="110" fill="none" stroke="#0d0c08" stroke-width="1.5"></rect><rect x="218.57142857142856" y="60" width="31.428571428571427" height="110" fill="#cabf9f" stroke="#0d0c08" stroke-width="1.5"></rect><rect x="218.57142857142856" y="60" width="31.428571428571427" height="110" fill="none" stroke="#0d0c08" stroke-width="1.5"></rect></g></svg>
