<svg xmlns="http://www.w3.org/2000/svg" viewBox="0 0 980 340" role="img" aria-label="WATCH FOR: equipartition_failure(miscount_partition) of 1/8 on a rectangle"><rect x="0" y="0" width="980" height="340" fill="#f8f1df"/><text x="490" y="28" text-anchor="middle" font-family="Georgia, 'Times New Roman', serif" font-size="20" font-weight="700" fill="#1b1810">WATCH FOR: equipartition_failure(miscount_partition) of 1/8 on a rectangle</text><text x="172" y="64" text-anchor="middle" font-family="system-ui,sans-serif" font-size="15" font-weight="700" fill="#1b1810">establish whole</text><text x="172" y="84" text-anchor="middle" font-family="system-ui,sans-serif" font-size="11" fill="#5a5446">Establish the whole region. One area, not yet p…</text><g transform="translate(15.28358208955224 80.26865671641795) scale(1.1194029850746265)"><rect x="6" y="36" width="268.00000000000006" height="158" fill="#f8f1df" stroke="#0d0c08" stroke-width="0"></rect><rect x="30" y="60" width="220" height="110" fill="#cabf9f" stroke="#0d0c08" stroke-width="1.5"></rect><rect x="30" y="60" width="220" height="110" fill="none" stroke="#0d0c08" stroke-width="1.5"></rect><text x="140" y="115" text-anchor="middle" dominant-baseline="central" font-family="Georgia, &quot;Times New Roman&quot;, serif" font-size="22" fill="#1b1810">1 whole (target: 8 equal parts)</text></g><text x="490" y="64" text-anchor="middle" font-family="system-ui,sans-serif" font-size="15" font-weight="700" fill="#1b1810">apply partition</text><text x="490" y="84" text-anchor="middle" font-family="system-ui,sans-serif" font-size="11" fill="#5a5446">Partition the region into equal parts, but make…</text><g transform="translate(333.2835820895522 80.26865671641795) scale(1.1194029850746265)"><rect x="6" y="36" width="268.00000000000006" height="158" fill="#f8f1df" stroke="#0d0c08" stroke-width="0"></rect><rect x="30" y="60" width="220" height="110" fill="#cabf9f" stroke="#0d0c08" stroke-width="1.5"></rect><line x1="54.44444444444444" y1="60" x2="54.44444444444444" y2="170" stroke="#0d0c08" stroke-width="0.5"></line><line x1="78.88888888888889" y1="60" x2="78.88888888888889" y2="170" stroke="#0d0c08" stroke-width="0.5"></line><line x1="103.33333333333333" y1="60" x2="103.33333333333333" y2="170" stroke="#0d0c08" stroke-width="0.5"></line><line x1="127.77777777777777" y1="60" x2="127.77777777777777" y2="170" stroke="#0d0c08" stroke-width="0.5"></line><line x1="152.22222222222223" y1="60" x2="152.22222222222223" y2="170" stroke="#0d0c08" stroke-width="0.5"></line><line x1="176.66666666666666" y1="60" x2="176.66666666666666" y2="170" stroke="#0d0c08" stroke-width="0.5"></line><line x1="201.1111111111111" y1="60" x2="201.1111111111111" y2="170" stroke="#0d0c08" stroke-width="0.5"></line><line x1="225.55555555555554" y1="60" x2="225.55555555555554" y2="170" stroke="#0d0c08" stroke-width="0.5"></line><rect x="30" y="60" width="220" height="110" fill="none" stroke="#0d0c08" stroke-width="1.5"></rect><text x="140" y="115" text-anchor="middle" dominant-baseline="central" font-family="Georgia, &quot;Times New Roman&quot;, serif" font-size="22" fill="#1b1810">drew 9 equal parts for a 8-part task (off by one)</text></g><text x="808" y="64" text-anchor="middle" font-family="system-ui,sans-serif" font-size="15" font-weight="700" fill="#1b1810">shade parts</text><text x="808" y="84" text-anchor="middle" font-family="system-ui,sans-serif" font-size="11" fill="#5a5446">Shade and read the fraction off the miscounted …</text><g transform="translate(651.2835820895523 80.26865671641795) scale(1.1194029850746265)"><rect x="6" y="36" width="268.00000000000006" height="158" fill="#f8f1df" stroke="#0d0c08" stroke-width="0"></rect><rect x="30" y="60" width="24.444444444444443" height="110" fill="#b95238" stroke="#0d0c08" stroke-width="1.5"></rect><rect x="30" y="60" width="24.444444444444443" height="110" fill="none" stroke="#0d0c08" stroke-width="1.5"></rect><text x="42.22222222222222" y="115" text-anchor="middle" dominant-baseline="central" font-family="Georgia, &quot;Times New Roman&quot;, serif" font-size="22" fill="#1b1810">read 1/9 off a 9-part region (wanted /8)</text><rect x="54.44444444444444" y="60" width="24.444444444444443" height="110" fill="#cabf9f" stroke="#0d0c08" stroke-width="1.5"></rect><rect x="54.44444444444444" y="60" width="24.444444444444443" height="110" fill="none" stroke="#0d0c08" stroke-width="1.5"></rect><rect x="78.88888888888889" y="60" width="24.444444444444443" height="110" fill="#cabf9f" stroke="#0d0c08" stroke-width="1.5"></rect><rect x="78.88888888888889" y="60" width="24.444444444444443" height="110" fill="none" stroke="#0d0c08" stroke-width="1.5"></rect><rect x="103.33333333333333" y="60" width="24.444444444444443" height="110" fill="#cabf9f" stroke="#0d0c08" stroke-width="1.5"></rect><rect x="103.33333333333333" y="60" width="24.444444444444443" height="110" fill="none" stroke="#0d0c08" stroke-width="1.5"></rect><rect x="127.77777777777777" y="60" width="24.444444444444443" height="110" fill="#cabf9f" stroke="#0d0c08" stroke-width="1.5"></rect><rect x="127.77777777777777" y="60" width="24.444444444444443" height="110" fill="none" stroke="#0d0c08" stroke-width="1.5"></rect><rect x="152.22222222222223" y="60" width="24.444444444444443" height="110" fill="#cabf9f" stroke="#0d0c08" stroke-width="1.5"></rect><rect x="152.22222222222223" y="60" width="24.444444444444443" height="110" fill="none" stroke="#0d0c08" stroke-width="1.5"></rect><rect x="176.66666666666669" y="60" width="24.444444444444443" height="110" fill="#cabf9f" stroke="#0d0c08" stroke-width="1.5"></rect><rect x="176.66666666666669" y="60" width="24.444444444444443" height="110" fill="none" stroke="#0d0c08" stroke-width="1.5"></rect><rect x="201.11111111111114" y="60" width="24.444444444444443" height="110" fill="#cabf9f" stroke="#0d0c08" stroke-width="1.5"></rect><rect x="201.11111111111114" y="60" width="24.444444444444443" height="110" fill="none" stroke="#0d0c08" stroke-width="1.5"></rect><rect x="225.5555555555556" y="60" width="24.444444444444443" height="110" fill="#cabf9f" stroke="#0d0c08" stroke-width="1.5"></rect><rect x="225.5555555555556" y="60" width="24.444444444444443" height="110" fill="none" stroke="#0d0c08" stroke-width="1.5"></rect></g></svg>
