<svg xmlns="http://www.w3.org/2000/svg" viewBox="0 0 980 340" role="img" aria-label="WATCH FOR: equipartition_failure(unequal_partition) of 1/8 on a rectangle"><rect x="0" y="0" width="980" height="340" fill="#f8f1df"/><text x="490" y="28" text-anchor="middle" font-family="Georgia, 'Times New Roman', serif" font-size="20" font-weight="700" fill="#1b1810">WATCH FOR: equipartition_failure(unequal_partition) of 1/8 on a rectangle</text><text x="172" y="64" text-anchor="middle" font-family="system-ui,sans-serif" font-size="15" font-weight="700" fill="#1b1810">establish whole</text><text x="172" y="84" text-anchor="middle" font-family="system-ui,sans-serif" font-size="11" fill="#5a5446">Establish the whole region. One area, not yet p…</text><g transform="translate(15.28358208955224 80.26865671641792) scale(1.1194029850746268)"><rect x="6" y="36" width="268" height="158" fill="#f8f1df" stroke="#0d0c08" stroke-width="0"></rect><rect x="30" y="60" width="220" height="110" fill="#cabf9f" stroke="#0d0c08" stroke-width="1.5"></rect><rect x="30" y="60" width="220" height="110" fill="none" stroke="#0d0c08" stroke-width="1.5"></rect><text x="140" y="115" text-anchor="middle" dominant-baseline="central" font-family="Georgia, &quot;Times New Roman&quot;, serif" font-size="22" fill="#1b1810">1 whole (target: 8 equal parts)</text></g><text x="490" y="64" text-anchor="middle" font-family="system-ui,sans-serif" font-size="15" font-weight="700" fill="#1b1810">apply partition</text><text x="490" y="84" text-anchor="middle" font-family="system-ui,sans-serif" font-size="11" fill="#5a5446">Partition the region into parts of different ar…</text><g transform="translate(333.2835820895522 80.26865671641792) scale(1.1194029850746268)"><rect x="6" y="36" width="268" height="158" fill="#f8f1df" stroke="#0d0c08" stroke-width="0"></rect><rect x="30" y="60" width="36.41891891891892" height="110" fill="#cabf9f" stroke="#0d0c08" stroke-width="1.5"></rect><rect x="30" y="60" width="36.41891891891892" height="110" fill="none" stroke="#0d0c08" stroke-width="1.5"></rect><text x="48.20945945945946" y="115" text-anchor="middle" dominant-baseline="central" font-family="Georgia, &quot;Times New Roman&quot;, serif" font-size="22" fill="#1b1810">8 unequal parts (no equipartition)</text><rect x="66.41891891891892" y="60" width="30.472972972972972" height="110" fill="#cabf9f" stroke="#0d0c08" stroke-width="1.5"></rect><rect x="66.41891891891892" y="60" width="30.472972972972972" height="110" fill="none" stroke="#0d0c08" stroke-width="1.5"></rect><rect x="96.89189189189189" y="60" width="24.527027027027025" height="110" fill="#cabf9f" stroke="#0d0c08" stroke-width="1.5"></rect><rect x="96.89189189189189" y="60" width="24.527027027027025" height="110" fill="none" stroke="#0d0c08" stroke-width="1.5"></rect><rect x="121.4189189189189" y="60" width="18.58108108108108" height="110" fill="#cabf9f" stroke="#0d0c08" stroke-width="1.5"></rect><rect x="121.4189189189189" y="60" width="18.58108108108108" height="110" fill="none" stroke="#0d0c08" stroke-width="1.5"></rect><rect x="140" y="60" width="18.581081081081077" height="110" fill="#cabf9f" stroke="#0d0c08" stroke-width="1.5"></rect><rect x="140" y="60" width="18.581081081081077" height="110" fill="none" stroke="#0d0c08" stroke-width="1.5"></rect><rect x="158.58108108108107" y="60" width="24.527027027027025" height="110" fill="#cabf9f" stroke="#0d0c08" stroke-width="1.5"></rect><rect x="158.58108108108107" y="60" width="24.527027027027025" height="110" fill="none" stroke="#0d0c08" stroke-width="1.5"></rect><rect x="183.1081081081081" y="60" width="30.47297297297297" height="110" fill="#cabf9f" stroke="#0d0c08" stroke-width="1.5"></rect><rect x="183.1081081081081" y="60" width="30.47297297297297" height="110" fill="none" stroke="#0d0c08" stroke-width="1.5"></rect><rect x="213.58108108108107" y="60" width="36.41891891891892" height="110" fill="#cabf9f" stroke="#0d0c08" stroke-width="1.5"></rect><rect x="213.58108108108107" y="60" width="36.41891891891892" height="110" fill="none" stroke="#0d0c08" stroke-width="1.5"></rect></g><text x="808" y="64" text-anchor="middle" font-family="system-ui,sans-serif" font-size="15" font-weight="700" fill="#1b1810">shade parts</text><text x="808" y="84" text-anchor="middle" font-family="system-ui,sans-serif" font-size="11" fill="#5a5446">Shade some parts. Because the parts have differ…</text><g transform="translate(651.2835820895523 80.26865671641792) scale(1.1194029850746268)"><rect x="6" y="36" width="268" height="158" fill="#f8f1df" stroke="#0d0c08" stroke-width="0"></rect><rect x="30" y="60" width="36.41891891891892" height="110" fill="#b95238" stroke="#0d0c08" stroke-width="1.5"></rect><rect x="30" y="60" width="36.41891891891892" height="110" fill="none" stroke="#0d0c08" stroke-width="1.5"></rect><text x="48.20945945945946" y="115" text-anchor="middle" dominant-baseline="central" font-family="Georgia, &quot;Times New Roman&quot;, serif" font-size="22" fill="#1b1810">shaded 1 of 8 unequal parts: not 1/8</text><rect x="66.41891891891892" y="60" width="30.472972972972972" height="110" fill="#cabf9f" stroke="#0d0c08" stroke-width="1.5"></rect><rect x="66.41891891891892" y="60" width="30.472972972972972" height="110" fill="none" stroke="#0d0c08" stroke-width="1.5"></rect><rect x="96.89189189189189" y="60" width="24.527027027027025" height="110" fill="#cabf9f" stroke="#0d0c08" stroke-width="1.5"></rect><rect x="96.89189189189189" y="60" width="24.527027027027025" height="110" fill="none" stroke="#0d0c08" stroke-width="1.5"></rect><rect x="121.4189189189189" y="60" width="18.58108108108108" height="110" fill="#cabf9f" stroke="#0d0c08" stroke-width="1.5"></rect><rect x="121.4189189189189" y="60" width="18.58108108108108" height="110" fill="none" stroke="#0d0c08" stroke-width="1.5"></rect><rect x="140" y="60" width="18.581081081081077" height="110" fill="#cabf9f" stroke="#0d0c08" stroke-width="1.5"></rect><rect x="140" y="60" width="18.581081081081077" height="110" fill="none" stroke="#0d0c08" stroke-width="1.5"></rect><rect x="158.58108108108107" y="60" width="24.527027027027025" height="110" fill="#cabf9f" stroke="#0d0c08" stroke-width="1.5"></rect><rect x="158.58108108108107" y="60" width="24.527027027027025" height="110" fill="none" stroke="#0d0c08" stroke-width="1.5"></rect><rect x="183.1081081081081" y="60" width="30.47297297297297" height="110" fill="#cabf9f" stroke="#0d0c08" stroke-width="1.5"></rect><rect x="183.1081081081081" y="60" width="30.47297297297297" height="110" fill="none" stroke="#0d0c08" stroke-width="1.5"></rect><rect x="213.58108108108107" y="60" width="36.41891891891892" height="110" fill="#cabf9f" stroke="#0d0c08" stroke-width="1.5"></rect><rect x="213.58108108108107" y="60" width="36.41891891891892" height="110" fill="none" stroke="#0d0c08" stroke-width="1.5"></rect></g></svg>
