<svg xmlns="http://www.w3.org/2000/svg" viewBox="0 0 3206 340" role="img" aria-label="WATCH FOR: set_model_subset_size_focus of 1/3 vs 1/4 on a set"><rect x="0" y="0" width="3206" height="340" fill="#f8f1df"/><text x="1603" y="28" text-anchor="middle" font-family="Georgia, 'Times New Roman', serif" font-size="20" font-weight="700" fill="#1b1810">WATCH FOR: set_model_subset_size_focus of 1/3 vs 1/4 on a set</text><text x="172" y="64" text-anchor="middle" font-family="system-ui,sans-serif" font-size="15" font-weight="700" fill="#1b1810">q init</text><text x="172" y="84" text-anchor="middle" font-family="system-ui,sans-serif" font-size="11" fill="#5a5446">init: init(fraction(1,3),fraction(1,4)).</text><g transform="translate(16.366197183098592 174.8450704225352) scale(0.352112676056338)"><rect x="16" y="16" width="852" height="162" fill="#f8f1df" stroke="#0d0c08" stroke-width="0"></rect><rect x="40" y="40" width="364" height="114" fill="#cabf9f" stroke="#0d0c08" stroke-width="1"></rect><text x="222" y="146" text-anchor="middle" dominant-baseline="central" font-family="Georgia, &quot;Times New Roman&quot;, serif" font-size="12" fill="#1b1810">1/3; 1 counters selected</text><rect x="480" y="40" width="364" height="114" fill="#cabf9f" stroke="#0d0c08" stroke-width="1"></rect><text x="662" y="146" text-anchor="middle" dominant-baseline="central" font-family="Georgia, &quot;Times New Roman&quot;, serif" font-size="12" fill="#1b1810">1/4; 1 counters selected</text><circle cx="64" cy="62" r="11" fill="#b95238" stroke="#0d0c08" stroke-width="1.25"></circle><circle cx="98" cy="62" r="11" fill="#cabf9f" stroke="#0d0c08" stroke-width="1.25"></circle><circle cx="132" cy="62" r="11" fill="#cabf9f" stroke="#0d0c08" stroke-width="1.25"></circle><circle cx="166" cy="62" r="11" fill="#cabf9f" stroke="#0d0c08" stroke-width="1.25"></circle><circle cx="200" cy="62" r="11" fill="#cabf9f" stroke="#0d0c08" stroke-width="1.25"></circle><circle cx="234" cy="62" r="11" fill="#cabf9f" stroke="#0d0c08" stroke-width="1.25"></circle><circle cx="268" cy="62" r="11" fill="#cabf9f" stroke="#0d0c08" stroke-width="1.25"></circle><circle cx="302" cy="62" r="11" fill="#cabf9f" stroke="#0d0c08" stroke-width="1.25"></circle><circle cx="336" cy="62" r="11" fill="#cabf9f" stroke="#0d0c08" stroke-width="1.25"></circle><circle cx="370" cy="62" r="11" fill="#cabf9f" stroke="#0d0c08" stroke-width="1.25"></circle><circle cx="64" cy="96" r="11" fill="#cabf9f" stroke="#0d0c08" stroke-width="1.25"></circle><circle cx="98" cy="96" r="11" fill="#cabf9f" stroke="#0d0c08" stroke-width="1.25"></circle><circle cx="504" cy="62" r="11" fill="#b95238" stroke="#0d0c08" stroke-width="1.25"></circle><circle cx="538" cy="62" r="11" fill="#cabf9f" stroke="#0d0c08" stroke-width="1.25"></circle><circle cx="572" cy="62" r="11" fill="#cabf9f" stroke="#0d0c08" stroke-width="1.25"></circle><circle cx="606" cy="62" r="11" fill="#cabf9f" stroke="#0d0c08" stroke-width="1.25"></circle><circle cx="640" cy="62" r="11" fill="#cabf9f" stroke="#0d0c08" stroke-width="1.25"></circle><circle cx="674" cy="62" r="11" fill="#cabf9f" stroke="#0d0c08" stroke-width="1.25"></circle><circle cx="708" cy="62" r="11" fill="#cabf9f" stroke="#0d0c08" stroke-width="1.25"></circle><circle cx="742" cy="62" r="11" fill="#cabf9f" stroke="#0d0c08" stroke-width="1.25"></circle><circle cx="776" cy="62" r="11" fill="#cabf9f" stroke="#0d0c08" stroke-width="1.25"></circle><circle cx="810" cy="62" r="11" fill="#cabf9f" stroke="#0d0c08" stroke-width="1.25"></circle><circle cx="504" cy="96" r="11" fill="#cabf9f" stroke="#0d0c08" stroke-width="1.25"></circle><circle cx="538" cy="96" r="11" fill="#cabf9f" stroke="#0d0c08" stroke-width="1.25"></circle></g><text x="490" y="64" text-anchor="middle" font-family="system-ui,sans-serif" font-size="15" font-weight="700" fill="#1b1810">q unitize set</text><text x="490" y="84" text-anchor="middle" font-family="system-ui,sans-serif" font-size="11" fill="#5a5446">unitize set: collections as single wholes(first…</text><g transform="translate(334.3661971830986 174.8450704225352) scale(0.352112676056338)"><rect x="16" y="16" width="852" height="162" fill="#f8f1df" stroke="#0d0c08" stroke-width="0"></rect><rect x="40" y="40" width="364" height="114" fill="#cabf9f" stroke="#0d0c08" stroke-width="1"></rect><text x="222" y="146" text-anchor="middle" dominant-baseline="central" font-family="Georgia, &quot;Times New Roman&quot;, serif" font-size="12" fill="#1b1810">1/3; 1 counters selected</text><rect x="480" y="40" width="364" height="114" fill="#cabf9f" stroke="#0d0c08" stroke-width="1"></rect><text x="662" y="146" text-anchor="middle" dominant-baseline="central" font-family="Georgia, &quot;Times New Roman&quot;, serif" font-size="12" fill="#1b1810">1/4; 1 counters selected</text><circle cx="64" cy="62" r="11" fill="#b95238" stroke="#0d0c08" stroke-width="1.25"></circle><circle cx="98" cy="62" r="11" fill="#cabf9f" stroke="#0d0c08" stroke-width="1.25"></circle><circle cx="132" cy="62" r="11" fill="#cabf9f" stroke="#0d0c08" stroke-width="1.25"></circle><circle cx="166" cy="62" r="11" fill="#cabf9f" stroke="#0d0c08" stroke-width="1.25"></circle><circle cx="200" cy="62" r="11" fill="#cabf9f" stroke="#0d0c08" stroke-width="1.25"></circle><circle cx="234" cy="62" r="11" fill="#cabf9f" stroke="#0d0c08" stroke-width="1.25"></circle><circle cx="268" cy="62" r="11" fill="#cabf9f" stroke="#0d0c08" stroke-width="1.25"></circle><circle cx="302" cy="62" r="11" fill="#cabf9f" stroke="#0d0c08" stroke-width="1.25"></circle><circle cx="336" cy="62" r="11" fill="#cabf9f" stroke="#0d0c08" stroke-width="1.25"></circle><circle cx="370" cy="62" r="11" fill="#cabf9f" stroke="#0d0c08" stroke-width="1.25"></circle><circle cx="64" cy="96" r="11" fill="#cabf9f" stroke="#0d0c08" stroke-width="1.25"></circle><circle cx="98" cy="96" r="11" fill="#cabf9f" stroke="#0d0c08" stroke-width="1.25"></circle><circle cx="504" cy="62" r="11" fill="#b95238" stroke="#0d0c08" stroke-width="1.25"></circle><circle cx="538" cy="62" r="11" fill="#cabf9f" stroke="#0d0c08" stroke-width="1.25"></circle><circle cx="572" cy="62" r="11" fill="#cabf9f" stroke="#0d0c08" stroke-width="1.25"></circle><circle cx="606" cy="62" r="11" fill="#cabf9f" stroke="#0d0c08" stroke-width="1.25"></circle><circle cx="640" cy="62" r="11" fill="#cabf9f" stroke="#0d0c08" stroke-width="1.25"></circle><circle cx="674" cy="62" r="11" fill="#cabf9f" stroke="#0d0c08" stroke-width="1.25"></circle><circle cx="708" cy="62" r="11" fill="#cabf9f" stroke="#0d0c08" stroke-width="1.25"></circle><circle cx="742" cy="62" r="11" fill="#cabf9f" stroke="#0d0c08" stroke-width="1.25"></circle><circle cx="776" cy="62" r="11" fill="#cabf9f" stroke="#0d0c08" stroke-width="1.25"></circle><circle cx="810" cy="62" r="11" fill="#cabf9f" stroke="#0d0c08" stroke-width="1.25"></circle><circle cx="504" cy="96" r="11" fill="#cabf9f" stroke="#0d0c08" stroke-width="1.25"></circle><circle cx="538" cy="96" r="11" fill="#cabf9f" stroke="#0d0c08" stroke-width="1.25"></circle></g><text x="808" y="64" text-anchor="middle" font-family="system-ui,sans-serif" font-size="15" font-weight="700" fill="#1b1810">q verify same whole</text><text x="808" y="84" text-anchor="middle" font-family="system-ui,sans-serif" font-size="11" fill="#5a5446">verify same whole: commensurable collections no…</text><g transform="translate(652.3661971830986 174.8450704225352) scale(0.352112676056338)"><rect x="16" y="16" width="852" height="162" fill="#f8f1df" stroke="#0d0c08" stroke-width="0"></rect><rect x="40" y="40" width="364" height="114" fill="#cabf9f" stroke="#0d0c08" stroke-width="1"></rect><text x="222" y="146" text-anchor="middle" dominant-baseline="central" font-family="Georgia, &quot;Times New Roman&quot;, serif" font-size="12" fill="#1b1810">1/3; 1 counters selected</text><rect x="480" y="40" width="364" height="114" fill="#cabf9f" stroke="#0d0c08" stroke-width="1"></rect><text x="662" y="146" text-anchor="middle" dominant-baseline="central" font-family="Georgia, &quot;Times New Roman&quot;, serif" font-size="12" fill="#1b1810">1/4; 1 counters selected</text><circle cx="64" cy="62" r="11" fill="#b95238" stroke="#0d0c08" stroke-width="1.25"></circle><circle cx="98" cy="62" r="11" fill="#cabf9f" stroke="#0d0c08" stroke-width="1.25"></circle><circle cx="132" cy="62" r="11" fill="#cabf9f" stroke="#0d0c08" stroke-width="1.25"></circle><circle cx="166" cy="62" r="11" fill="#cabf9f" stroke="#0d0c08" stroke-width="1.25"></circle><circle cx="200" cy="62" r="11" fill="#cabf9f" stroke="#0d0c08" stroke-width="1.25"></circle><circle cx="234" cy="62" r="11" fill="#cabf9f" stroke="#0d0c08" stroke-width="1.25"></circle><circle cx="268" cy="62" r="11" fill="#cabf9f" stroke="#0d0c08" stroke-width="1.25"></circle><circle cx="302" cy="62" r="11" fill="#cabf9f" stroke="#0d0c08" stroke-width="1.25"></circle><circle cx="336" cy="62" r="11" fill="#cabf9f" stroke="#0d0c08" stroke-width="1.25"></circle><circle cx="370" cy="62" r="11" fill="#cabf9f" stroke="#0d0c08" stroke-width="1.25"></circle><circle cx="64" cy="96" r="11" fill="#cabf9f" stroke="#0d0c08" stroke-width="1.25"></circle><circle cx="98" cy="96" r="11" fill="#cabf9f" stroke="#0d0c08" stroke-width="1.25"></circle><circle cx="504" cy="62" r="11" fill="#b95238" stroke="#0d0c08" stroke-width="1.25"></circle><circle cx="538" cy="62" r="11" fill="#cabf9f" stroke="#0d0c08" stroke-width="1.25"></circle><circle cx="572" cy="62" r="11" fill="#cabf9f" stroke="#0d0c08" stroke-width="1.25"></circle><circle cx="606" cy="62" r="11" fill="#cabf9f" stroke="#0d0c08" stroke-width="1.25"></circle><circle cx="640" cy="62" r="11" fill="#cabf9f" stroke="#0d0c08" stroke-width="1.25"></circle><circle cx="674" cy="62" r="11" fill="#cabf9f" stroke="#0d0c08" stroke-width="1.25"></circle><circle cx="708" cy="62" r="11" fill="#cabf9f" stroke="#0d0c08" stroke-width="1.25"></circle><circle cx="742" cy="62" r="11" fill="#cabf9f" stroke="#0d0c08" stroke-width="1.25"></circle><circle cx="776" cy="62" r="11" fill="#cabf9f" stroke="#0d0c08" stroke-width="1.25"></circle><circle cx="810" cy="62" r="11" fill="#cabf9f" stroke="#0d0c08" stroke-width="1.25"></circle><circle cx="504" cy="96" r="11" fill="#cabf9f" stroke="#0d0c08" stroke-width="1.25"></circle><circle cx="538" cy="96" r="11" fill="#cabf9f" stroke="#0d0c08" stroke-width="1.25"></circle></g><text x="1126" y="64" text-anchor="middle" font-family="system-ui,sans-serif" font-size="15" font-weight="700" fill="#1b1810">q partition set</text><text x="1126" y="84" text-anchor="middle" font-family="system-ui,sans-serif" font-size="11" fill="#5a5446">partition set: equal share structure ignored.</text><g transform="translate(970.3661971830986 174.8450704225352) scale(0.352112676056338)"><rect x="16" y="16" width="852" height="162" fill="#f8f1df" stroke="#0d0c08" stroke-width="0"></rect><rect x="40" y="40" width="364" height="114" fill="#cabf9f" stroke="#0d0c08" stroke-width="1"></rect><text x="222" y="146" text-anchor="middle" dominant-baseline="central" font-family="Georgia, &quot;Times New Roman&quot;, serif" font-size="12" fill="#1b1810">1/3; 1 counters selected</text><rect x="480" y="40" width="364" height="114" fill="#cabf9f" stroke="#0d0c08" stroke-width="1"></rect><text x="662" y="146" text-anchor="middle" dominant-baseline="central" font-family="Georgia, &quot;Times New Roman&quot;, serif" font-size="12" fill="#1b1810">1/4; 1 counters selected</text><circle cx="64" cy="62" r="11" fill="#b95238" stroke="#0d0c08" stroke-width="1.25"></circle><circle cx="98" cy="62" r="11" fill="#cabf9f" stroke="#0d0c08" stroke-width="1.25"></circle><circle cx="132" cy="62" r="11" fill="#cabf9f" stroke="#0d0c08" stroke-width="1.25"></circle><circle cx="166" cy="62" r="11" fill="#cabf9f" stroke="#0d0c08" stroke-width="1.25"></circle><circle cx="200" cy="62" r="11" fill="#cabf9f" stroke="#0d0c08" stroke-width="1.25"></circle><circle cx="234" cy="62" r="11" fill="#cabf9f" stroke="#0d0c08" stroke-width="1.25"></circle><circle cx="268" cy="62" r="11" fill="#cabf9f" stroke="#0d0c08" stroke-width="1.25"></circle><circle cx="302" cy="62" r="11" fill="#cabf9f" stroke="#0d0c08" stroke-width="1.25"></circle><circle cx="336" cy="62" r="11" fill="#cabf9f" stroke="#0d0c08" stroke-width="1.25"></circle><circle cx="370" cy="62" r="11" fill="#cabf9f" stroke="#0d0c08" stroke-width="1.25"></circle><circle cx="64" cy="96" r="11" fill="#cabf9f" stroke="#0d0c08" stroke-width="1.25"></circle><circle cx="98" cy="96" r="11" fill="#cabf9f" stroke="#0d0c08" stroke-width="1.25"></circle><circle cx="504" cy="62" r="11" fill="#b95238" stroke="#0d0c08" stroke-width="1.25"></circle><circle cx="538" cy="62" r="11" fill="#cabf9f" stroke="#0d0c08" stroke-width="1.25"></circle><circle cx="572" cy="62" r="11" fill="#cabf9f" stroke="#0d0c08" stroke-width="1.25"></circle><circle cx="606" cy="62" r="11" fill="#cabf9f" stroke="#0d0c08" stroke-width="1.25"></circle><circle cx="640" cy="62" r="11" fill="#cabf9f" stroke="#0d0c08" stroke-width="1.25"></circle><circle cx="674" cy="62" r="11" fill="#cabf9f" stroke="#0d0c08" stroke-width="1.25"></circle><circle cx="708" cy="62" r="11" fill="#cabf9f" stroke="#0d0c08" stroke-width="1.25"></circle><circle cx="742" cy="62" r="11" fill="#cabf9f" stroke="#0d0c08" stroke-width="1.25"></circle><circle cx="776" cy="62" r="11" fill="#cabf9f" stroke="#0d0c08" stroke-width="1.25"></circle><circle cx="810" cy="62" r="11" fill="#cabf9f" stroke="#0d0c08" stroke-width="1.25"></circle><circle cx="504" cy="96" r="11" fill="#cabf9f" stroke="#0d0c08" stroke-width="1.25"></circle><circle cx="538" cy="96" r="11" fill="#cabf9f" stroke="#0d0c08" stroke-width="1.25"></circle></g><text x="1444" y="64" text-anchor="middle" font-family="system-ui,sans-serif" font-size="15" font-weight="700" fill="#1b1810">q count equal sets</text><text x="1444" y="84" text-anchor="middle" font-family="system-ui,sans-serif" font-size="11" fill="#5a5446">count equal sets: confuse counters with share n…</text><g transform="translate(1288.3661971830986 174.8450704225352) scale(0.352112676056338)"><rect x="16" y="16" width="852" height="162" fill="#f8f1df" stroke="#0d0c08" stroke-width="0"></rect><rect x="40" y="40" width="364" height="114" fill="#cabf9f" stroke="#0d0c08" stroke-width="1"></rect><text x="222" y="146" text-anchor="middle" dominant-baseline="central" font-family="Georgia, &quot;Times New Roman&quot;, serif" font-size="12" fill="#1b1810">1/3; 1 counters selected</text><rect x="480" y="40" width="364" height="114" fill="#cabf9f" stroke="#0d0c08" stroke-width="1"></rect><text x="662" y="146" text-anchor="middle" dominant-baseline="central" font-family="Georgia, &quot;Times New Roman&quot;, serif" font-size="12" fill="#1b1810">1/4; 1 counters selected</text><circle cx="64" cy="62" r="11" fill="#b95238" stroke="#0d0c08" stroke-width="1.25"></circle><circle cx="98" cy="62" r="11" fill="#cabf9f" stroke="#0d0c08" stroke-width="1.25"></circle><circle cx="132" cy="62" r="11" fill="#cabf9f" stroke="#0d0c08" stroke-width="1.25"></circle><circle cx="166" cy="62" r="11" fill="#cabf9f" stroke="#0d0c08" stroke-width="1.25"></circle><circle cx="200" cy="62" r="11" fill="#cabf9f" stroke="#0d0c08" stroke-width="1.25"></circle><circle cx="234" cy="62" r="11" fill="#cabf9f" stroke="#0d0c08" stroke-width="1.25"></circle><circle cx="268" cy="62" r="11" fill="#cabf9f" stroke="#0d0c08" stroke-width="1.25"></circle><circle cx="302" cy="62" r="11" fill="#cabf9f" stroke="#0d0c08" stroke-width="1.25"></circle><circle cx="336" cy="62" r="11" fill="#cabf9f" stroke="#0d0c08" stroke-width="1.25"></circle><circle cx="370" cy="62" r="11" fill="#cabf9f" stroke="#0d0c08" stroke-width="1.25"></circle><circle cx="64" cy="96" r="11" fill="#cabf9f" stroke="#0d0c08" stroke-width="1.25"></circle><circle cx="98" cy="96" r="11" fill="#cabf9f" stroke="#0d0c08" stroke-width="1.25"></circle><circle cx="504" cy="62" r="11" fill="#b95238" stroke="#0d0c08" stroke-width="1.25"></circle><circle cx="538" cy="62" r="11" fill="#cabf9f" stroke="#0d0c08" stroke-width="1.25"></circle><circle cx="572" cy="62" r="11" fill="#cabf9f" stroke="#0d0c08" stroke-width="1.25"></circle><circle cx="606" cy="62" r="11" fill="#cabf9f" stroke="#0d0c08" stroke-width="1.25"></circle><circle cx="640" cy="62" r="11" fill="#cabf9f" stroke="#0d0c08" stroke-width="1.25"></circle><circle cx="674" cy="62" r="11" fill="#cabf9f" stroke="#0d0c08" stroke-width="1.25"></circle><circle cx="708" cy="62" r="11" fill="#cabf9f" stroke="#0d0c08" stroke-width="1.25"></circle><circle cx="742" cy="62" r="11" fill="#cabf9f" stroke="#0d0c08" stroke-width="1.25"></circle><circle cx="776" cy="62" r="11" fill="#cabf9f" stroke="#0d0c08" stroke-width="1.25"></circle><circle cx="810" cy="62" r="11" fill="#cabf9f" stroke="#0d0c08" stroke-width="1.25"></circle><circle cx="504" cy="96" r="11" fill="#cabf9f" stroke="#0d0c08" stroke-width="1.25"></circle><circle cx="538" cy="96" r="11" fill="#cabf9f" stroke="#0d0c08" stroke-width="1.25"></circle></g><text x="1762" y="64" text-anchor="middle" font-family="system-ui,sans-serif" font-size="15" font-weight="700" fill="#1b1810">q disembed subset</text><text x="1762" y="84" text-anchor="middle" font-family="system-ui,sans-serif" font-size="11" fill="#5a5446">disembed subset: focus on subset counts(1,1).</text><g transform="translate(1606.3661971830986 174.8450704225352) scale(0.352112676056338)"><rect x="16" y="16" width="852" height="162" fill="#f8f1df" stroke="#0d0c08" stroke-width="0"></rect><rect x="40" y="40" width="364" height="114" fill="#cabf9f" stroke="#0d0c08" stroke-width="1"></rect><text x="222" y="146" text-anchor="middle" dominant-baseline="central" font-family="Georgia, &quot;Times New Roman&quot;, serif" font-size="12" fill="#1b1810">1/3; 1 counters selected</text><rect x="480" y="40" width="364" height="114" fill="#cabf9f" stroke="#0d0c08" stroke-width="1"></rect><text x="662" y="146" text-anchor="middle" dominant-baseline="central" font-family="Georgia, &quot;Times New Roman&quot;, serif" font-size="12" fill="#1b1810">1/4; 1 counters selected</text><circle cx="64" cy="62" r="11" fill="#b95238" stroke="#0d0c08" stroke-width="1.25"></circle><circle cx="98" cy="62" r="11" fill="#cabf9f" stroke="#0d0c08" stroke-width="1.25"></circle><circle cx="132" cy="62" r="11" fill="#cabf9f" stroke="#0d0c08" stroke-width="1.25"></circle><circle cx="166" cy="62" r="11" fill="#cabf9f" stroke="#0d0c08" stroke-width="1.25"></circle><circle cx="200" cy="62" r="11" fill="#cabf9f" stroke="#0d0c08" stroke-width="1.25"></circle><circle cx="234" cy="62" r="11" fill="#cabf9f" stroke="#0d0c08" stroke-width="1.25"></circle><circle cx="268" cy="62" r="11" fill="#cabf9f" stroke="#0d0c08" stroke-width="1.25"></circle><circle cx="302" cy="62" r="11" fill="#cabf9f" stroke="#0d0c08" stroke-width="1.25"></circle><circle cx="336" cy="62" r="11" fill="#cabf9f" stroke="#0d0c08" stroke-width="1.25"></circle><circle cx="370" cy="62" r="11" fill="#cabf9f" stroke="#0d0c08" stroke-width="1.25"></circle><circle cx="64" cy="96" r="11" fill="#cabf9f" stroke="#0d0c08" stroke-width="1.25"></circle><circle cx="98" cy="96" r="11" fill="#cabf9f" stroke="#0d0c08" stroke-width="1.25"></circle><circle cx="504" cy="62" r="11" fill="#b95238" stroke="#0d0c08" stroke-width="1.25"></circle><circle cx="538" cy="62" r="11" fill="#cabf9f" stroke="#0d0c08" stroke-width="1.25"></circle><circle cx="572" cy="62" r="11" fill="#cabf9f" stroke="#0d0c08" stroke-width="1.25"></circle><circle cx="606" cy="62" r="11" fill="#cabf9f" stroke="#0d0c08" stroke-width="1.25"></circle><circle cx="640" cy="62" r="11" fill="#cabf9f" stroke="#0d0c08" stroke-width="1.25"></circle><circle cx="674" cy="62" r="11" fill="#cabf9f" stroke="#0d0c08" stroke-width="1.25"></circle><circle cx="708" cy="62" r="11" fill="#cabf9f" stroke="#0d0c08" stroke-width="1.25"></circle><circle cx="742" cy="62" r="11" fill="#cabf9f" stroke="#0d0c08" stroke-width="1.25"></circle><circle cx="776" cy="62" r="11" fill="#cabf9f" stroke="#0d0c08" stroke-width="1.25"></circle><circle cx="810" cy="62" r="11" fill="#cabf9f" stroke="#0d0c08" stroke-width="1.25"></circle><circle cx="504" cy="96" r="11" fill="#cabf9f" stroke="#0d0c08" stroke-width="1.25"></circle><circle cx="538" cy="96" r="11" fill="#cabf9f" stroke="#0d0c08" stroke-width="1.25"></circle></g><text x="2080" y="64" text-anchor="middle" font-family="system-ui,sans-serif" font-size="15" font-weight="700" fill="#1b1810">q subset size focus</text><text x="2080" y="84" text-anchor="middle" font-family="system-ui,sans-serif" font-size="11" fill="#5a5446">subset size focus: subset count replaces fracti…</text><g transform="translate(1924.3661971830986 174.8450704225352) scale(0.352112676056338)"><rect x="16" y="16" width="852" height="162" fill="#f8f1df" stroke="#0d0c08" stroke-width="0"></rect><rect x="40" y="40" width="364" height="114" fill="#cabf9f" stroke="#0d0c08" stroke-width="1"></rect><text x="222" y="146" text-anchor="middle" dominant-baseline="central" font-family="Georgia, &quot;Times New Roman&quot;, serif" font-size="12" fill="#1b1810">1/3; 1 counters selected</text><rect x="480" y="40" width="364" height="114" fill="#cabf9f" stroke="#0d0c08" stroke-width="1"></rect><text x="662" y="146" text-anchor="middle" dominant-baseline="central" font-family="Georgia, &quot;Times New Roman&quot;, serif" font-size="12" fill="#1b1810">1/4; 1 counters selected</text><circle cx="64" cy="62" r="11" fill="#b95238" stroke="#0d0c08" stroke-width="1.25"></circle><circle cx="98" cy="62" r="11" fill="#cabf9f" stroke="#0d0c08" stroke-width="1.25"></circle><circle cx="132" cy="62" r="11" fill="#cabf9f" stroke="#0d0c08" stroke-width="1.25"></circle><circle cx="166" cy="62" r="11" fill="#cabf9f" stroke="#0d0c08" stroke-width="1.25"></circle><circle cx="200" cy="62" r="11" fill="#cabf9f" stroke="#0d0c08" stroke-width="1.25"></circle><circle cx="234" cy="62" r="11" fill="#cabf9f" stroke="#0d0c08" stroke-width="1.25"></circle><circle cx="268" cy="62" r="11" fill="#cabf9f" stroke="#0d0c08" stroke-width="1.25"></circle><circle cx="302" cy="62" r="11" fill="#cabf9f" stroke="#0d0c08" stroke-width="1.25"></circle><circle cx="336" cy="62" r="11" fill="#cabf9f" stroke="#0d0c08" stroke-width="1.25"></circle><circle cx="370" cy="62" r="11" fill="#cabf9f" stroke="#0d0c08" stroke-width="1.25"></circle><circle cx="64" cy="96" r="11" fill="#cabf9f" stroke="#0d0c08" stroke-width="1.25"></circle><circle cx="98" cy="96" r="11" fill="#cabf9f" stroke="#0d0c08" stroke-width="1.25"></circle><circle cx="504" cy="62" r="11" fill="#b95238" stroke="#0d0c08" stroke-width="1.25"></circle><circle cx="538" cy="62" r="11" fill="#cabf9f" stroke="#0d0c08" stroke-width="1.25"></circle><circle cx="572" cy="62" r="11" fill="#cabf9f" stroke="#0d0c08" stroke-width="1.25"></circle><circle cx="606" cy="62" r="11" fill="#cabf9f" stroke="#0d0c08" stroke-width="1.25"></circle><circle cx="640" cy="62" r="11" fill="#cabf9f" stroke="#0d0c08" stroke-width="1.25"></circle><circle cx="674" cy="62" r="11" fill="#cabf9f" stroke="#0d0c08" stroke-width="1.25"></circle><circle cx="708" cy="62" r="11" fill="#cabf9f" stroke="#0d0c08" stroke-width="1.25"></circle><circle cx="742" cy="62" r="11" fill="#cabf9f" stroke="#0d0c08" stroke-width="1.25"></circle><circle cx="776" cy="62" r="11" fill="#cabf9f" stroke="#0d0c08" stroke-width="1.25"></circle><circle cx="810" cy="62" r="11" fill="#cabf9f" stroke="#0d0c08" stroke-width="1.25"></circle><circle cx="504" cy="96" r="11" fill="#cabf9f" stroke="#0d0c08" stroke-width="1.25"></circle><circle cx="538" cy="96" r="11" fill="#cabf9f" stroke="#0d0c08" stroke-width="1.25"></circle></g><text x="2398" y="64" text-anchor="middle" font-family="system-ui,sans-serif" font-size="15" font-weight="700" fill="#1b1810">q compare relative size</text><text x="2398" y="84" text-anchor="middle" font-family="system-ui,sans-serif" font-size="11" fill="#5a5446">compare relative size: compare raw subset sizes…</text><g transform="translate(2242.3661971830984 174.8450704225352) scale(0.352112676056338)"><rect x="16" y="16" width="852" height="162" fill="#f8f1df" stroke="#0d0c08" stroke-width="0"></rect><rect x="40" y="40" width="364" height="114" fill="#cabf9f" stroke="#0d0c08" stroke-width="1"></rect><text x="222" y="146" text-anchor="middle" dominant-baseline="central" font-family="Georgia, &quot;Times New Roman&quot;, serif" font-size="12" fill="#1b1810">1/3; 1 counters selected</text><rect x="480" y="40" width="364" height="114" fill="#cabf9f" stroke="#0d0c08" stroke-width="1"></rect><text x="662" y="146" text-anchor="middle" dominant-baseline="central" font-family="Georgia, &quot;Times New Roman&quot;, serif" font-size="12" fill="#1b1810">1/4; 1 counters selected</text><circle cx="64" cy="62" r="11" fill="#b95238" stroke="#0d0c08" stroke-width="1.25"></circle><circle cx="98" cy="62" r="11" fill="#cabf9f" stroke="#0d0c08" stroke-width="1.25"></circle><circle cx="132" cy="62" r="11" fill="#cabf9f" stroke="#0d0c08" stroke-width="1.25"></circle><circle cx="166" cy="62" r="11" fill="#cabf9f" stroke="#0d0c08" stroke-width="1.25"></circle><circle cx="200" cy="62" r="11" fill="#cabf9f" stroke="#0d0c08" stroke-width="1.25"></circle><circle cx="234" cy="62" r="11" fill="#cabf9f" stroke="#0d0c08" stroke-width="1.25"></circle><circle cx="268" cy="62" r="11" fill="#cabf9f" stroke="#0d0c08" stroke-width="1.25"></circle><circle cx="302" cy="62" r="11" fill="#cabf9f" stroke="#0d0c08" stroke-width="1.25"></circle><circle cx="336" cy="62" r="11" fill="#cabf9f" stroke="#0d0c08" stroke-width="1.25"></circle><circle cx="370" cy="62" r="11" fill="#cabf9f" stroke="#0d0c08" stroke-width="1.25"></circle><circle cx="64" cy="96" r="11" fill="#cabf9f" stroke="#0d0c08" stroke-width="1.25"></circle><circle cx="98" cy="96" r="11" fill="#cabf9f" stroke="#0d0c08" stroke-width="1.25"></circle><circle cx="504" cy="62" r="11" fill="#b95238" stroke="#0d0c08" stroke-width="1.25"></circle><circle cx="538" cy="62" r="11" fill="#cabf9f" stroke="#0d0c08" stroke-width="1.25"></circle><circle cx="572" cy="62" r="11" fill="#cabf9f" stroke="#0d0c08" stroke-width="1.25"></circle><circle cx="606" cy="62" r="11" fill="#cabf9f" stroke="#0d0c08" stroke-width="1.25"></circle><circle cx="640" cy="62" r="11" fill="#cabf9f" stroke="#0d0c08" stroke-width="1.25"></circle><circle cx="674" cy="62" r="11" fill="#cabf9f" stroke="#0d0c08" stroke-width="1.25"></circle><circle cx="708" cy="62" r="11" fill="#cabf9f" stroke="#0d0c08" stroke-width="1.25"></circle><circle cx="742" cy="62" r="11" fill="#cabf9f" stroke="#0d0c08" stroke-width="1.25"></circle><circle cx="776" cy="62" r="11" fill="#cabf9f" stroke="#0d0c08" stroke-width="1.25"></circle><circle cx="810" cy="62" r="11" fill="#cabf9f" stroke="#0d0c08" stroke-width="1.25"></circle><circle cx="504" cy="96" r="11" fill="#cabf9f" stroke="#0d0c08" stroke-width="1.25"></circle><circle cx="538" cy="96" r="11" fill="#cabf9f" stroke="#0d0c08" stroke-width="1.25"></circle></g><text x="2716" y="64" text-anchor="middle" font-family="system-ui,sans-serif" font-size="15" font-weight="700" fill="#1b1810">q emit</text><text x="2716" y="84" text-anchor="middle" font-family="system-ui,sans-serif" font-size="11" fill="#5a5446">emit: emit(equivalent).</text><g transform="translate(2560.3661971830984 174.8450704225352) scale(0.352112676056338)"><rect x="16" y="16" width="852" height="162" fill="#f8f1df" stroke="#0d0c08" stroke-width="0"></rect><rect x="40" y="40" width="364" height="114" fill="#cabf9f" stroke="#0d0c08" stroke-width="1"></rect><text x="222" y="146" text-anchor="middle" dominant-baseline="central" font-family="Georgia, &quot;Times New Roman&quot;, serif" font-size="12" fill="#1b1810">1/3; 1 counters selected</text><rect x="480" y="40" width="364" height="114" fill="#cabf9f" stroke="#0d0c08" stroke-width="1"></rect><text x="662" y="146" text-anchor="middle" dominant-baseline="central" font-family="Georgia, &quot;Times New Roman&quot;, serif" font-size="12" fill="#1b1810">1/4; 1 counters selected</text><circle cx="64" cy="62" r="11" fill="#b95238" stroke="#0d0c08" stroke-width="1.25"></circle><circle cx="98" cy="62" r="11" fill="#cabf9f" stroke="#0d0c08" stroke-width="1.25"></circle><circle cx="132" cy="62" r="11" fill="#cabf9f" stroke="#0d0c08" stroke-width="1.25"></circle><circle cx="166" cy="62" r="11" fill="#cabf9f" stroke="#0d0c08" stroke-width="1.25"></circle><circle cx="200" cy="62" r="11" fill="#cabf9f" stroke="#0d0c08" stroke-width="1.25"></circle><circle cx="234" cy="62" r="11" fill="#cabf9f" stroke="#0d0c08" stroke-width="1.25"></circle><circle cx="268" cy="62" r="11" fill="#cabf9f" stroke="#0d0c08" stroke-width="1.25"></circle><circle cx="302" cy="62" r="11" fill="#cabf9f" stroke="#0d0c08" stroke-width="1.25"></circle><circle cx="336" cy="62" r="11" fill="#cabf9f" stroke="#0d0c08" stroke-width="1.25"></circle><circle cx="370" cy="62" r="11" fill="#cabf9f" stroke="#0d0c08" stroke-width="1.25"></circle><circle cx="64" cy="96" r="11" fill="#cabf9f" stroke="#0d0c08" stroke-width="1.25"></circle><circle cx="98" cy="96" r="11" fill="#cabf9f" stroke="#0d0c08" stroke-width="1.25"></circle><circle cx="504" cy="62" r="11" fill="#b95238" stroke="#0d0c08" stroke-width="1.25"></circle><circle cx="538" cy="62" r="11" fill="#cabf9f" stroke="#0d0c08" stroke-width="1.25"></circle><circle cx="572" cy="62" r="11" fill="#cabf9f" stroke="#0d0c08" stroke-width="1.25"></circle><circle cx="606" cy="62" r="11" fill="#cabf9f" stroke="#0d0c08" stroke-width="1.25"></circle><circle cx="640" cy="62" r="11" fill="#cabf9f" stroke="#0d0c08" stroke-width="1.25"></circle><circle cx="674" cy="62" r="11" fill="#cabf9f" stroke="#0d0c08" stroke-width="1.25"></circle><circle cx="708" cy="62" r="11" fill="#cabf9f" stroke="#0d0c08" stroke-width="1.25"></circle><circle cx="742" cy="62" r="11" fill="#cabf9f" stroke="#0d0c08" stroke-width="1.25"></circle><circle cx="776" cy="62" r="11" fill="#cabf9f" stroke="#0d0c08" stroke-width="1.25"></circle><circle cx="810" cy="62" r="11" fill="#cabf9f" stroke="#0d0c08" stroke-width="1.25"></circle><circle cx="504" cy="96" r="11" fill="#cabf9f" stroke="#0d0c08" stroke-width="1.25"></circle><circle cx="538" cy="96" r="11" fill="#cabf9f" stroke="#0d0c08" stroke-width="1.25"></circle></g><text x="3034" y="64" text-anchor="middle" font-family="system-ui,sans-serif" font-size="15" font-weight="700" fill="#1b1810">q accept</text><text x="3034" y="84" text-anchor="middle" font-family="system-ui,sans-serif" font-size="11" fill="#5a5446">accept: accept(equivalent).</text><g transform="translate(2878.3661971830984 174.8450704225352) scale(0.352112676056338)"><rect x="16" y="16" width="852" height="162" fill="#f8f1df" stroke="#0d0c08" stroke-width="0"></rect><rect x="40" y="40" width="364" height="114" fill="#cabf9f" stroke="#0d0c08" stroke-width="1"></rect><text x="222" y="146" text-anchor="middle" dominant-baseline="central" font-family="Georgia, &quot;Times New Roman&quot;, serif" font-size="12" fill="#1b1810">1/3; 1 counters selected</text><rect x="480" y="40" width="364" height="114" fill="#cabf9f" stroke="#0d0c08" stroke-width="1"></rect><text x="662" y="146" text-anchor="middle" dominant-baseline="central" font-family="Georgia, &quot;Times New Roman&quot;, serif" font-size="12" fill="#1b1810">1/4; 1 counters selected</text><circle cx="64" cy="62" r="11" fill="#b95238" stroke="#0d0c08" stroke-width="1.25"></circle><circle cx="98" cy="62" r="11" fill="#cabf9f" stroke="#0d0c08" stroke-width="1.25"></circle><circle cx="132" cy="62" r="11" fill="#cabf9f" stroke="#0d0c08" stroke-width="1.25"></circle><circle cx="166" cy="62" r="11" fill="#cabf9f" stroke="#0d0c08" stroke-width="1.25"></circle><circle cx="200" cy="62" r="11" fill="#cabf9f" stroke="#0d0c08" stroke-width="1.25"></circle><circle cx="234" cy="62" r="11" fill="#cabf9f" stroke="#0d0c08" stroke-width="1.25"></circle><circle cx="268" cy="62" r="11" fill="#cabf9f" stroke="#0d0c08" stroke-width="1.25"></circle><circle cx="302" cy="62" r="11" fill="#cabf9f" stroke="#0d0c08" stroke-width="1.25"></circle><circle cx="336" cy="62" r="11" fill="#cabf9f" stroke="#0d0c08" stroke-width="1.25"></circle><circle cx="370" cy="62" r="11" fill="#cabf9f" stroke="#0d0c08" stroke-width="1.25"></circle><circle cx="64" cy="96" r="11" fill="#cabf9f" stroke="#0d0c08" stroke-width="1.25"></circle><circle cx="98" cy="96" r="11" fill="#cabf9f" stroke="#0d0c08" stroke-width="1.25"></circle><circle cx="504" cy="62" r="11" fill="#b95238" stroke="#0d0c08" stroke-width="1.25"></circle><circle cx="538" cy="62" r="11" fill="#cabf9f" stroke="#0d0c08" stroke-width="1.25"></circle><circle cx="572" cy="62" r="11" fill="#cabf9f" stroke="#0d0c08" stroke-width="1.25"></circle><circle cx="606" cy="62" r="11" fill="#cabf9f" stroke="#0d0c08" stroke-width="1.25"></circle><circle cx="640" cy="62" r="11" fill="#cabf9f" stroke="#0d0c08" stroke-width="1.25"></circle><circle cx="674" cy="62" r="11" fill="#cabf9f" stroke="#0d0c08" stroke-width="1.25"></circle><circle cx="708" cy="62" r="11" fill="#cabf9f" stroke="#0d0c08" stroke-width="1.25"></circle><circle cx="742" cy="62" r="11" fill="#cabf9f" stroke="#0d0c08" stroke-width="1.25"></circle><circle cx="776" cy="62" r="11" fill="#cabf9f" stroke="#0d0c08" stroke-width="1.25"></circle><circle cx="810" cy="62" r="11" fill="#cabf9f" stroke="#0d0c08" stroke-width="1.25"></circle><circle cx="504" cy="96" r="11" fill="#cabf9f" stroke="#0d0c08" stroke-width="1.25"></circle><circle cx="538" cy="96" r="11" fill="#cabf9f" stroke="#0d0c08" stroke-width="1.25"></circle></g></svg>
