<svg xmlns="http://www.w3.org/2000/svg" viewBox="0 0 1172 336" role="img" aria-label="Wrong referent whole  |  bar  1/5"><rect x="0" y="0" width="1172" height="336" fill="#f8f1df"/><text x="24" y="24" font-family="Georgia, Times New Roman, serif" font-size="18" font-weight="700" fill="#1b1810">Wrong referent whole  |  bar  1/5</text><text x="204" y="60" text-anchor="middle" font-family="system-ui,sans-serif" font-size="14" font-weight="700" fill="#1b1810">B. establish_whole (1/5)</text><text x="204" y="78" text-anchor="middle" font-family="system-ui,sans-serif" font-size="10" fill="#5a5446">Establish the whole bar. One length, not yet partitioned.</text><g transform="translate(42.83928571428573 70.98214285714286) scale(0.8482142857142857)"><rect x="6" y="46" width="368" height="224" fill="#f8f1df" stroke="#0d0c08" stroke-width="0"></rect><rect x="30" y="70" width="320" height="76" fill="#cabf9f" stroke="#0d0c08" stroke-width="1.5"></rect><rect x="30" y="70" width="320" height="76" fill="none" stroke="#0d0c08" stroke-width="1.5"></rect><text x="190" y="108" text-anchor="middle" dominant-baseline="central" font-family="Georgia, &quot;Times New Roman&quot;, serif" font-size="20" fill="#1b1810">1 whole (target: 5 equal parts)</text></g><text x="586" y="60" text-anchor="middle" font-family="system-ui,sans-serif" font-size="14" font-weight="700" fill="#1b1810">M. apply_partition (1/5)</text><text x="586" y="78" text-anchor="middle" font-family="system-ui,sans-serif" font-size="10" fill="#5a5446">Partition a different, shorter whole into the parts, instead of</text><text x="586" y="91" text-anchor="middle" font-family="system-ui,sans-serif" font-size="10" fill="#5a5446">the full task bar above.</text><g transform="translate(424.8392857142857 70.98214285714286) scale(0.8482142857142857)"><rect x="6" y="46" width="368" height="224" fill="#f8f1df" stroke="#0d0c08" stroke-width="0"></rect><rect x="30" y="70" width="320" height="76" fill="#cabf9f" stroke="#0d0c08" stroke-width="1.5"></rect><rect x="30" y="70" width="320" height="76" fill="none" stroke="#0d0c08" stroke-width="1.5"></rect><text x="190" y="108" text-anchor="middle" dominant-baseline="central" font-family="Georgia, &quot;Times New Roman&quot;, serif" font-size="20" fill="#1b1810">task whole</text><rect x="30" y="170" width="176" height="76" fill="#cabf9f" stroke="#0d0c08" stroke-width="1.5"></rect><rect x="30" y="170" width="35.2" height="76" fill="#d4a747" stroke="#0d0c08" stroke-width="0.75"></rect><rect x="65.2" y="170" width="35.2" height="76" fill="#d4a747" stroke="#0d0c08" stroke-width="0.75"></rect><rect x="100.4" y="170" width="35.2" height="76" fill="#d4a747" stroke="#0d0c08" stroke-width="0.75"></rect><rect x="135.60000000000002" y="170" width="35.2" height="76" fill="#d4a747" stroke="#0d0c08" stroke-width="0.75"></rect><rect x="170.8" y="170" width="35.2" height="76" fill="#d4a747" stroke="#0d0c08" stroke-width="0.75"></rect><rect x="30" y="170" width="176" height="76" fill="none" stroke="#0d0c08" stroke-width="1.5"></rect><text x="118" y="208" text-anchor="middle" dominant-baseline="central" font-family="Georgia, &quot;Times New Roman&quot;, serif" font-size="20" fill="#1b1810">a DIFFERENT (shorter) whole, partitioned into 5</text></g><text x="968" y="60" text-anchor="middle" font-family="system-ui,sans-serif" font-size="14" font-weight="700" fill="#1b1810">E. shade_parts (1/5)</text><text x="968" y="78" text-anchor="middle" font-family="system-ui,sans-serif" font-size="10" fill="#5a5446">Shade the parts of the shorter whole. The fraction is of the</text><text x="968" y="91" text-anchor="middle" font-family="system-ui,sans-serif" font-size="10" fill="#5a5446">wrong referent, not the task bar above.</text><g transform="translate(806.8392857142858 70.98214285714286) scale(0.8482142857142857)"><rect x="6" y="46" width="368" height="224" fill="#f8f1df" stroke="#0d0c08" stroke-width="0"></rect><rect x="30" y="70" width="320" height="76" fill="#cabf9f" stroke="#0d0c08" stroke-width="1.5"></rect><rect x="30" y="70" width="320" height="76" fill="none" stroke="#0d0c08" stroke-width="1.5"></rect><text x="190" y="108" text-anchor="middle" dominant-baseline="central" font-family="Georgia, &quot;Times New Roman&quot;, serif" font-size="20" fill="#1b1810">task whole</text><rect x="30" y="170" width="176" height="76" fill="#cabf9f" stroke="#0d0c08" stroke-width="1.5"></rect><rect x="30" y="170" width="35.2" height="76" fill="#b95238" stroke="#0d0c08" stroke-width="0.75"></rect><rect x="65.2" y="170" width="35.2" height="76" fill="#d4a747" stroke="#0d0c08" stroke-width="0.75"></rect><rect x="100.4" y="170" width="35.2" height="76" fill="#d4a747" stroke="#0d0c08" stroke-width="0.75"></rect><rect x="135.60000000000002" y="170" width="35.2" height="76" fill="#d4a747" stroke="#0d0c08" stroke-width="0.75"></rect><rect x="170.8" y="170" width="35.2" height="76" fill="#d4a747" stroke="#0d0c08" stroke-width="0.75"></rect><rect x="30" y="170" width="176" height="76" fill="none" stroke="#0d0c08" stroke-width="1.5"></rect><text x="118" y="208" text-anchor="middle" dominant-baseline="central" font-family="Georgia, &quot;Times New Roman&quot;, serif" font-size="20" fill="#1b1810">1/5 of the WRONG whole</text></g></svg>
