<svg xmlns="http://www.w3.org/2000/svg" viewBox="0 0 1058 350" role="img" aria-label="Transplant deformation of 1/5 onto a rectangle"><rect x="0" y="0" width="1058" height="350" fill="#f8f1df"/><text x="529" y="28" text-anchor="middle" font-family="Georgia, 'Times New Roman', serif" font-size="20" font-weight="700" fill="#1b1810">Transplant deformation of 1/5 onto a rectangle</text><text x="142" y="64" text-anchor="middle" font-family="system-ui,sans-serif" font-size="15" font-weight="700" fill="#1b1810">establish whole</text><text x="142" y="84" text-anchor="middle" font-family="system-ui,sans-serif" font-size="11" fill="#5a5446">Choose a rectangle as the host.</text><g transform="translate(-37.31034482758623 89.17241379310343) scale(0.6896551724137931)"><rect x="86" y="47" width="348" height="268" fill="#f8f1df" stroke="#0d0c08" stroke-width="0"></rect><rect x="110" y="86" width="300" height="190" fill="#cabf9f" stroke="#0d0c08" stroke-width="1.25"></rect><rect x="110" y="86" width="300" height="190" fill="none" stroke="#0d0c08" stroke-width="1.75"></rect><text x="260" y="298" text-anchor="middle" dominant-baseline="central" font-family="Georgia, &quot;Times New Roman&quot;, serif" font-size="14" fill="#1b1810">one whole</text></g><text x="400" y="64" text-anchor="middle" font-family="system-ui,sans-serif" font-size="15" font-weight="700" fill="#1b1810">licensed home</text><text x="400" y="84" text-anchor="middle" font-family="system-ui,sans-serif" font-size="11" fill="#5a5446">The radial partition rule is licensed inside the circle's own vocabulary</text><g transform="translate(220.68965517241378 89.17241379310343) scale(0.6896551724137931)"><rect x="86" y="47" width="348" height="268" fill="#f8f1df" stroke="#0d0c08" stroke-width="0"></rect><circle cx="260" cy="181" r="94" fill="#cabf9f" stroke="#0d0c08" stroke-width="1.5"></circle><text x="260" y="297" text-anchor="middle" dominant-baseline="central" font-family="Georgia, &quot;Times New Roman&quot;, serif" font-size="14" fill="#1b1810">one whole</text><line x1="260" y1="181" x2="260" y2="87" stroke="#d4a747" stroke-width="1.4"></line><line x1="260" y1="181" x2="349.39931253174444" y2="151.95240252875493" stroke="#d4a747" stroke-width="1.4"></line><line x1="260" y1="181" x2="315.25181371549246" y2="257.04759747124507" stroke="#d4a747" stroke-width="1.4"></line><line x1="260" y1="181" x2="204.74818628450754" y2="257.04759747124507" stroke="#d4a747" stroke-width="1.4"></line><line x1="260" y1="181" x2="170.60068746825556" y2="151.95240252875496" stroke="#d4a747" stroke-width="1.4"></line></g><text x="658" y="64" text-anchor="middle" font-family="system-ui,sans-serif" font-size="15" font-weight="700" fill="#1b1810">apply foreign partition</text><text x="658" y="84" text-anchor="middle" font-family="system-ui,sans-serif" font-size="11" fill="#5a5446">Transplant the radial partition rule onto the rectangle, cut into 5: the</text><g transform="translate(478.6896551724138 89.17241379310343) scale(0.6896551724137931)"><rect x="86" y="47" width="348" height="268" fill="#f8f1df" stroke="#0d0c08" stroke-width="0"></rect><rect x="110" y="86" width="300" height="190" fill="#cabf9f" stroke="#0d0c08" stroke-width="1.25"></rect><rect x="110" y="86" width="300" height="190" fill="none" stroke="#0d0c08" stroke-width="1.75"></rect><text x="260" y="298" text-anchor="middle" dominant-baseline="central" font-family="Georgia, &quot;Times New Roman&quot;, serif" font-size="14" fill="#1b1810">one whole</text><line x1="260" y1="181" x2="260" y2="86" stroke="#b95238" stroke-width="2.4" stroke-dasharray="9 5"></line><line x1="260" y1="181" x2="410" y2="132.26204556506406" stroke="#b95238" stroke-width="2.4" stroke-dasharray="9 5"></line><line x1="260" y1="181" x2="329.0215401605093" y2="276" stroke="#b95238" stroke-width="2.4" stroke-dasharray="9 5"></line><line x1="260" y1="181" x2="190.9784598394907" y2="276" stroke="#b95238" stroke-width="2.4" stroke-dasharray="9 5"></line><line x1="260" y1="181" x2="110" y2="132.26204556506408" stroke="#b95238" stroke-width="2.4" stroke-dasharray="9 5"></line></g><text x="916" y="64" text-anchor="middle" font-family="system-ui,sans-serif" font-size="15" font-weight="700" fill="#1b1810">hybrid result</text><text x="916" y="84" text-anchor="middle" font-family="system-ui,sans-serif" font-size="11" fill="#5a5446">Hybridized model of 1/5: a foreign partition rule on an illicit host.</text><g transform="translate(736.6896551724138 89.17241379310343) scale(0.6896551724137931)"><rect x="86" y="47" width="348" height="268" fill="#f8f1df" stroke="#0d0c08" stroke-width="0"></rect><rect x="110" y="86" width="300" height="190" fill="#cabf9f" stroke="#0d0c08" stroke-width="1.25"></rect><rect x="110" y="86" width="300" height="190" fill="none" stroke="#0d0c08" stroke-width="1.75"></rect><text x="260" y="298" text-anchor="middle" dominant-baseline="central" font-family="Georgia, &quot;Times New Roman&quot;, serif" font-size="14" fill="#1b1810">one whole</text><line x1="260" y1="181" x2="260" y2="86" stroke="#b95238" stroke-width="2.4" stroke-dasharray="9 5"></line><line x1="260" y1="181" x2="410" y2="132.26204556506406" stroke="#b95238" stroke-width="2.4" stroke-dasharray="9 5"></line><line x1="260" y1="181" x2="329.0215401605093" y2="276" stroke="#b95238" stroke-width="2.4" stroke-dasharray="9 5"></line><line x1="260" y1="181" x2="190.9784598394907" y2="276" stroke="#b95238" stroke-width="2.4" stroke-dasharray="9 5"></line><line x1="260" y1="181" x2="110" y2="132.26204556506408" stroke="#b95238" stroke-width="2.4" stroke-dasharray="9 5"></line></g></svg>
