<svg xmlns="http://www.w3.org/2000/svg" viewBox="0 0 1138 370" role="img" aria-label="The same deformation across 1/4, 1/5, 1/6, 1/8"><rect x="0" y="0" width="1138" height="370" fill="#f8f1df"/><text x="569" y="28" text-anchor="middle" font-family="Georgia, 'Times New Roman', serif" font-size="20" font-weight="700" fill="#1b1810">The same deformation across 1/4, 1/5, 1/6, 1/8</text><text x="152" y="64" text-anchor="middle" font-family="system-ui,sans-serif" font-size="15" font-weight="700" fill="#1b1810">1/4</text><text x="152" y="84" text-anchor="middle" font-family="system-ui,sans-serif" font-size="11" fill="#5a5446">1/4: unequal strips</text><g transform="translate(-103.59322033898306 46.06779661016949) scale(0.9830508474576272)"><rect x="142" y="63" width="236" height="236" fill="#f8f1df" stroke="#0d0c08" stroke-width="0"></rect><circle cx="260" cy="181" r="94" fill="#cabf9f" stroke="#0d0c08" stroke-width="1.5"></circle><text x="260" y="297" text-anchor="middle" dominant-baseline="central" font-family="Georgia, &quot;Times New Roman&quot;, serif" font-size="14" fill="#1b1810">one whole</text><polygon points="166,181 169.91666666666666,154.14868614842928 173.83333333333334,143.43265306738368 177.75,135.49244568206285 181.66666666666666,129.03954495109875 185.58333333333334,123.57039333042387 189.5,118.82484418998212 193.41666666666666,114.64745881111847 197.33333333333334,110.93653670500657 201.25,107.62127351881882 205.16666666666669,104.6501109656631 209.08333333333331,101.98422274282463 213,99.59361204426277 213,262.4063879557372 209.08333333333331,260.0157772571754 205.16666666666669,257.3498890343369 201.25,254.37872648118116 197.33333333333334,251.06346329499343 193.41666666666666,247.35254118888153 189.5,243.17515581001788 185.58333333333334,238.42960666957612 181.66666666666666,232.96045504890125 177.75,226.50755431793715 173.83333333333334,218.56734693261632 169.91666666666666,207.85131385157072 166,181" fill="#b95238" opacity="0.55" stroke="none"></polygon><line x1="213" y1="99.59361204426277" x2="213" y2="262.4063879557372" stroke="#b95238" stroke-width="2.4" stroke-dasharray="9 5"></line><line x1="260" y1="87" x2="260" y2="275" stroke="#b95238" stroke-width="2.4" stroke-dasharray="9 5"></line><line x1="307" y1="99.59361204426277" x2="307" y2="262.4063879557372" stroke="#b95238" stroke-width="2.4" stroke-dasharray="9 5"></line></g><text x="430" y="64" text-anchor="middle" font-family="system-ui,sans-serif" font-size="15" font-weight="700" fill="#1b1810">1/5</text><text x="430" y="84" text-anchor="middle" font-family="system-ui,sans-serif" font-size="11" fill="#5a5446">1/5: unequal strips</text><g transform="translate(174.40677966101694 46.06779661016949) scale(0.9830508474576272)"><rect x="142" y="63" width="236" height="236" fill="#f8f1df" stroke="#0d0c08" stroke-width="0"></rect><circle cx="260" cy="181" r="94" fill="#cabf9f" stroke="#0d0c08" stroke-width="1.5"></circle><text x="260" y="297" text-anchor="middle" dominant-baseline="central" font-family="Georgia, &quot;Times New Roman&quot;, serif" font-size="14" fill="#1b1810">one whole</text><polygon points="166,181 169.13333333333333,156.93240999001173 172.26666666666665,147.25296720862383 175.4,140.02634993071766 178.53333333333333,134.10456075243326 181.66666666666666,129.03954495109875 184.8,124.59999999999998 187.93333333333334,120.64773777599089 191.06666666666666,117.09228876297044 194.2,113.87057277169723 197.33333333333331,110.9365367050066 200.46666666666667,108.25536293153823 203.6,105.80000000000001 203.6,256.2 200.46666666666667,253.74463706846177 197.33333333333331,251.0634632949934 194.2,248.12942722830277 191.06666666666666,244.90771123702956 187.93333333333334,241.3522622240091 184.8,237.40000000000003 181.66666666666666,232.96045504890125 178.53333333333333,227.89543924756674 175.4,221.97365006928234 172.26666666666665,214.74703279137617 169.13333333333333,205.06759000998827 166,181" fill="#b95238" opacity="0.55" stroke="none"></polygon><line x1="203.6" y1="105.80000000000001" x2="203.6" y2="256.2" stroke="#b95238" stroke-width="2.4" stroke-dasharray="9 5"></line><line x1="241.2" y1="88.89918567135251" x2="241.2" y2="273.1008143286475" stroke="#b95238" stroke-width="2.4" stroke-dasharray="9 5"></line><line x1="278.8" y1="88.89918567135251" x2="278.8" y2="273.1008143286475" stroke="#b95238" stroke-width="2.4" stroke-dasharray="9 5"></line><line x1="316.4" y1="105.79999999999998" x2="316.4" y2="256.20000000000005" stroke="#b95238" stroke-width="2.4" stroke-dasharray="9 5"></line></g><text x="708" y="64" text-anchor="middle" font-family="system-ui,sans-serif" font-size="15" font-weight="700" fill="#1b1810">1/6</text><text x="708" y="84" text-anchor="middle" font-family="system-ui,sans-serif" font-size="11" fill="#5a5446">1/6: unequal strips</text><g transform="translate(452.4067796610169 46.06779661016949) scale(0.9830508474576272)"><rect x="142" y="63" width="236" height="236" fill="#f8f1df" stroke="#0d0c08" stroke-width="0"></rect><circle cx="260" cy="181" r="94" fill="#cabf9f" stroke="#0d0c08" stroke-width="1.5"></circle><text x="260" y="297" text-anchor="middle" dominant-baseline="central" font-family="Georgia, &quot;Times New Roman&quot;, serif" font-size="14" fill="#1b1810">one whole</text><polygon points="166,181 168.61111111111111,158.9983867033728 171.22222222222223,150.10491668825753 173.83333333333334,143.43265306738368 176.44444444444446,137.93645235465996 179.05555555555557,133.2088197092785 181.66666666666669,129.03954495109872 184.27777777777777,125.30309647989043 186.88888888888889,121.91730006085737 189.5,118.82484418998212 192.11111111111111,115.98385765494773 194.72222222222223,113.3626454657261 197.33333333333334,110.93653670500657 197.33333333333334,251.06346329499343 194.72222222222223,248.6373545342739 192.11111111111111,246.0161423450523 189.5,243.17515581001788 186.88888888888889,240.08269993914263 184.27777777777777,236.69690352010957 181.66666666666669,232.96045504890128 179.05555555555557,228.7911802907215 176.44444444444446,224.06354764534004 173.83333333333334,218.56734693261632 171.22222222222223,211.89508331174247 168.61111111111111,203.0016132966272 166,181" fill="#b95238" opacity="0.55" stroke="none"></polygon><line x1="197.33333333333334" y1="110.93653670500657" x2="197.33333333333334" y2="251.06346329499343" stroke="#b95238" stroke-width="2.4" stroke-dasharray="9 5"></line><line x1="228.66666666666666" y1="92.37595009128604" x2="228.66666666666666" y2="269.62404990871397" stroke="#b95238" stroke-width="2.4" stroke-dasharray="9 5"></line><line x1="260" y1="87" x2="260" y2="275" stroke="#b95238" stroke-width="2.4" stroke-dasharray="9 5"></line><line x1="291.3333333333333" y1="92.37595009128604" x2="291.3333333333333" y2="269.62404990871397" stroke="#b95238" stroke-width="2.4" stroke-dasharray="9 5"></line><line x1="322.66666666666663" y1="110.93653670500655" x2="322.66666666666663" y2="251.06346329499345" stroke="#b95238" stroke-width="2.4" stroke-dasharray="9 5"></line></g><text x="986" y="64" text-anchor="middle" font-family="system-ui,sans-serif" font-size="15" font-weight="700" fill="#1b1810">1/8</text><text x="986" y="84" text-anchor="middle" font-family="system-ui,sans-serif" font-size="11" fill="#5a5446">1/8: unequal strips</text><g transform="translate(730.4067796610169 46.06779661016949) scale(0.9830508474576272)"><rect x="142" y="63" width="236" height="236" fill="#f8f1df" stroke="#0d0c08" stroke-width="0"></rect><circle cx="260" cy="181" r="94" fill="#cabf9f" stroke="#0d0c08" stroke-width="1.5"></circle><text x="260" y="297" text-anchor="middle" dominant-baseline="central" font-family="Georgia, &quot;Times New Roman&quot;, serif" font-size="14" fill="#1b1810">one whole</text><polygon points="166,181 167.95833333333334,161.91252774141572 169.91666666666666,154.14868614842928 171.875,148.28938436837362 173.83333333333334,143.43265306738368 175.79166666666666,139.22732235991782 177.75,135.49244568206285 179.70833333333334,132.1200627671343 181.66666666666666,129.03954495109875 183.625,126.20164806310322 185.58333333333334,123.57039333042387 187.54166666666666,121.11853433193578 189.5,118.82484418998212 189.5,243.17515581001788 187.54166666666666,240.8814656680642 185.58333333333334,238.42960666957612 183.625,235.79835193689678 181.66666666666666,232.96045504890125 179.70833333333334,229.8799372328657 177.75,226.50755431793715 175.79166666666666,222.77267764008218 173.83333333333334,218.56734693261632 171.875,213.71061563162638 169.91666666666666,207.85131385157072 167.95833333333334,200.08747225858428 166,181" fill="#b95238" opacity="0.55" stroke="none"></polygon><line x1="189.5" y1="118.82484418998212" x2="189.5" y2="243.17515581001788" stroke="#b95238" stroke-width="2.4" stroke-dasharray="9 5"></line><line x1="213" y1="99.59361204426277" x2="213" y2="262.4063879557372" stroke="#b95238" stroke-width="2.4" stroke-dasharray="9 5"></line><line x1="236.5" y1="89.9848913641257" x2="236.5" y2="272.0151086358743" stroke="#b95238" stroke-width="2.4" stroke-dasharray="9 5"></line><line x1="260" y1="87" x2="260" y2="275" stroke="#b95238" stroke-width="2.4" stroke-dasharray="9 5"></line><line x1="283.5" y1="89.9848913641257" x2="283.5" y2="272.0151086358743" stroke="#b95238" stroke-width="2.4" stroke-dasharray="9 5"></line><line x1="307" y1="99.59361204426277" x2="307" y2="262.4063879557372" stroke="#b95238" stroke-width="2.4" stroke-dasharray="9 5"></line><line x1="330.5" y1="118.82484418998212" x2="330.5" y2="243.17515581001788" stroke="#b95238" stroke-width="2.4" stroke-dasharray="9 5"></line></g></svg>
