<svg xmlns="http://www.w3.org/2000/svg" viewBox="0 0 702 370" role="img" aria-label="rectangle: correct 1/5 vs the transplant botch"><rect x="0" y="0" width="702" height="370" fill="#f8f1df"/><text x="351" y="28" text-anchor="middle" font-family="Georgia, 'Times New Roman', serif" font-size="20" font-weight="700" fill="#1b1810">rectangle: correct 1/5 vs the transplant botch</text><text x="182" y="64" text-anchor="middle" font-family="system-ui,sans-serif" font-size="15" font-weight="700" fill="#1b1810">Productive (licensed rule)</text><text x="182" y="84" text-anchor="middle" font-family="system-ui,sans-serif" font-size="11" fill="#5a5446">the rectangle's own partition rule: equal parts, solid</text><g transform="translate(-43.07462686567163 67.31343283582092) scale(0.8656716417910447)"><rect x="86" y="47" width="348" height="268" fill="#f8f1df" stroke="#0d0c08" stroke-width="0"></rect><rect x="110" y="86" width="300" height="190" fill="#cabf9f" stroke="#0d0c08" stroke-width="1.25"></rect><rect x="110" y="86" width="300" height="190" fill="none" stroke="#0d0c08" stroke-width="1.75"></rect><text x="260" y="298" text-anchor="middle" dominant-baseline="central" font-family="Georgia, &quot;Times New Roman&quot;, serif" font-size="14" fill="#1b1810">one whole</text><rect x="110" y="86" width="60" height="190" fill="#d4a747" opacity="0.42" stroke="none"></rect><line x1="170" y1="86" x2="170" y2="276" stroke="#d4a747" stroke-width="1.4"></line><line x1="230" y1="86" x2="230" y2="276" stroke="#d4a747" stroke-width="1.4"></line><line x1="290" y1="86" x2="290" y2="276" stroke="#d4a747" stroke-width="1.4"></line><line x1="350" y1="86" x2="350" y2="276" stroke="#d4a747" stroke-width="1.4"></line></g><text x="520" y="64" text-anchor="middle" font-family="system-ui,sans-serif" font-size="15" font-weight="700" fill="#1b1810">Deformed (transplant)</text><text x="520" y="84" text-anchor="middle" font-family="system-ui,sans-serif" font-size="11" fill="#5a5446">a foreign rule on the rectangle: unequal parts, dashed</text><g transform="translate(294.92537313432837 67.31343283582092) scale(0.8656716417910447)"><rect x="86" y="47" width="348" height="268" fill="#f8f1df" stroke="#0d0c08" stroke-width="0"></rect><rect x="110" y="86" width="300" height="190" fill="#cabf9f" stroke="#0d0c08" stroke-width="1.25"></rect><rect x="110" y="86" width="300" height="190" fill="none" stroke="#0d0c08" stroke-width="1.75"></rect><text x="260" y="298" text-anchor="middle" dominant-baseline="central" font-family="Georgia, &quot;Times New Roman&quot;, serif" font-size="14" fill="#1b1810">one whole</text><line x1="260" y1="181" x2="260" y2="86" stroke="#b95238" stroke-width="2.4" stroke-dasharray="9 5"></line><line x1="260" y1="181" x2="410" y2="132.26204556506406" stroke="#b95238" stroke-width="2.4" stroke-dasharray="9 5"></line><line x1="260" y1="181" x2="329.0215401605093" y2="276" stroke="#b95238" stroke-width="2.4" stroke-dasharray="9 5"></line><line x1="260" y1="181" x2="190.9784598394907" y2="276" stroke="#b95238" stroke-width="2.4" stroke-dasharray="9 5"></line><line x1="260" y1="181" x2="110" y2="132.26204556506408" stroke="#b95238" stroke-width="2.4" stroke-dasharray="9 5"></line></g></svg>
