<svg xmlns="http://www.w3.org/2000/svg" viewBox="0 0 702 370" role="img" aria-label="circle: correct 1/5 vs the transplant botch"><rect x="0" y="0" width="702" height="370" fill="#f8f1df"/><text x="351" y="28" text-anchor="middle" font-family="Georgia, 'Times New Roman', serif" font-size="20" font-weight="700" fill="#1b1810">circle: correct 1/5 vs the transplant botch</text><text x="182" y="64" text-anchor="middle" font-family="system-ui,sans-serif" font-size="15" font-weight="700" fill="#1b1810">Productive (licensed rule)</text><text x="182" y="84" text-anchor="middle" font-family="system-ui,sans-serif" font-size="11" fill="#5a5446">the circle's own partition rule: equal parts, solid</text><g transform="translate(-73.59322033898306 46.06779661016949) scale(0.9830508474576272)"><rect x="142" y="63" width="236" height="236" fill="#f8f1df" stroke="#0d0c08" stroke-width="0"></rect><circle cx="260" cy="181" r="94" fill="#cabf9f" stroke="#0d0c08" stroke-width="1.5"></circle><text x="260" y="297" text-anchor="middle" dominant-baseline="central" font-family="Georgia, &quot;Times New Roman&quot;, serif" font-size="14" fill="#1b1810">one whole</text><line x1="260" y1="181" x2="260" y2="87" stroke="#d4a747" stroke-width="1.4"></line><line x1="260" y1="181" x2="349.39931253174444" y2="151.95240252875493" stroke="#d4a747" stroke-width="1.4"></line><line x1="260" y1="181" x2="315.25181371549246" y2="257.04759747124507" stroke="#d4a747" stroke-width="1.4"></line><line x1="260" y1="181" x2="204.74818628450754" y2="257.04759747124507" stroke="#d4a747" stroke-width="1.4"></line><line x1="260" y1="181" x2="170.60068746825556" y2="151.95240252875496" stroke="#d4a747" stroke-width="1.4"></line></g><text x="520" y="64" text-anchor="middle" font-family="system-ui,sans-serif" font-size="15" font-weight="700" fill="#1b1810">Deformed (transplant)</text><text x="520" y="84" text-anchor="middle" font-family="system-ui,sans-serif" font-size="11" fill="#5a5446">a foreign rule on the circle: unequal parts, dashed</text><g transform="translate(264.4067796610169 46.06779661016949) scale(0.9830508474576272)"><rect x="142" y="63" width="236" height="236" fill="#f8f1df" stroke="#0d0c08" stroke-width="0"></rect><circle cx="260" cy="181" r="94" fill="#cabf9f" stroke="#0d0c08" stroke-width="1.5"></circle><text x="260" y="297" text-anchor="middle" dominant-baseline="central" font-family="Georgia, &quot;Times New Roman&quot;, serif" font-size="14" fill="#1b1810">one whole</text><polygon points="166,181 169.13333333333333,156.93240999001173 172.26666666666665,147.25296720862383 175.4,140.02634993071766 178.53333333333333,134.10456075243326 181.66666666666666,129.03954495109875 184.8,124.59999999999998 187.93333333333334,120.64773777599089 191.06666666666666,117.09228876297044 194.2,113.87057277169723 197.33333333333331,110.9365367050066 200.46666666666667,108.25536293153823 203.6,105.80000000000001 203.6,256.2 200.46666666666667,253.74463706846177 197.33333333333331,251.0634632949934 194.2,248.12942722830277 191.06666666666666,244.90771123702956 187.93333333333334,241.3522622240091 184.8,237.40000000000003 181.66666666666666,232.96045504890125 178.53333333333333,227.89543924756674 175.4,221.97365006928234 172.26666666666665,214.74703279137617 169.13333333333333,205.06759000998827 166,181" fill="#b95238" opacity="0.55" stroke="none"></polygon><line x1="203.6" y1="105.80000000000001" x2="203.6" y2="256.2" stroke="#b95238" stroke-width="2.4" stroke-dasharray="9 5"></line><line x1="241.2" y1="88.89918567135251" x2="241.2" y2="273.1008143286475" stroke="#b95238" stroke-width="2.4" stroke-dasharray="9 5"></line><line x1="278.8" y1="88.89918567135251" x2="278.8" y2="273.1008143286475" stroke="#b95238" stroke-width="2.4" stroke-dasharray="9 5"></line><line x1="316.4" y1="105.79999999999998" x2="316.4" y2="256.20000000000005" stroke="#b95238" stroke-width="2.4" stroke-dasharray="9 5"></line></g></svg>
