<svg xmlns="http://www.w3.org/2000/svg" viewBox="0 0 702 370" role="img" aria-label="set: correct 1/5 vs the transplant botch"><rect x="0" y="0" width="702" height="370" fill="#f8f1df"/><text x="351" y="28" text-anchor="middle" font-family="Georgia, 'Times New Roman', serif" font-size="20" font-weight="700" fill="#1b1810">set: correct 1/5 vs the transplant botch</text><text x="182" y="64" text-anchor="middle" font-family="system-ui,sans-serif" font-size="15" font-weight="700" fill="#1b1810">Productive (licensed rule)</text><text x="182" y="84" text-anchor="middle" font-family="system-ui,sans-serif" font-size="11" fill="#5a5446">the set's own partition rule: equal parts, solid</text><g transform="translate(-51.14851485148513 23.009900990099027) scale(1.1485148514851484)"><rect x="102" y="74" width="202" height="202" fill="#f8f1df" stroke="#0d0c08" stroke-width="0"></rect><circle cx="160" cy="132" r="34" fill="#cabf9f" stroke="#0d0c08" stroke-width="1.5"></circle><circle cx="246" cy="132" r="34" fill="#cabf9f" stroke="#0d0c08" stroke-width="1.5"></circle><circle cx="160" cy="218" r="34" fill="#cabf9f" stroke="#0d0c08" stroke-width="1.5"></circle><text x="203" y="274" text-anchor="middle" dominant-baseline="central" font-family="Georgia, &quot;Times New Roman&quot;, serif" font-size="14" fill="#1b1810">one whole (a set)</text><path d="M 160 132 L 160 98 A 34 34 0 0 1 192.33592155403522 121.4934221912518 Z" fill="#d4a747" opacity="0.45" stroke="none"></path><line x1="160" y1="132" x2="160" y2="98" stroke="#d4a747" stroke-width="1.3"></line><line x1="160" y1="132" x2="192.33592155403522" y2="121.4934221912518" stroke="#d4a747" stroke-width="1.3"></line><line x1="160" y1="132" x2="179.98469857794407" y2="159.5065778087482" stroke="#d4a747" stroke-width="1.3"></line><line x1="160" y1="132" x2="140.01530142205593" y2="159.5065778087482" stroke="#d4a747" stroke-width="1.3"></line><line x1="160" y1="132" x2="127.66407844596478" y2="121.4934221912518" stroke="#d4a747" stroke-width="1.3"></line><line x1="246" y1="132" x2="246" y2="98" stroke="#d4a747" stroke-width="1.3"></line><line x1="246" y1="132" x2="278.3359215540352" y2="121.4934221912518" stroke="#d4a747" stroke-width="1.3"></line><line x1="246" y1="132" x2="265.9846985779441" y2="159.5065778087482" stroke="#d4a747" stroke-width="1.3"></line><line x1="246" y1="132" x2="226.01530142205593" y2="159.5065778087482" stroke="#d4a747" stroke-width="1.3"></line><line x1="246" y1="132" x2="213.66407844596478" y2="121.4934221912518" stroke="#d4a747" stroke-width="1.3"></line><line x1="160" y1="218" x2="160" y2="184" stroke="#d4a747" stroke-width="1.3"></line><line x1="160" y1="218" x2="192.33592155403522" y2="207.4934221912518" stroke="#d4a747" stroke-width="1.3"></line><line x1="160" y1="218" x2="179.98469857794407" y2="245.5065778087482" stroke="#d4a747" stroke-width="1.3"></line><line x1="160" y1="218" x2="140.01530142205593" y2="245.5065778087482" stroke="#d4a747" stroke-width="1.3"></line><line x1="160" y1="218" x2="127.66407844596478" y2="207.4934221912518" stroke="#d4a747" stroke-width="1.3"></line></g><text x="520" y="64" text-anchor="middle" font-family="system-ui,sans-serif" font-size="15" font-weight="700" fill="#1b1810">Deformed (transplant)</text><text x="520" y="84" text-anchor="middle" font-family="system-ui,sans-serif" font-size="11" fill="#5a5446">a foreign rule on the set: unequal parts, dashed</text><g transform="translate(286.8514851485148 23.009900990099027) scale(1.1485148514851484)"><rect x="102" y="74" width="202" height="202" fill="#f8f1df" stroke="#0d0c08" stroke-width="0"></rect><circle cx="160" cy="132" r="34" fill="#cabf9f" stroke="#0d0c08" stroke-width="1.5"></circle><circle cx="246" cy="132" r="34" fill="#cabf9f" stroke="#0d0c08" stroke-width="1.5"></circle><circle cx="160" cy="218" r="34" fill="#cabf9f" stroke="#0d0c08" stroke-width="1.5"></circle><text x="203" y="274" text-anchor="middle" dominant-baseline="central" font-family="Georgia, &quot;Times New Roman&quot;, serif" font-size="14" fill="#1b1810">one whole (a set)</text><path d="M 160 132 L 160 98 A 34 34 0 0 1 192.33592155403522 121.4934221912518 Z" fill="#b95238" opacity="0.7" stroke="none"></path><line x1="160" y1="132" x2="160" y2="98" stroke="#b95238" stroke-width="2.2" stroke-dasharray="7 4"></line><line x1="160" y1="132" x2="192.33592155403522" y2="121.4934221912518" stroke="#b95238" stroke-width="2.2" stroke-dasharray="7 4"></line><line x1="160" y1="132" x2="179.98469857794407" y2="159.5065778087482" stroke="#b95238" stroke-width="2.2" stroke-dasharray="7 4"></line><line x1="160" y1="132" x2="140.01530142205593" y2="159.5065778087482" stroke="#b95238" stroke-width="2.2" stroke-dasharray="7 4"></line><line x1="160" y1="132" x2="127.66407844596478" y2="121.4934221912518" stroke="#b95238" stroke-width="2.2" stroke-dasharray="7 4"></line><line x1="246" y1="132" x2="246" y2="98" stroke="#b95238" stroke-width="2.2" stroke-dasharray="7 4"></line><line x1="246" y1="132" x2="278.3359215540352" y2="121.4934221912518" stroke="#b95238" stroke-width="2.2" stroke-dasharray="7 4"></line><line x1="246" y1="132" x2="265.9846985779441" y2="159.5065778087482" stroke="#b95238" stroke-width="2.2" stroke-dasharray="7 4"></line><line x1="246" y1="132" x2="226.01530142205593" y2="159.5065778087482" stroke="#b95238" stroke-width="2.2" stroke-dasharray="7 4"></line><line x1="246" y1="132" x2="213.66407844596478" y2="121.4934221912518" stroke="#b95238" stroke-width="2.2" stroke-dasharray="7 4"></line><line x1="160" y1="218" x2="160" y2="184" stroke="#b95238" stroke-width="2.2" stroke-dasharray="7 4"></line><line x1="160" y1="218" x2="192.33592155403522" y2="207.4934221912518" stroke="#b95238" stroke-width="2.2" stroke-dasharray="7 4"></line><line x1="160" y1="218" x2="179.98469857794407" y2="245.5065778087482" stroke="#b95238" stroke-width="2.2" stroke-dasharray="7 4"></line><line x1="160" y1="218" x2="140.01530142205593" y2="245.5065778087482" stroke="#b95238" stroke-width="2.2" stroke-dasharray="7 4"></line><line x1="160" y1="218" x2="127.66407844596478" y2="207.4934221912518" stroke="#b95238" stroke-width="2.2" stroke-dasharray="7 4"></line></g></svg>
