<svg xmlns="http://www.w3.org/2000/svg" viewBox="0 0 890 350" role="img" aria-label="Productive 1/5 on a set (establish -&gt; partition -&gt; shade)"><rect x="0" y="0" width="890" height="350" fill="#f8f1df"/><text x="445" y="28" text-anchor="middle" font-family="Georgia, 'Times New Roman', serif" font-size="20" font-weight="700" fill="#1b1810">Productive 1/5 on a set (establish -&gt; partition -&gt; shade)</text><text x="157" y="64" text-anchor="middle" font-family="system-ui,sans-serif" font-size="15" font-weight="700" fill="#1b1810">establish whole</text><text x="157" y="84" text-anchor="middle" font-family="system-ui,sans-serif" font-size="11" fill="#5a5446">Establish one whole as a set.</text><g transform="translate(-56.04950495049505 30.336633663366328) scale(1.0495049504950495)"><rect x="102" y="74" width="202" height="202" fill="#f8f1df" stroke="#0d0c08" stroke-width="0"></rect><circle cx="160" cy="132" r="34" fill="#cabf9f" stroke="#0d0c08" stroke-width="1.5"></circle><circle cx="246" cy="132" r="34" fill="#cabf9f" stroke="#0d0c08" stroke-width="1.5"></circle><circle cx="160" cy="218" r="34" fill="#cabf9f" stroke="#0d0c08" stroke-width="1.5"></circle><text x="203" y="274" text-anchor="middle" dominant-baseline="central" font-family="Georgia, &quot;Times New Roman&quot;, serif" font-size="14" fill="#1b1810">one whole (a set)</text></g><text x="445" y="64" text-anchor="middle" font-family="system-ui,sans-serif" font-size="15" font-weight="700" fill="#1b1810">apply partition</text><text x="445" y="84" text-anchor="middle" font-family="system-ui,sans-serif" font-size="11" fill="#5a5446">Apply the set's own radial partition rule into 5 equal parts.</text><g transform="translate(231.95049504950495 30.336633663366328) scale(1.0495049504950495)"><rect x="102" y="74" width="202" height="202" fill="#f8f1df" stroke="#0d0c08" stroke-width="0"></rect><circle cx="160" cy="132" r="34" fill="#cabf9f" stroke="#0d0c08" stroke-width="1.5"></circle><circle cx="246" cy="132" r="34" fill="#cabf9f" stroke="#0d0c08" stroke-width="1.5"></circle><circle cx="160" cy="218" r="34" fill="#cabf9f" stroke="#0d0c08" stroke-width="1.5"></circle><text x="203" y="274" text-anchor="middle" dominant-baseline="central" font-family="Georgia, &quot;Times New Roman&quot;, serif" font-size="14" fill="#1b1810">one whole (a set)</text><path d="M 160 132 L 160 98 A 34 34 0 0 1 192.33592155403522 121.4934221912518 Z" fill="#d4a747" opacity="0.45" stroke="none"></path><line x1="160" y1="132" x2="160" y2="98" stroke="#d4a747" stroke-width="1.3"></line><line x1="160" y1="132" x2="192.33592155403522" y2="121.4934221912518" stroke="#d4a747" stroke-width="1.3"></line><line x1="160" y1="132" x2="179.98469857794407" y2="159.5065778087482" stroke="#d4a747" stroke-width="1.3"></line><line x1="160" y1="132" x2="140.01530142205593" y2="159.5065778087482" stroke="#d4a747" stroke-width="1.3"></line><line x1="160" y1="132" x2="127.66407844596478" y2="121.4934221912518" stroke="#d4a747" stroke-width="1.3"></line><line x1="246" y1="132" x2="246" y2="98" stroke="#d4a747" stroke-width="1.3"></line><line x1="246" y1="132" x2="278.3359215540352" y2="121.4934221912518" stroke="#d4a747" stroke-width="1.3"></line><line x1="246" y1="132" x2="265.9846985779441" y2="159.5065778087482" stroke="#d4a747" stroke-width="1.3"></line><line x1="246" y1="132" x2="226.01530142205593" y2="159.5065778087482" stroke="#d4a747" stroke-width="1.3"></line><line x1="246" y1="132" x2="213.66407844596478" y2="121.4934221912518" stroke="#d4a747" stroke-width="1.3"></line><line x1="160" y1="218" x2="160" y2="184" stroke="#d4a747" stroke-width="1.3"></line><line x1="160" y1="218" x2="192.33592155403522" y2="207.4934221912518" stroke="#d4a747" stroke-width="1.3"></line><line x1="160" y1="218" x2="179.98469857794407" y2="245.5065778087482" stroke="#d4a747" stroke-width="1.3"></line><line x1="160" y1="218" x2="140.01530142205593" y2="245.5065778087482" stroke="#d4a747" stroke-width="1.3"></line><line x1="160" y1="218" x2="127.66407844596478" y2="207.4934221912518" stroke="#d4a747" stroke-width="1.3"></line></g><text x="733" y="64" text-anchor="middle" font-family="system-ui,sans-serif" font-size="15" font-weight="700" fill="#1b1810">shade unit part</text><text x="733" y="84" text-anchor="middle" font-family="system-ui,sans-serif" font-size="11" fill="#5a5446">Shade one part: this is 1/5.</text><g transform="translate(519.950495049505 30.336633663366328) scale(1.0495049504950495)"><rect x="102" y="74" width="202" height="202" fill="#f8f1df" stroke="#0d0c08" stroke-width="0"></rect><circle cx="160" cy="132" r="34" fill="#cabf9f" stroke="#0d0c08" stroke-width="1.5"></circle><circle cx="246" cy="132" r="34" fill="#cabf9f" stroke="#0d0c08" stroke-width="1.5"></circle><circle cx="160" cy="218" r="34" fill="#cabf9f" stroke="#0d0c08" stroke-width="1.5"></circle><text x="203" y="274" text-anchor="middle" dominant-baseline="central" font-family="Georgia, &quot;Times New Roman&quot;, serif" font-size="14" fill="#1b1810">one whole (a set)</text><path d="M 160 132 L 160 98 A 34 34 0 0 1 192.33592155403522 121.4934221912518 Z" fill="#d4a747" opacity="0.45" stroke="none"></path><line x1="160" y1="132" x2="160" y2="98" stroke="#d4a747" stroke-width="1.3"></line><line x1="160" y1="132" x2="192.33592155403522" y2="121.4934221912518" stroke="#d4a747" stroke-width="1.3"></line><line x1="160" y1="132" x2="179.98469857794407" y2="159.5065778087482" stroke="#d4a747" stroke-width="1.3"></line><line x1="160" y1="132" x2="140.01530142205593" y2="159.5065778087482" stroke="#d4a747" stroke-width="1.3"></line><line x1="160" y1="132" x2="127.66407844596478" y2="121.4934221912518" stroke="#d4a747" stroke-width="1.3"></line><line x1="246" y1="132" x2="246" y2="98" stroke="#d4a747" stroke-width="1.3"></line><line x1="246" y1="132" x2="278.3359215540352" y2="121.4934221912518" stroke="#d4a747" stroke-width="1.3"></line><line x1="246" y1="132" x2="265.9846985779441" y2="159.5065778087482" stroke="#d4a747" stroke-width="1.3"></line><line x1="246" y1="132" x2="226.01530142205593" y2="159.5065778087482" stroke="#d4a747" stroke-width="1.3"></line><line x1="246" y1="132" x2="213.66407844596478" y2="121.4934221912518" stroke="#d4a747" stroke-width="1.3"></line><line x1="160" y1="218" x2="160" y2="184" stroke="#d4a747" stroke-width="1.3"></line><line x1="160" y1="218" x2="192.33592155403522" y2="207.4934221912518" stroke="#d4a747" stroke-width="1.3"></line><line x1="160" y1="218" x2="179.98469857794407" y2="245.5065778087482" stroke="#d4a747" stroke-width="1.3"></line><line x1="160" y1="218" x2="140.01530142205593" y2="245.5065778087482" stroke="#d4a747" stroke-width="1.3"></line><line x1="160" y1="218" x2="127.66407844596478" y2="207.4934221912518" stroke="#d4a747" stroke-width="1.3"></line></g></svg>
