<svg xmlns="http://www.w3.org/2000/svg" viewBox="0 0 890 350" role="img" aria-label="Productive 1/5 on a rectangle (establish -&gt; partition -&gt; shade)"><rect x="0" y="0" width="890" height="350" fill="#f8f1df"/><text x="445" y="28" text-anchor="middle" font-family="Georgia, 'Times New Roman', serif" font-size="20" font-weight="700" fill="#1b1810">Productive 1/5 on a rectangle (establish -&gt; partition -&gt; shade)</text><text x="157" y="64" text-anchor="middle" font-family="system-ui,sans-serif" font-size="15" font-weight="700" fill="#1b1810">establish whole</text><text x="157" y="84" text-anchor="middle" font-family="system-ui,sans-serif" font-size="11" fill="#5a5446">Establish one whole as a rectangle.</text><g transform="translate(-44.72413793103448 73.56896551724137) scale(0.7758620689655172)"><rect x="86" y="62" width="348" height="238" fill="#f8f1df" stroke="#0d0c08" stroke-width="0"></rect><rect x="110" y="86" width="300" height="190" fill="#cabf9f" stroke="#0d0c08" stroke-width="1.25"></rect><rect x="110" y="86" width="300" height="190" fill="none" stroke="#0d0c08" stroke-width="1.75"></rect><text x="260" y="298" text-anchor="middle" dominant-baseline="central" font-family="Georgia, &quot;Times New Roman&quot;, serif" font-size="14" fill="#1b1810">one whole</text></g><text x="445" y="64" text-anchor="middle" font-family="system-ui,sans-serif" font-size="15" font-weight="700" fill="#1b1810">apply partition</text><text x="445" y="84" text-anchor="middle" font-family="system-ui,sans-serif" font-size="11" fill="#5a5446">Apply the rectangle's own vertical-strip partition rule into 5 equal par</text><g transform="translate(243.27586206896552 73.56896551724137) scale(0.7758620689655172)"><rect x="86" y="62" width="348" height="238" fill="#f8f1df" stroke="#0d0c08" stroke-width="0"></rect><rect x="110" y="86" width="300" height="190" fill="#cabf9f" stroke="#0d0c08" stroke-width="1.25"></rect><rect x="110" y="86" width="300" height="190" fill="none" stroke="#0d0c08" stroke-width="1.75"></rect><text x="260" y="298" text-anchor="middle" dominant-baseline="central" font-family="Georgia, &quot;Times New Roman&quot;, serif" font-size="14" fill="#1b1810">one whole</text><rect x="110" y="86" width="60" height="190" fill="#d4a747" opacity="0.42" stroke="none"></rect><line x1="170" y1="86" x2="170" y2="276" stroke="#d4a747" stroke-width="1.4"></line><line x1="230" y1="86" x2="230" y2="276" stroke="#d4a747" stroke-width="1.4"></line><line x1="290" y1="86" x2="290" y2="276" stroke="#d4a747" stroke-width="1.4"></line><line x1="350" y1="86" x2="350" y2="276" stroke="#d4a747" stroke-width="1.4"></line></g><text x="733" y="64" text-anchor="middle" font-family="system-ui,sans-serif" font-size="15" font-weight="700" fill="#1b1810">shade unit part</text><text x="733" y="84" text-anchor="middle" font-family="system-ui,sans-serif" font-size="11" fill="#5a5446">Shade one part: this is 1/5.</text><g transform="translate(531.2758620689656 73.56896551724137) scale(0.7758620689655172)"><rect x="86" y="62" width="348" height="238" fill="#f8f1df" stroke="#0d0c08" stroke-width="0"></rect><rect x="110" y="86" width="300" height="190" fill="#cabf9f" stroke="#0d0c08" stroke-width="1.25"></rect><rect x="110" y="86" width="300" height="190" fill="none" stroke="#0d0c08" stroke-width="1.75"></rect><text x="260" y="298" text-anchor="middle" dominant-baseline="central" font-family="Georgia, &quot;Times New Roman&quot;, serif" font-size="14" fill="#1b1810">one whole</text><rect x="110" y="86" width="60" height="190" fill="#d4a747" opacity="0.42" stroke="none"></rect><line x1="170" y1="86" x2="170" y2="276" stroke="#d4a747" stroke-width="1.4"></line><line x1="230" y1="86" x2="230" y2="276" stroke="#d4a747" stroke-width="1.4"></line><line x1="290" y1="86" x2="290" y2="276" stroke="#d4a747" stroke-width="1.4"></line><line x1="350" y1="86" x2="350" y2="276" stroke="#d4a747" stroke-width="1.4"></line></g></svg>
