<svg xmlns="http://www.w3.org/2000/svg" viewBox="0 0 1370 296" preserveAspectRatio="xMidYMid meet" role="img" aria-label="BALANCE-DEMO correct filmstrip 2x + 3 = 11"><rect x="0" y="0" width="1370" height="296" fill="#f8f1df"></rect><metadata data-hermes-kind="monitoring-visual-proof">{&quot;kind&quot;:&quot;hermes_monitoring_visual_filmstrip_proof&quot;,&quot;lesson_code&quot;:&quot;BALANCE-DEMO&quot;,&quot;visual_index&quot;:0,&quot;side&quot;:&quot;correct&quot;,&quot;expression&quot;:&quot;2x + 3 = 11&quot;,&quot;proof&quot;:{&quot;source&quot;:&quot;representation_grammar_and_render_contract&quot;,&quot;status&quot;:&quot;productive_preserves_denoted_task&quot;,&quot;frame_count&quot;:4,&quot;temporal&quot;:true,&quot;frame_sequence&quot;:[{&quot;step&quot;:1,&quot;verb&quot;:&quot;show_equation_as_balance&quot;,&quot;caption&quot;:&quot;2x + 3 = 11. The two sides name the same weight, so the beam is level.&quot;},{&quot;step&quot;:2,&quot;verb&quot;:&quot;subtract_units_from_both_pans&quot;,&quot;caption&quot;:&quot;Take 3 units off BOTH pans. Left 2x, right 8; still level.&quot;},{&quot;step&quot;:3,&quot;verb&quot;:&quot;split_each_side_into_equal_groups&quot;,&quot;caption&quot;:&quot;Split each pan into 2 equal groups: one x-box balances 8 / 2 = 4 units.&quot;},{&quot;step&quot;:4,&quot;verb&quot;:&quot;isolate_the_unknown&quot;,&quot;caption&quot;:&quot;x = 4. One x-box balances 4 units; the beam stays level.&quot;}],&quot;grammar&quot;:{&quot;denoted_task&quot;:&quot;equation(linear(2,3,11))&quot;,&quot;preserves&quot;:true,&quot;representation&quot;:&quot;balance_scale&quot;,&quot;spec&quot;:&quot;solve_linear(2,3,11)&quot;}},&quot;interpretive_residue&quot;:{&quot;status&quot;:&quot;human_endorsement_required&quot;,&quot;claim&quot;:&quot;Hermes checks representation grammar, denotation, deformation evidence, refusal, and render frames; it does not certify that this generated visual is a faithful reading of any particular student's work.&quot;,&quot;machine_certifies&quot;:[&quot;render spec denotation or named deformation evidence&quot;,&quot;representation refusal when a vocabulary cannot productively denote the task&quot;,&quot;temporal frame count and scene-contract shape&quot;],&quot;human_must_endorse&quot;:[&quot;the fit between extracted teacher-guide numbers and the lesson activity&quot;,&quot;the projective reading from an actual student work sample to this labeled misconception&quot;]}}</metadata><g data-frame-index="0" transform="translate(18 18)"><rect x="0" y="0" width="320" height="260" rx="6" fill="#fffaf0" stroke="#cabf9f"></rect><svg xmlns="http://www.w3.org/2000/svg" viewBox="36 16 648 448" preserveAspectRatio="xMidYMid meet" x="10" y="10" width="300" height="176"><rect x="36" y="16" width="648" height="448" fill="#f8f1df" stroke="#0d0c08" stroke-width="0"></rect><path d="M360 120 L342 190 L378 190 Z" fill="#cabf9f" stroke="#0d0c08" stroke-width="0.6"></path><line x1="100" y1="120" x2="620" y2="120" stroke="#0d0c08" stroke-width="5"></line><line x1="100" y1="120" x2="100" y2="210" stroke="#0d0c08" stroke-width="1.25"></line><path d="M 25 210 Q 100 268 175 210" fill="#cabf9f" stroke="#0d0c08" stroke-width="1.5"></path><rect x="39" y="196" width="24" height="24" fill="#cabf9f" stroke="#0d0c08" stroke-width="1"></rect><text x="51" y="208" text-anchor="middle" dominant-baseline="central" font-family="Georgia, Times New Roman, serif" font-size="13" fill="#1b1810">x</text><rect x="67" y="196" width="24" height="24" fill="#cabf9f" stroke="#0d0c08" stroke-width="1"></rect><text x="79" y="208" text-anchor="middle" dominant-baseline="central" font-family="Georgia, Times New Roman, serif" font-size="13" fill="#1b1810">x</text><rect x="95" y="196" width="24" height="24" fill="#cabf9f" stroke="#0d0c08" stroke-width="1"></rect><rect x="123" y="196" width="24" height="24" fill="#cabf9f" stroke="#0d0c08" stroke-width="1"></rect><rect x="151" y="196" width="24" height="24" fill="#cabf9f" stroke="#0d0c08" stroke-width="1"></rect><line x1="620" y1="120" x2="620" y2="210" stroke="#0d0c08" stroke-width="1.25"></line><path d="M 545 210 Q 620 268 695 210" fill="#cabf9f" stroke="#0d0c08" stroke-width="1.5"></path><rect x="559" y="196" width="24" height="24" fill="#cabf9f" stroke="#0d0c08" stroke-width="1"></rect><rect x="587" y="196" width="24" height="24" fill="#cabf9f" stroke="#0d0c08" stroke-width="1"></rect><rect x="615" y="196" width="24" height="24" fill="#cabf9f" stroke="#0d0c08" stroke-width="1"></rect><rect x="643" y="196" width="24" height="24" fill="#cabf9f" stroke="#0d0c08" stroke-width="1"></rect><rect x="671" y="196" width="24" height="24" fill="#cabf9f" stroke="#0d0c08" stroke-width="1"></rect><rect x="559" y="168" width="24" height="24" fill="#cabf9f" stroke="#0d0c08" stroke-width="1"></rect><rect x="587" y="168" width="24" height="24" fill="#cabf9f" stroke="#0d0c08" stroke-width="1"></rect><rect x="615" y="168" width="24" height="24" fill="#cabf9f" stroke="#0d0c08" stroke-width="1"></rect><rect x="643" y="168" width="24" height="24" fill="#cabf9f" stroke="#0d0c08" stroke-width="1"></rect><rect x="671" y="168" width="24" height="24" fill="#cabf9f" stroke="#0d0c08" stroke-width="1"></rect><rect x="559" y="140" width="24" height="24" fill="#cabf9f" stroke="#0d0c08" stroke-width="1"></rect></svg><text x="14" y="210" font-family="Georgia, Times New Roman, serif" font-size="14" font-weight="700" fill="#1b1810">Step 1: show_equation_as_balance</text><text x="14" y="232" font-family="system-ui, sans-serif" font-size="12" fill="#4d4638">2x + 3 = 11. The two sides name the same weight, so the beam is level.</text></g><g data-frame-index="1" transform="translate(356 18)"><rect x="0" y="0" width="320" height="260" rx="6" fill="#fffaf0" stroke="#cabf9f"></rect><svg xmlns="http://www.w3.org/2000/svg" viewBox="36 16 648 448" preserveAspectRatio="xMidYMid meet" x="10" y="10" width="300" height="176"><rect x="36" y="16" width="648" height="448" fill="#f8f1df" stroke="#0d0c08" stroke-width="0"></rect><path d="M360 120 L342 190 L378 190 Z" fill="#cabf9f" stroke="#0d0c08" stroke-width="0.6"></path><line x1="100" y1="120" x2="620" y2="120" stroke="#0d0c08" stroke-width="5"></line><line x1="100" y1="120" x2="100" y2="210" stroke="#0d0c08" stroke-width="1.25"></line><path d="M 25 210 Q 100 268 175 210" fill="#cabf9f" stroke="#0d0c08" stroke-width="1.5"></path><rect x="39" y="196" width="24" height="24" fill="#cabf9f" stroke="#0d0c08" stroke-width="1"></rect><text x="51" y="208" text-anchor="middle" dominant-baseline="central" font-family="Georgia, Times New Roman, serif" font-size="13" fill="#1b1810">x</text><rect x="67" y="196" width="24" height="24" fill="#cabf9f" stroke="#0d0c08" stroke-width="1"></rect><text x="79" y="208" text-anchor="middle" dominant-baseline="central" font-family="Georgia, Times New Roman, serif" font-size="13" fill="#1b1810">x</text><line x1="620" y1="120" x2="620" y2="210" stroke="#0d0c08" stroke-width="1.25"></line><path d="M 545 210 Q 620 268 695 210" fill="#cabf9f" stroke="#0d0c08" stroke-width="1.5"></path><rect x="559" y="196" width="24" height="24" fill="#cabf9f" stroke="#0d0c08" stroke-width="1"></rect><rect x="587" y="196" width="24" height="24" fill="#cabf9f" stroke="#0d0c08" stroke-width="1"></rect><rect x="615" y="196" width="24" height="24" fill="#cabf9f" stroke="#0d0c08" stroke-width="1"></rect><rect x="643" y="196" width="24" height="24" fill="#cabf9f" stroke="#0d0c08" stroke-width="1"></rect><rect x="671" y="196" width="24" height="24" fill="#cabf9f" stroke="#0d0c08" stroke-width="1"></rect><rect x="559" y="168" width="24" height="24" fill="#cabf9f" stroke="#0d0c08" stroke-width="1"></rect><rect x="587" y="168" width="24" height="24" fill="#cabf9f" stroke="#0d0c08" stroke-width="1"></rect><rect x="615" y="168" width="24" height="24" fill="#cabf9f" stroke="#0d0c08" stroke-width="1"></rect></svg><text x="14" y="210" font-family="Georgia, Times New Roman, serif" font-size="14" font-weight="700" fill="#1b1810">Step 2: subtract_units_from_both_pans</text><text x="14" y="232" font-family="system-ui, sans-serif" font-size="12" fill="#4d4638">Take 3 units off BOTH pans. Left 2x, right 8; still level.</text></g><g data-frame-index="2" transform="translate(694 18)"><rect x="0" y="0" width="320" height="260" rx="6" fill="#fffaf0" stroke="#cabf9f"></rect><svg xmlns="http://www.w3.org/2000/svg" viewBox="36 16 648 448" preserveAspectRatio="xMidYMid meet" x="10" y="10" width="300" height="176"><rect x="36" y="16" width="648" height="448" fill="#f8f1df" stroke="#0d0c08" stroke-width="0"></rect><path d="M360 120 L342 190 L378 190 Z" fill="#cabf9f" stroke="#0d0c08" stroke-width="0.6"></path><line x1="100" y1="120" x2="620" y2="120" stroke="#0d0c08" stroke-width="5"></line><line x1="100" y1="120" x2="100" y2="210" stroke="#0d0c08" stroke-width="1.25"></line><path d="M 25 210 Q 100 268 175 210" fill="#cabf9f" stroke="#0d0c08" stroke-width="1.5"></path><rect x="39" y="196" width="24" height="24" fill="#cabf9f" stroke="#0d0c08" stroke-width="1"></rect><text x="51" y="208" text-anchor="middle" dominant-baseline="central" font-family="Georgia, Times New Roman, serif" font-size="13" fill="#1b1810">x</text><rect x="67" y="196" width="24" height="24" fill="#cabf9f" stroke="#0d0c08" stroke-width="1"></rect><text x="79" y="208" text-anchor="middle" dominant-baseline="central" font-family="Georgia, Times New Roman, serif" font-size="13" fill="#1b1810">x</text><line x1="620" y1="120" x2="620" y2="210" stroke="#0d0c08" stroke-width="1.25"></line><path d="M 545 210 Q 620 268 695 210" fill="#cabf9f" stroke="#0d0c08" stroke-width="1.5"></path><rect x="559" y="196" width="24" height="24" fill="#cabf9f" stroke="#0d0c08" stroke-width="1"></rect><rect x="587" y="196" width="24" height="24" fill="#cabf9f" stroke="#0d0c08" stroke-width="1"></rect><rect x="615" y="196" width="24" height="24" fill="#cabf9f" stroke="#0d0c08" stroke-width="1"></rect><rect x="643" y="196" width="24" height="24" fill="#cabf9f" stroke="#0d0c08" stroke-width="1"></rect><rect x="671" y="196" width="24" height="24" fill="#cabf9f" stroke="#0d0c08" stroke-width="1"></rect><rect x="559" y="168" width="24" height="24" fill="#cabf9f" stroke="#0d0c08" stroke-width="1"></rect><rect x="587" y="168" width="24" height="24" fill="#cabf9f" stroke="#0d0c08" stroke-width="1"></rect><rect x="615" y="168" width="24" height="24" fill="#cabf9f" stroke="#0d0c08" stroke-width="1"></rect></svg><text x="14" y="210" font-family="Georgia, Times New Roman, serif" font-size="14" font-weight="700" fill="#1b1810">Step 3: split_each_side_into_equal_groups</text><text x="14" y="232" font-family="system-ui, sans-serif" font-size="12" fill="#4d4638">Split each pan into 2 equal groups: one x-box balances 8 / 2 = 4 units.</text></g><g data-frame-index="3" transform="translate(1032 18)"><rect x="0" y="0" width="320" height="260" rx="6" fill="#fffaf0" stroke="#cabf9f"></rect><svg xmlns="http://www.w3.org/2000/svg" viewBox="36 16 648 448" preserveAspectRatio="xMidYMid meet" x="10" y="10" width="300" height="176"><rect x="36" y="16" width="648" height="448" fill="#f8f1df" stroke="#0d0c08" stroke-width="0"></rect><path d="M360 120 L342 190 L378 190 Z" fill="#cabf9f" stroke="#0d0c08" stroke-width="0.6"></path><line x1="100" y1="120" x2="620" y2="120" stroke="#0d0c08" stroke-width="5"></line><line x1="100" y1="120" x2="100" y2="210" stroke="#0d0c08" stroke-width="1.25"></line><path d="M 25 210 Q 100 268 175 210" fill="#cabf9f" stroke="#0d0c08" stroke-width="1.5"></path><rect x="39" y="196" width="24" height="24" fill="#cabf9f" stroke="#0d0c08" stroke-width="1"></rect><text x="51" y="208" text-anchor="middle" dominant-baseline="central" font-family="Georgia, Times New Roman, serif" font-size="13" fill="#1b1810">x</text><line x1="620" y1="120" x2="620" y2="210" stroke="#0d0c08" stroke-width="1.25"></line><path d="M 545 210 Q 620 268 695 210" fill="#cabf9f" stroke="#0d0c08" stroke-width="1.5"></path><rect x="559" y="196" width="24" height="24" fill="#cabf9f" stroke="#0d0c08" stroke-width="1"></rect><rect x="587" y="196" width="24" height="24" fill="#cabf9f" stroke="#0d0c08" stroke-width="1"></rect><rect x="615" y="196" width="24" height="24" fill="#cabf9f" stroke="#0d0c08" stroke-width="1"></rect><rect x="643" y="196" width="24" height="24" fill="#cabf9f" stroke="#0d0c08" stroke-width="1"></rect></svg><text x="14" y="210" font-family="Georgia, Times New Roman, serif" font-size="14" font-weight="700" fill="#1b1810">Step 4: isolate_the_unknown</text><text x="14" y="232" font-family="system-ui, sans-serif" font-size="12" fill="#4d4638">x = 4. One x-box balances 4 units; the beam stays level.</text></g></svg>
