<svg xmlns="http://www.w3.org/2000/svg" viewBox="0 0 1032 312" preserveAspectRatio="xMidYMid meet" role="img" aria-label="FRACTION-DEMO correct filmstrip 1/3 + 1/4"><rect x="0" y="0" width="1032" height="312" fill="#f8f1df"></rect><metadata data-hermes-kind="monitoring-visual-proof">{&quot;kind&quot;:&quot;hermes_monitoring_visual_filmstrip_proof&quot;,&quot;lesson_code&quot;:&quot;FRACTION-DEMO&quot;,&quot;visual_index&quot;:0,&quot;side&quot;:&quot;correct&quot;,&quot;expression&quot;:&quot;1/3 + 1/4&quot;,&quot;proof&quot;:{&quot;source&quot;:&quot;representation_grammar_and_render_contract&quot;,&quot;status&quot;:&quot;productive_preserves_denoted_task&quot;,&quot;frame_count&quot;:3,&quot;temporal&quot;:true,&quot;frame_sequence&quot;:[{&quot;step&quot;:1,&quot;verb&quot;:&quot;show_addends&quot;,&quot;caption&quot;:&quot;1/3 + 1/4. The parts are different sizes.&quot;},{&quot;step&quot;:2,&quot;verb&quot;:&quot;co_measure_in_shared_unit&quot;,&quot;caption&quot;:&quot;Measure both in 12ths: 1/3 = 4/12 and 1/4 = 3/12.&quot;},{&quot;step&quot;:3,&quot;verb&quot;:&quot;combine_shared_ticks&quot;,&quot;caption&quot;:&quot;Join the shaded parts: 4/12 + 3/12 = 7/12.&quot;}],&quot;grammar&quot;:{&quot;denoted_task&quot;:&quot;fraction_addition(fraction(1,3),fraction(1,4))&quot;,&quot;preserves&quot;:true,&quot;representation&quot;:&quot;fraction_bars&quot;,&quot;spec&quot;:&quot;fraction_arith(add,1,3,1,4)&quot;}},&quot;interpretive_residue&quot;:{&quot;status&quot;:&quot;human_endorsement_required&quot;,&quot;claim&quot;:&quot;Hermes checks representation grammar, denotation, deformation evidence, refusal, and render frames; it does not certify that this generated visual is a faithful reading of any particular student's work.&quot;,&quot;machine_certifies&quot;:[&quot;render spec denotation or named deformation evidence&quot;,&quot;representation refusal when a vocabulary cannot productively denote the task&quot;,&quot;temporal frame count and scene-contract shape&quot;],&quot;human_must_endorse&quot;:[&quot;the fit between extracted teacher-guide numbers and the lesson activity&quot;,&quot;the projective reading from an actual student work sample to this labeled misconception&quot;]}}</metadata><g data-frame-index="0" data-caption-lines="1" transform="translate(18 18)"><rect x="0" y="0" width="320" height="276" rx="6" fill="#fffaf0" stroke="#cabf9f"></rect><svg xmlns="http://www.w3.org/2000/svg" viewBox="16 16 468 168" preserveAspectRatio="xMidYMid meet" x="10" y="10" width="300" height="176"><rect x="16" y="16" width="468" height="168" fill="#f8f1df" stroke="#0d0c08" stroke-width="0"></rect><rect x="40" y="40" width="420" height="48" fill="#dfe7ef" stroke="#0d0c08" stroke-width="1.5"></rect><rect x="40" y="40" width="140" height="48" fill="#7fb2e6" stroke="#0d0c08" stroke-width="0.75"></rect><rect x="180" y="40" width="140" height="48" fill="#dfe7ef" stroke="#0d0c08" stroke-width="0.75"></rect><rect x="320" y="40" width="140" height="48" fill="#dfe7ef" stroke="#0d0c08" stroke-width="0.75"></rect><rect x="40" y="40" width="420" height="48" fill="none" stroke="#0d0c08" stroke-width="1.5"></rect><text x="250" y="64" text-anchor="middle" dominant-baseline="central" font-family="Georgia, Times New Roman, serif" font-size="20" fill="#1b1810">1/3</text><rect x="40" y="112" width="420" height="48" fill="#dfe7ef" stroke="#0d0c08" stroke-width="1.5"></rect><rect x="40" y="112" width="105" height="48" fill="#9ccf9c" stroke="#0d0c08" stroke-width="0.75"></rect><rect x="145" y="112" width="105" height="48" fill="#dfe7ef" stroke="#0d0c08" stroke-width="0.75"></rect><rect x="250" y="112" width="105" height="48" fill="#dfe7ef" stroke="#0d0c08" stroke-width="0.75"></rect><rect x="355" y="112" width="105" height="48" fill="#dfe7ef" stroke="#0d0c08" stroke-width="0.75"></rect><rect x="40" y="112" width="420" height="48" fill="none" stroke="#0d0c08" stroke-width="1.5"></rect><text x="250" y="136" text-anchor="middle" dominant-baseline="central" font-family="Georgia, Times New Roman, serif" font-size="20" fill="#1b1810">1/4</text></svg><text x="14" y="210" font-family="Georgia, Times New Roman, serif" font-size="14" font-weight="700" fill="#1b1810">Step 1: show_addends</text><text x="14" y="232" font-family="system-ui, sans-serif" font-size="12" fill="#4d4638"><tspan x="14" dy="0">1/3 + 1/4. The parts are different sizes.</tspan></text></g><g data-frame-index="1" data-caption-lines="2" transform="translate(356 18)"><rect x="0" y="0" width="320" height="276" rx="6" fill="#fffaf0" stroke="#cabf9f"></rect><svg xmlns="http://www.w3.org/2000/svg" viewBox="16 16 468 168" preserveAspectRatio="xMidYMid meet" x="10" y="10" width="300" height="176"><rect x="16" y="16" width="468" height="168" fill="#f8f1df" stroke="#0d0c08" stroke-width="0"></rect><rect x="40" y="40" width="420" height="48" fill="#dfe7ef" stroke="#0d0c08" stroke-width="1.5"></rect><rect x="40" y="40" width="35" height="48" fill="#7fb2e6" stroke="#0d0c08" stroke-width="0.75"></rect><rect x="75" y="40" width="35" height="48" fill="#7fb2e6" stroke="#0d0c08" stroke-width="0.75"></rect><rect x="110" y="40" width="35" height="48" fill="#7fb2e6" stroke="#0d0c08" stroke-width="0.75"></rect><rect x="145" y="40" width="35" height="48" fill="#7fb2e6" stroke="#0d0c08" stroke-width="0.75"></rect><rect x="180" y="40" width="35" height="48" fill="#dfe7ef" stroke="#0d0c08" stroke-width="0.75"></rect><rect x="215" y="40" width="35" height="48" fill="#dfe7ef" stroke="#0d0c08" stroke-width="0.75"></rect><rect x="250" y="40" width="35" height="48" fill="#dfe7ef" stroke="#0d0c08" stroke-width="0.75"></rect><rect x="285" y="40" width="35" height="48" fill="#dfe7ef" stroke="#0d0c08" stroke-width="0.75"></rect><rect x="320" y="40" width="35" height="48" fill="#dfe7ef" stroke="#0d0c08" stroke-width="0.75"></rect><rect x="355" y="40" width="35" height="48" fill="#dfe7ef" stroke="#0d0c08" stroke-width="0.75"></rect><rect x="390" y="40" width="35" height="48" fill="#dfe7ef" stroke="#0d0c08" stroke-width="0.75"></rect><rect x="425" y="40" width="35" height="48" fill="#dfe7ef" stroke="#0d0c08" stroke-width="0.75"></rect><rect x="40" y="40" width="420" height="48" fill="none" stroke="#0d0c08" stroke-width="1.5"></rect><text x="250" y="64" text-anchor="middle" dominant-baseline="central" font-family="Georgia, Times New Roman, serif" font-size="20" fill="#1b1810">4/12</text><rect x="40" y="112" width="420" height="48" fill="#dfe7ef" stroke="#0d0c08" stroke-width="1.5"></rect><rect x="40" y="112" width="35" height="48" fill="#9ccf9c" stroke="#0d0c08" stroke-width="0.75"></rect><rect x="75" y="112" width="35" height="48" fill="#9ccf9c" stroke="#0d0c08" stroke-width="0.75"></rect><rect x="110" y="112" width="35" height="48" fill="#9ccf9c" stroke="#0d0c08" stroke-width="0.75"></rect><rect x="145" y="112" width="35" height="48" fill="#dfe7ef" stroke="#0d0c08" stroke-width="0.75"></rect><rect x="180" y="112" width="35" height="48" fill="#dfe7ef" stroke="#0d0c08" stroke-width="0.75"></rect><rect x="215" y="112" width="35" height="48" fill="#dfe7ef" stroke="#0d0c08" stroke-width="0.75"></rect><rect x="250" y="112" width="35" height="48" fill="#dfe7ef" stroke="#0d0c08" stroke-width="0.75"></rect><rect x="285" y="112" width="35" height="48" fill="#dfe7ef" stroke="#0d0c08" stroke-width="0.75"></rect><rect x="320" y="112" width="35" height="48" fill="#dfe7ef" stroke="#0d0c08" stroke-width="0.75"></rect><rect x="355" y="112" width="35" height="48" fill="#dfe7ef" stroke="#0d0c08" stroke-width="0.75"></rect><rect x="390" y="112" width="35" height="48" fill="#dfe7ef" stroke="#0d0c08" stroke-width="0.75"></rect><rect x="425" y="112" width="35" height="48" fill="#dfe7ef" stroke="#0d0c08" stroke-width="0.75"></rect><rect x="40" y="112" width="420" height="48" fill="none" stroke="#0d0c08" stroke-width="1.5"></rect><text x="250" y="136" text-anchor="middle" dominant-baseline="central" font-family="Georgia, Times New Roman, serif" font-size="20" fill="#1b1810">3/12</text></svg><text x="14" y="210" font-family="Georgia, Times New Roman, serif" font-size="14" font-weight="700" fill="#1b1810">Step 2: co_measure_in_shared_unit</text><text x="14" y="232" font-family="system-ui, sans-serif" font-size="12" fill="#4d4638"><tspan x="14" dy="0">Measure both in 12ths: 1/3 = 4/12 and 1/4 =</tspan><tspan x="14" dy="15">3/12.</tspan></text></g><g data-frame-index="2" data-caption-lines="1" transform="translate(694 18)"><rect x="0" y="0" width="320" height="276" rx="6" fill="#fffaf0" stroke="#cabf9f"></rect><svg xmlns="http://www.w3.org/2000/svg" viewBox="16 16 468 168" preserveAspectRatio="xMidYMid meet" x="10" y="10" width="300" height="176"><rect x="16" y="16" width="468" height="168" fill="#f8f1df" stroke="#0d0c08" stroke-width="0"></rect><rect x="40" y="40" width="420" height="48" fill="#dfe7ef" stroke="#0d0c08" stroke-width="1.5"></rect><rect x="40" y="40" width="35" height="48" fill="#7fb2e6" stroke="#0d0c08" stroke-width="0.75"></rect><rect x="75" y="40" width="35" height="48" fill="#7fb2e6" stroke="#0d0c08" stroke-width="0.75"></rect><rect x="110" y="40" width="35" height="48" fill="#7fb2e6" stroke="#0d0c08" stroke-width="0.75"></rect><rect x="145" y="40" width="35" height="48" fill="#7fb2e6" stroke="#0d0c08" stroke-width="0.75"></rect><rect x="180" y="40" width="35" height="48" fill="#9ccf9c" stroke="#0d0c08" stroke-width="0.75"></rect><rect x="215" y="40" width="35" height="48" fill="#9ccf9c" stroke="#0d0c08" stroke-width="0.75"></rect><rect x="250" y="40" width="35" height="48" fill="#9ccf9c" stroke="#0d0c08" stroke-width="0.75"></rect><rect x="285" y="40" width="35" height="48" fill="#dfe7ef" stroke="#0d0c08" stroke-width="0.75"></rect><rect x="320" y="40" width="35" height="48" fill="#dfe7ef" stroke="#0d0c08" stroke-width="0.75"></rect><rect x="355" y="40" width="35" height="48" fill="#dfe7ef" stroke="#0d0c08" stroke-width="0.75"></rect><rect x="390" y="40" width="35" height="48" fill="#dfe7ef" stroke="#0d0c08" stroke-width="0.75"></rect><rect x="425" y="40" width="35" height="48" fill="#dfe7ef" stroke="#0d0c08" stroke-width="0.75"></rect><rect x="40" y="40" width="420" height="48" fill="none" stroke="#0d0c08" stroke-width="1.5"></rect><text x="250" y="64" text-anchor="middle" dominant-baseline="central" font-family="Georgia, Times New Roman, serif" font-size="20" fill="#1b1810">7/12</text></svg><text x="14" y="210" font-family="Georgia, Times New Roman, serif" font-size="14" font-weight="700" fill="#1b1810">Step 3: combine_shared_ticks</text><text x="14" y="232" font-family="system-ui, sans-serif" font-size="12" fill="#4d4638"><tspan x="14" dy="0">Join the shaded parts: 4/12 + 3/12 = 7/12.</tspan></text></g></svg>
